<?xml version="1.0" encoding="utf-8"?>
<!-- Generator: Adobe Illustrator 24.1.1, SVG Export Plug-In . SVG Version: 6.00 Build 0)  -->
<svg version="1.1" id="Layer_1" xmlns="http://www.w3.org/2000/svg" xmlns:xlink="http://www.w3.org/1999/xlink" x="0px" y="0px"
	 viewBox="0 0 512 512" style="enable-background:new 0 0 512 512;" xml:space="preserve">
<style type="text/css">
	.st0{fill:none;stroke:var(--bell-color);stroke-width:32;stroke-linecap:round;stroke-linejoin:round;}
	.st1{fill:var(--badge-color);}
</style>
<path id="bell" class="st0" d="M427.7,351.4c-25.7-31.4-43.8-47.4-43.8-134c0-79.4-40.5-107.6-73.9-121.4c-4.4-1.8-8.6-6-10-10.6
	C294.2,65.5,277.8,48,256,48s-38.2,17.6-44,37.5c-1.4,4.6-5.5,8.7-9.9,10.5c-33.4,13.8-73.9,41.9-73.9,121.4
	c0,86.6-18.2,102.6-43.9,134.1c-10.6,13-1.3,32.6,17.3,32.6h308.9C429,384,438.3,364.4,427.7,351.4z"/>
<path class="st0" d="M320,384v16c0,35.3-28.7,64-64,64s-64-28.7-64-64v-16"/>
<circle class="st1" cx="437" cy="69" r="59"/>
</svg>
