<?xml version="1.0" encoding="UTF-8"?>
<svg xmlns="http://www.w3.org/2000/svg" xmlns:xlink="http://www.w3.org/1999/xlink" width="199pt" height="200pt" viewBox="0 0 199 200" version="1.1">
<defs>
<filter id="alpha" filterUnits="objectBoundingBox" x="0%" y="0%" width="100%" height="100%">
  <feColorMatrix type="matrix" in="SourceGraphic" values="0 0 0 0 1 0 0 0 0 1 0 0 0 0 1 0 0 0 1 0"/>
</filter>
<mask id="mask0">
  <g filter="url(#alpha)">
<rect x="0" y="0" width="199" height="200" style="fill:rgb(0%,0%,0%);fill-opacity:0.101961;stroke:none;"/>
  </g>
</mask>
<clipPath id="clip1">
  <rect x="0" y="0" width="199" height="200"/>
</clipPath>
<g id="surface5" clip-path="url(#clip1)">
<path style=" stroke:none;fill-rule:nonzero;fill:rgb(100%,100%,100%);fill-opacity:1;" d="M 142.949219 21.03125 C 142.605469 20.808594 142.390625 20.4375 142.371094 20.035156 C 142.371094 19.671875 142.625 19.523438 142.949219 19.707031 C 143.289062 19.925781 143.503906 20.292969 143.527344 20.699219 C 143.527344 21.0625 143.265625 21.210938 142.949219 21.03125 Z M 142.949219 21.03125 "/>
</g>
<mask id="mask1">
  <g filter="url(#alpha)">
<rect x="0" y="0" width="199" height="200" style="fill:rgb(0%,0%,0%);fill-opacity:0.101961;stroke:none;"/>
  </g>
</mask>
<clipPath id="clip2">
  <rect x="0" y="0" width="199" height="200"/>
</clipPath>
<g id="surface8" clip-path="url(#clip2)">
<path style=" stroke:none;fill-rule:nonzero;fill:rgb(0%,0%,0%);fill-opacity:1;" d="M 146.613281 60.589844 C 144.097656 60.867188 143.769531 64.046875 143.769531 64.046875 L 143.652344 68.910156 C 143.652344 68.910156 143.925781 75.113281 144.648438 77.003906 L 133.742188 84.476562 L 136.121094 87.238281 C 136.121094 87.238281 147.640625 81.933594 148.546875 81.09375 C 149.453125 80.253906 148.546875 70.519531 148.6875 67.71875 C 149.292969 62.425781 149.140625 60.308594 146.613281 60.589844 Z M 146.613281 60.589844 "/>
</g>
<mask id="mask2">
  <g filter="url(#alpha)">
<rect x="0" y="0" width="199" height="200" style="fill:rgb(0%,0%,0%);fill-opacity:0.4;stroke:none;"/>
  </g>
</mask>
<clipPath id="clip3">
  <rect x="0" y="0" width="199" height="200"/>
</clipPath>
<g id="surface11" clip-path="url(#clip3)">
<path style=" stroke:none;fill-rule:nonzero;fill:rgb(83.921569%,84.705882%,89.803922%);fill-opacity:1;" d="M 87.90625 180.285156 C 87.90625 173.980469 79.027344 168.871094 68.074219 168.871094 C 57.125 168.871094 48.246094 173.980469 48.246094 180.285156 C 48.246094 186.589844 57.125 191.703125 68.074219 191.703125 C 79.027344 191.703125 87.90625 186.589844 87.90625 180.285156 Z M 87.90625 180.285156 "/>
</g>
<mask id="mask3">
  <g filter="url(#alpha)">
<rect x="0" y="0" width="199" height="200" style="fill:rgb(0%,0%,0%);fill-opacity:0.4;stroke:none;"/>
  </g>
</mask>
<clipPath id="clip4">
  <rect x="0" y="0" width="199" height="200"/>
</clipPath>
<g id="surface14" clip-path="url(#clip4)">
<path style=" stroke:none;fill-rule:nonzero;fill:rgb(83.921569%,84.705882%,89.803922%);fill-opacity:1;" d="M 31.496094 139.320312 C 31.496094 136.261719 27.191406 133.785156 21.882812 133.785156 C 16.574219 133.785156 12.269531 136.261719 12.269531 139.320312 C 12.269531 142.375 16.574219 144.855469 21.882812 144.855469 C 27.191406 144.855469 31.496094 142.375 31.496094 139.320312 Z M 31.496094 139.320312 "/>
</g>
<mask id="mask4">
  <g filter="url(#alpha)">
<rect x="0" y="0" width="199" height="200" style="fill:rgb(0%,0%,0%);fill-opacity:0.4;stroke:none;"/>
  </g>
</mask>
<clipPath id="clip5">
  <rect x="0" y="0" width="199" height="200"/>
</clipPath>
<g id="surface17" clip-path="url(#clip5)">
<path style=" stroke:none;fill-rule:nonzero;fill:rgb(83.921569%,84.705882%,89.803922%);fill-opacity:1;" d="M 146.898438 194.398438 C 146.898438 191.347656 142.597656 188.871094 137.292969 188.871094 C 131.992188 188.871094 127.691406 191.347656 127.691406 194.398438 C 127.691406 197.453125 131.992188 199.925781 137.292969 199.925781 C 142.597656 199.925781 146.898438 197.453125 146.898438 194.398438 Z M 146.898438 194.398438 "/>
</g>
<mask id="mask5">
  <g filter="url(#alpha)">
<rect x="0" y="0" width="199" height="200" style="fill:rgb(0%,0%,0%);fill-opacity:0.4;stroke:none;"/>
  </g>
</mask>
<clipPath id="clip6">
  <rect x="0" y="0" width="199" height="200"/>
</clipPath>
<g id="surface20" clip-path="url(#clip6)">
<path style=" stroke:none;fill-rule:nonzero;fill:rgb(83.921569%,84.705882%,89.803922%);fill-opacity:1;" d="M 19.203125 184.386719 C 19.203125 181.332031 14.90625 178.859375 9.601562 178.859375 C 4.300781 178.859375 0 181.332031 0 184.386719 C 0 187.441406 4.300781 189.914062 9.601562 189.914062 C 14.90625 189.914062 19.203125 187.441406 19.203125 184.386719 Z M 19.203125 184.386719 "/>
</g>
<mask id="mask6">
  <g filter="url(#alpha)">
<rect x="0" y="0" width="199" height="200" style="fill:rgb(0%,0%,0%);fill-opacity:0.4;stroke:none;"/>
  </g>
</mask>
<clipPath id="clip7">
  <rect x="0" y="0" width="199" height="200"/>
</clipPath>
<g id="surface23" clip-path="url(#clip7)">
<path style=" stroke:none;fill-rule:nonzero;fill:rgb(83.921569%,84.705882%,89.803922%);fill-opacity:1;" d="M 197.578125 178.871094 C 197.578125 175.816406 193.277344 173.34375 187.976562 173.34375 C 182.671875 173.34375 178.371094 175.816406 178.371094 178.871094 C 178.371094 181.921875 182.671875 184.398438 187.976562 184.398438 C 193.277344 184.398438 197.578125 181.921875 197.578125 178.871094 Z M 197.578125 178.871094 "/>
</g>
</defs>
<g id="surface1">
<path style=" stroke:none;fill-rule:nonzero;fill:rgb(69.411765%,70.588235%,76.862745%);fill-opacity:1;" d="M 167.789062 163.6875 L 124.539062 138.773438 C 120.871094 136.664062 117.902344 131.003906 117.902344 126.136719 L 117.902344 5.863281 C 117.902344 0.996094 120.871094 -1.242188 124.539062 0.867188 L 167.789062 25.761719 C 171.453125 27.871094 174.421875 33.53125 174.421875 38.402344 L 174.421875 158.683594 C 174.421875 163.554688 171.453125 165.796875 167.789062 163.6875 Z M 167.789062 163.6875 "/>
<path style=" stroke:none;fill-rule:nonzero;fill:rgb(69.411765%,70.588235%,76.862745%);fill-opacity:1;" d="M 168.53125 165.855469 L 171.957031 164.128906 L 168.671875 158.507812 Z M 168.53125 165.855469 "/>
<path style=" stroke:none;fill-rule:nonzero;fill:rgb(69.411765%,70.588235%,76.862745%);fill-opacity:1;" d="M 117.230469 2.066406 L 120.382812 0.417969 L 119.746094 5.054688 Z M 117.230469 2.066406 "/>
<path style=" stroke:none;fill-rule:nonzero;fill:rgb(38.039216%,43.137255%,51.764706%);fill-opacity:1;" d="M 165.03125 165.0625 L 121.777344 140.164062 C 118.113281 138.054688 115.144531 132.398438 115.144531 127.527344 L 115.144531 7.238281 C 115.144531 2.371094 118.113281 0.132812 121.777344 2.238281 L 165.03125 27.136719 C 168.695312 29.246094 171.664062 34.902344 171.664062 39.777344 L 171.664062 160.058594 C 171.664062 164.933594 168.695312 167.171875 165.03125 165.0625 Z M 165.03125 165.0625 "/>
<path style=" stroke:none;fill-rule:nonzero;fill:rgb(12.54902%,13.72549%,17.647059%);fill-opacity:1;" d="M 171.191406 40.082031 L 171.191406 160.355469 C 171.191406 165.234375 168.226562 167.46875 164.5625 165.359375 L 147.597656 155.59375 L 142.324219 152.570312 L 121.316406 140.46875 C 117.652344 138.359375 114.6875 132.703125 114.6875 127.832031 L 114.6875 7.546875 C 114.6875 2.675781 117.652344 0.441406 121.316406 2.546875 L 164.574219 27.441406 C 168.238281 29.554688 171.191406 35.207031 171.191406 40.082031 Z M 171.191406 40.082031 "/>
<path style=" stroke:none;fill-rule:nonzero;fill:rgb(100%,100%,100%);fill-opacity:1;" d="M 168.085938 38.84375 L 168.085938 156 C 168.085938 158.945312 166.011719 160.148438 163.445312 158.667969 L 149.945312 150.902344 L 148.742188 150.214844 L 148.339844 149.980469 L 145.417969 148.300781 L 136.957031 143.4375 L 133.449219 141.417969 L 132.039062 140.617188 L 122.453125 135.101562 C 119.890625 133.628906 117.8125 130.039062 117.8125 127.082031 L 117.8125 9.917969 C 117.8125 6.964844 119.890625 5.769531 122.453125 7.242188 L 139.339844 16.964844 L 139.339844 17.011719 C 139.339844 19.3125 140.941406 22.105469 142.949219 23.25 C 144.953125 24.398438 146.554688 23.46875 146.554688 21.171875 C 146.554688 21.171875 146.554688 21.136719 146.554688 21.121094 L 163.445312 30.851562 C 166.011719 32.316406 168.085938 35.90625 168.085938 38.84375 Z M 168.085938 38.84375 "/>
<path style=" stroke:none;fill-rule:nonzero;fill:rgb(16.862745%,18.823529%,24.705882%);fill-opacity:1;" d="M 143.917969 19.808594 C 143.382812 18.882812 142.515625 18.382812 141.980469 18.691406 C 141.445312 19 141.445312 20 141.980469 20.925781 C 142.515625 21.851562 143.386719 22.351562 143.921875 22.042969 C 144.457031 21.734375 144.453125 20.734375 143.917969 19.808594 Z M 143.917969 19.808594 "/>
<use xlink:href="#surface5" mask="url(#mask0)"/>
<path style=" stroke:none;fill-rule:nonzero;fill:rgb(45.882353%,48.235294%,53.72549%);fill-opacity:1;" d="M 172.960938 55.90625 C 172.609375 56.113281 172.324219 55.90625 172.324219 55.429688 L 172.324219 50.300781 C 172.335938 49.824219 172.570312 49.378906 172.960938 49.101562 C 173.3125 48.898438 173.597656 49.101562 173.597656 49.585938 L 173.597656 54.710938 C 173.585938 55.1875 173.347656 55.628906 172.960938 55.90625 Z M 172.960938 55.90625 "/>
<path style=" stroke:none;fill-rule:nonzero;fill:rgb(45.882353%,48.235294%,53.72549%);fill-opacity:1;" d="M 172.960938 64.3125 C 172.609375 64.515625 172.324219 64.3125 172.324219 63.832031 L 172.324219 58.703125 C 172.332031 58.21875 172.566406 57.765625 172.960938 57.484375 C 173.3125 57.28125 173.597656 57.484375 173.597656 57.964844 L 173.597656 63.09375 C 173.589844 63.578125 173.355469 64.03125 172.960938 64.3125 Z M 172.960938 64.3125 "/>
<path style=" stroke:none;fill-rule:nonzero;fill:rgb(91.372549%,91.764706%,94.901961%);fill-opacity:1;" d="M 159.964844 148.683594 L 125.949219 129.097656 C 124.183594 128.082031 122.742188 125.355469 122.742188 123.007812 L 122.742188 60.027344 C 122.742188 57.679688 124.175781 56.597656 125.949219 57.628906 L 159.964844 77.214844 C 161.734375 78.234375 163.175781 80.960938 163.175781 83.3125 L 163.175781 146.304688 C 163.175781 148.621094 161.722656 149.699219 159.964844 148.683594 Z M 159.964844 148.683594 "/>
<path style=" stroke:none;fill-rule:nonzero;fill:rgb(80.784314%,81.568627%,85.882353%);fill-opacity:1;" d="M 139.058594 74.53125 C 136.558594 70.214844 132.507812 67.882812 130.007812 69.320312 C 127.511719 70.757812 127.511719 75.421875 130.007812 79.738281 C 132.507812 84.050781 136.558594 86.382812 139.058594 84.945312 C 141.554688 83.507812 141.554688 78.84375 139.058594 74.53125 Z M 139.058594 74.53125 "/>
<path style=" stroke:none;fill-rule:nonzero;fill:rgb(80.784314%,81.568627%,85.882353%);fill-opacity:1;" d="M 157.960938 89.769531 L 144.804688 82.195312 L 144.804688 79.128906 L 157.960938 86.703125 Z M 157.960938 89.769531 "/>
<path style=" stroke:none;fill-rule:nonzero;fill:rgb(80.784314%,81.568627%,85.882353%);fill-opacity:1;" d="M 154.925781 93.542969 L 144.804688 87.722656 L 144.804688 84.652344 L 154.925781 90.480469 Z M 154.925781 93.542969 "/>
<path style=" stroke:none;fill-rule:nonzero;fill:rgb(80.784314%,81.568627%,85.882353%);fill-opacity:1;" d="M 157.960938 107.492188 L 128.136719 90.324219 L 128.136719 87.257812 L 157.960938 104.421875 Z M 157.960938 107.492188 "/>
<path style=" stroke:none;fill-rule:nonzero;fill:rgb(80.784314%,81.568627%,85.882353%);fill-opacity:1;" d="M 151.078125 109.054688 L 128.136719 95.847656 L 128.136719 92.777344 L 151.078125 105.984375 Z M 151.078125 109.054688 "/>
<path style=" stroke:none;fill-rule:nonzero;fill:rgb(80.784314%,81.568627%,85.882353%);fill-opacity:1;" d="M 157.859375 118.480469 L 128.035156 101.3125 L 128.035156 98.242188 L 157.859375 115.410156 Z M 157.859375 118.480469 "/>
<path style=" stroke:none;fill-rule:nonzero;fill:rgb(80.784314%,81.568627%,85.882353%);fill-opacity:1;" d="M 150.976562 120.042969 L 128.035156 106.835938 L 128.035156 103.765625 L 150.976562 116.972656 Z M 150.976562 120.042969 "/>
<path style=" stroke:none;fill-rule:nonzero;fill:rgb(80.784314%,81.568627%,85.882353%);fill-opacity:1;" d="M 157.859375 129.527344 L 128.035156 112.359375 L 128.035156 109.289062 L 157.859375 126.457031 Z M 157.859375 129.527344 "/>
<path style=" stroke:none;fill-rule:nonzero;fill:rgb(80.784314%,81.568627%,85.882353%);fill-opacity:1;" d="M 157.59375 140.417969 L 127.769531 123.25 L 127.769531 120.183594 L 157.59375 137.347656 Z M 157.59375 140.417969 "/>
<path style=" stroke:none;fill-rule:nonzero;fill:rgb(80.784314%,81.568627%,85.882353%);fill-opacity:1;" d="M 150.976562 131.089844 L 128.035156 117.882812 L 128.035156 114.8125 L 150.976562 128.019531 Z M 150.976562 131.089844 "/>
<path style=" stroke:none;fill-rule:nonzero;fill:rgb(80.784314%,81.568627%,85.882353%);fill-opacity:1;" d="M 132.148438 54.171875 C 131.863281 53.980469 131.675781 53.675781 131.636719 53.335938 L 129.496094 28.363281 L 127.8125 39.082031 C 127.773438 39.347656 127.550781 39.4375 127.296875 39.289062 L 123.203125 36.929688 C 122.894531 36.726562 122.699219 36.390625 122.679688 36.023438 C 122.679688 35.691406 122.917969 35.554688 123.207031 35.71875 L 126.855469 37.820312 L 129.097656 23.496094 C 129.136719 23.222656 129.371094 23.140625 129.628906 23.300781 C 129.90625 23.492188 130.089844 23.796875 130.132812 24.132812 L 132.234375 48.738281 L 134.238281 34.003906 C 134.277344 33.730469 134.488281 33.640625 134.742188 33.777344 C 135.023438 33.953125 135.214844 34.246094 135.269531 34.574219 L 137.675781 48.9375 L 140.015625 30.152344 C 140.050781 29.871094 140.273438 29.773438 140.535156 29.921875 C 140.816406 30.101562 141.003906 30.394531 141.054688 30.722656 L 143.835938 55.074219 L 146.148438 43.082031 C 146.195312 42.832031 146.402344 42.753906 146.652344 42.886719 C 146.914062 43.058594 147.097656 43.328125 147.160156 43.636719 L 149.511719 55.707031 L 151.617188 37.539062 C 151.648438 37.261719 151.863281 37.15625 152.125 37.300781 C 152.410156 37.476562 152.605469 37.769531 152.652344 38.101562 L 155.238281 57.285156 L 157.050781 48.894531 C 157.101562 48.652344 157.300781 48.574219 157.535156 48.695312 C 157.800781 48.855469 157.992188 49.117188 158.0625 49.417969 L 159.808594 56.582031 L 163.566406 58.6875 C 163.875 58.886719 164.070312 59.21875 164.09375 59.585938 C 164.09375 59.921875 163.867188 60.0625 163.574219 59.902344 L 159.433594 57.582031 C 159.183594 57.417969 159.003906 57.164062 158.933594 56.875 L 157.660156 51.679688 L 155.683594 60.871094 C 155.632812 61.125 155.414062 61.207031 155.160156 61.042969 C 154.886719 60.859375 154.703125 60.570312 154.65625 60.246094 L 152.210938 42.148438 L 150.207031 59.476562 C 150.175781 59.746094 149.972656 59.847656 149.71875 59.722656 C 149.4375 59.554688 149.238281 59.273438 149.179688 58.953125 L 146.734375 46.304688 L 144.273438 59.058594 C 144.222656 59.316406 143.992188 59.390625 143.742188 59.238281 C 143.46875 59.050781 143.289062 58.761719 143.234375 58.4375 L 140.5625 34.992188 L 138.316406 52.910156 C 138.285156 53.183594 138.074219 53.28125 137.816406 53.144531 C 137.535156 52.964844 137.339844 52.675781 137.28125 52.347656 L 134.878906 37.851562 L 132.671875 53.941406 C 132.628906 54.230469 132.40625 54.320312 132.148438 54.171875 Z M 132.148438 54.171875 "/>
<path style=" stroke:none;fill-rule:nonzero;fill:rgb(16.862745%,16.470588%,18.823529%);fill-opacity:1;" d="M 137.972656 40.609375 C 138.808594 39.269531 145.214844 38.382812 147.320312 43.808594 C 148.125 45.859375 148 51.101562 148.667969 54.402344 C 149.339844 57.699219 150.910156 59.5625 151.476562 62.234375 C 152.039062 64.910156 151.117188 69.386719 144.660156 70.175781 C 138.199219 70.96875 133.230469 68.710938 131.707031 66.65625 C 130.183594 64.601562 130.144531 60.238281 131.734375 57.894531 C 133.320312 55.550781 134.519531 53.640625 134.484375 50.59375 Z M 137.972656 40.609375 "/>
<path style=" stroke:none;fill-rule:nonzero;fill:rgb(16.862745%,16.470588%,18.823529%);fill-opacity:1;" d="M 142.203125 39.679688 C 142.203125 39.679688 137.390625 38.292969 134.457031 40.878906 C 131.78125 43.253906 132.007812 46.476562 132.394531 48.003906 C 132.785156 49.535156 133.5625 51.601562 134.773438 51.710938 C 135.984375 51.820312 142.203125 39.679688 142.203125 39.679688 Z M 142.203125 39.679688 "/>
<path style=" stroke:none;fill-rule:nonzero;fill:rgb(100%,80.784314%,66.27451%);fill-opacity:1;" d="M 144.046875 52.789062 C 144.046875 52.789062 143.730469 58.148438 143.824219 58.542969 C 143.921875 58.933594 145.9375 59.316406 146.5 59.785156 C 147.0625 60.253906 143.578125 65.6875 141.804688 66.496094 C 140.03125 67.304688 134.539062 65.246094 134.160156 62.5 C 133.8125 59.992188 135.730469 58.046875 136.472656 57.367188 C 136.976562 57.320312 137.484375 57.304688 137.988281 57.328125 L 138.148438 54.730469 C 140.554688 53.984375 144.046875 52.789062 144.046875 52.789062 Z M 144.046875 52.789062 "/>
<path style=" stroke:none;fill-rule:nonzero;fill:rgb(100%,80.784314%,66.27451%);fill-opacity:1;" d="M 131.046875 62.914062 C 131.015625 62.765625 130.246094 63.199219 130.226562 63.210938 C 130.207031 63.222656 129.84375 76.960938 129.164062 78.203125 C 127.449219 81.125 122.886719 86.0625 122.773438 86.617188 C 122.4375 88.285156 123.40625 86.789062 124.972656 86.617188 C 125.855469 86.511719 131.03125 81.285156 132.191406 80.09375 L 132.261719 80.136719 C 132.261719 80.089844 132.261719 80.046875 132.28125 80.003906 L 132.433594 79.847656 C 132.476562 79.476562 132.488281 79.105469 132.472656 78.734375 C 134.625 63.796875 131.976562 62.804688 131.046875 62.914062 Z M 131.046875 62.914062 "/>
<path style=" stroke:none;fill-rule:nonzero;fill:rgb(100%,100%,100%);fill-opacity:1;" d="M 129.875 65.023438 L 129.601562 71.644531 L 129.164062 76.859375 C 129.164062 76.859375 129.25 77.558594 128.476562 78.785156 C 127.707031 80.007812 123.59375 85.085938 123.59375 85.085938 L 125.457031 86.625 L 129.691406 83.15625 L 132.5 64.464844 L 131.023438 62.648438 Z M 129.875 65.023438 "/>
<path style=" stroke:none;fill-rule:nonzero;fill:rgb(95.686275%,95.686275%,95.686275%);fill-opacity:1;" d="M 144.785156 59.066406 C 146.292969 59.296875 148.019531 60.101562 148.253906 60.925781 C 148.53125 61.886719 149.128906 66.421875 147.824219 69.871094 C 146.515625 73.320312 145.632812 75.515625 144.882812 76.996094 C 144.882812 76.996094 138.347656 79.792969 133.082031 76.53125 C 133.082031 76.53125 132.71875 72.839844 132.679688 70.859375 C 127.816406 66.632812 131.972656 61.414062 136.09375 57.367188 C 136.585938 57.316406 137.082031 57.308594 137.574219 57.347656 C 137.574219 57.347656 133.902344 61.679688 136.457031 64.140625 C 141.945312 62.492188 143.03125 60.027344 144.785156 59.066406 Z M 144.785156 59.066406 "/>
<path style=" stroke:none;fill-rule:nonzero;fill:rgb(100%,80.784314%,66.27451%);fill-opacity:1;" d="M 134.003906 46.152344 C 134.546875 42.710938 137.042969 40.109375 140.601562 40.316406 C 143.539062 40.476562 146.046875 42.488281 146.824219 45.316406 C 147.605469 48.144531 146.488281 51.152344 144.046875 52.789062 C 143.921875 53.3125 143.738281 53.816406 143.496094 54.296875 C 142.234375 55.761719 138.882812 56.695312 137.777344 56.695312 C 136.820312 56.695312 135.996094 55.816406 135.101562 54.335938 C 133.234375 51.265625 133.707031 47.855469 134.003906 46.152344 Z M 134.003906 46.152344 "/>
<path style=" stroke:none;fill-rule:nonzero;fill:rgb(16.862745%,16.470588%,18.823529%);fill-opacity:1;" d="M 141.703125 40.378906 C 144.203125 40.867188 146.257812 41.578125 146.9375 44.011719 C 147.402344 45.695312 148.007812 48.910156 147.429688 50.261719 L 147.070312 51.234375 L 144.046875 52.789062 C 144.046875 52.789062 142.636719 51.617188 143.070312 48.179688 C 143.058594 47.714844 142.910156 47.261719 142.648438 46.878906 C 142.464844 46.550781 142.332031 46.203125 142.246094 45.839844 C 141.941406 44.878906 141.167969 44.242188 140.285156 43.726562 C 138.03125 42.464844 134.738281 43.554688 134.273438 44.007812 C 135.777344 40.898438 138.800781 39.8125 141.703125 40.378906 Z M 141.703125 40.378906 "/>
<path style=" stroke:none;fill-rule:nonzero;fill:rgb(100%,80.784314%,66.27451%);fill-opacity:1;" d="M 150.570312 94.875 C 150.167969 99.222656 147.738281 117.707031 147.738281 117.707031 C 148.691406 120.816406 149.195312 124.046875 149.238281 127.300781 C 149.214844 129.988281 148.507812 134.554688 147.710938 138.785156 L 146.3125 148.835938 L 142.972656 146.910156 L 143.105469 139.414062 C 142.929688 136.90625 142.683594 133.199219 142.523438 130.828125 C 142.261719 126.976562 141.570312 120.835938 141.367188 119.324219 C 141.167969 117.816406 140.679688 115.128906 140.441406 112.132812 C 140.207031 109.132812 139.074219 93.925781 139.074219 93.925781 L 138.917969 96.773438 C 138.917969 96.773438 138.769531 101.402344 138.117188 107.101562 C 137.464844 112.800781 137.210938 115.34375 137.210938 115.34375 C 137.210938 115.34375 138.367188 117.464844 138.515625 119.027344 C 138.636719 120.261719 140.050781 130.015625 139.203125 134.980469 L 137.964844 144.019531 L 133.953125 141.726562 L 133.4375 135.269531 C 132.753906 130.433594 131.304688 120.175781 131.082031 118.84375 C 130.792969 117.085938 130.550781 116.222656 130.214844 110.707031 C 129.878906 105.191406 130 93.214844 130.558594 88.867188 C 131.117188 84.523438 132.722656 78.210938 132.722656 78.210938 C 134.242188 78.921875 135.882812 79.332031 137.558594 79.410156 C 140.367188 79.554688 144.875 78.703125 144.875 78.703125 C 145.664062 80.074219 146.523438 81.402344 147.453125 82.679688 C 148.714844 84.410156 151.144531 88.21875 150.570312 94.875 Z M 150.570312 94.875 "/>
<path style=" stroke:none;fill-rule:nonzero;fill:rgb(88.627451%,38.039216%,38.039216%);fill-opacity:1;" d="M 144.882812 76.996094 L 148.636719 84.515625 C 148.636719 84.515625 154.367188 92.875 148.429688 114.363281 L 149.542969 120.988281 C 149.542969 120.988281 138.316406 128.183594 130.792969 120.988281 C 130.792969 120.988281 128.183594 101.132812 129.570312 91.972656 C 130.339844 86.707031 131.507812 81.507812 133.070312 76.417969 C 133.070312 76.417969 134.910156 78.445312 144.382812 77.105469 "/>
<path style=" stroke:none;fill-rule:nonzero;fill:rgb(100%,100%,100%);fill-opacity:1;" d="M 136.109375 57.367188 C 136.109375 57.367188 130.550781 58.269531 129.875 65.023438 L 131.144531 63.757812 C 131.144531 63.757812 134.257812 59.058594 136.109375 57.367188 Z M 136.109375 57.367188 "/>
<path style=" stroke:none;fill-rule:nonzero;fill:rgb(100%,100%,100%);fill-opacity:1;" d="M 137.589844 57.347656 C 136.15625 60.109375 132.378906 64.621094 133.449219 69.507812 C 134.867188 76.015625 132.152344 115.03125 132.152344 115.03125 C 132.152344 115.03125 128.945312 113.007812 128.945312 111.382812 C 128.945312 109.761719 130.144531 67.648438 130.144531 65.652344 C 130.144531 63.660156 133.660156 60.117188 136.042969 57.351562 C 136.675781 57.125 137.34375 57.015625 138.011719 57.027344 C 138.011719 57.175781 138.011719 57.195312 137.992188 57.347656 C 137.871094 57.355469 137.804688 57.347656 137.589844 57.347656 Z M 137.589844 57.347656 "/>
<path style=" stroke:none;fill-rule:nonzero;fill:rgb(95.686275%,95.686275%,95.686275%);fill-opacity:1;" d="M 112.828125 93.09375 L 125.65625 85.660156 L 134.867188 90.960938 L 122.035156 98.398438 Z M 112.828125 93.09375 "/>
<path style=" stroke:none;fill-rule:nonzero;fill:rgb(100%,80.784314%,66.27451%);fill-opacity:1;" d="M 124 86.203125 C 123.199219 86.386719 122.394531 86.445312 121.722656 86.945312 C 121.472656 87.167969 121.207031 87.363281 120.921875 87.535156 C 120.792969 87.605469 120.667969 87.683594 120.519531 87.742188 C 120.324219 87.808594 120.148438 87.925781 120.007812 88.082031 C 119.863281 88.289062 119.78125 88.535156 119.777344 88.789062 C 119.714844 89.09375 119.699219 89.40625 119.734375 89.714844 C 119.847656 90.175781 120.324219 90.140625 120.578125 89.820312 C 120.703125 89.660156 120.777344 89.464844 120.789062 89.261719 C 120.800781 88.867188 121.003906 88.5 121.328125 88.28125 L 124.398438 86.382812 C 124.316406 86.242188 124.15625 86.171875 124 86.203125 Z M 124 86.203125 "/>
<path style=" stroke:none;fill-rule:nonzero;fill:rgb(100%,100%,100%);fill-opacity:1;" d="M 148.929688 69.246094 C 148.929688 69.246094 148.824219 80.722656 149.246094 84.433594 C 149.667969 88.148438 154.980469 99.027344 150.300781 113.789062 C 149.609375 114.589844 148.976562 116.207031 143.082031 116.886719 C 139.566406 116.886719 138.292969 116.351562 138.292969 116.351562 C 138.292969 116.351562 139.652344 91.597656 137.679688 69.863281 C 137.679688 63.867188 142.851562 64.5625 143.808594 57.917969 C 148.375 60.046875 148.378906 60.714844 148.378906 60.714844 Z M 148.929688 69.246094 "/>
<use xlink:href="#surface8" mask="url(#mask1)"/>
<path style=" stroke:none;fill-rule:nonzero;fill:rgb(100%,80.784314%,66.27451%);fill-opacity:1;" d="M 148.417969 63.277344 C 147.992188 61.539062 146.625 62.097656 145.449219 61.082031 C 142.71875 64.929688 144.53125 75.34375 144.898438 76.453125 L 134.429688 83.109375 C 134.257812 83.21875 133.898438 83.441406 133.726562 83.546875 C 132.777344 84.121094 130.949219 85.109375 129.832031 85.238281 C 128.78125 85.359375 128.230469 86.835938 127.117188 86.960938 C 126.941406 86.96875 126.789062 87.078125 126.726562 87.238281 C 126.664062 87.402344 126.703125 87.585938 126.832031 87.703125 C 127.28125 88.136719 128.476562 87.78125 129.296875 86.824219 C 129.292969 86.847656 129.292969 86.875 129.296875 86.898438 C 129.289062 87.289062 129.566406 87.625 129.953125 87.695312 C 129.953125 87.765625 129.972656 87.832031 130.011719 87.894531 C 130.128906 88.140625 130.363281 88.308594 130.636719 88.34375 C 130.75 88.710938 131.113281 88.945312 131.496094 88.898438 C 131.734375 88.886719 131.960938 88.785156 132.125 88.613281 C 133.019531 88.269531 133.808594 87.703125 134.414062 86.964844 C 134.957031 86.414062 135.523438 85.886719 136.117188 85.390625 C 138.957031 84.171875 147.480469 80.542969 147.863281 80.027344 C 148.417969 79.261719 149.019531 65.761719 148.417969 63.277344 Z M 148.417969 63.277344 "/>
<path style=" stroke:none;fill-rule:nonzero;fill:rgb(100%,100%,100%);fill-opacity:1;" d="M 146.191406 59.75 C 143.675781 60.027344 143.347656 63.207031 143.347656 63.207031 L 143.230469 68.066406 C 143.230469 68.066406 143.503906 74.273438 144.222656 76.164062 L 133.320312 83.636719 L 135.699219 86.398438 C 135.699219 86.398438 147.222656 81.09375 148.105469 80.253906 C 148.992188 79.414062 149.21875 70.765625 149.371094 67.96875 C 149.996094 62.683594 148.707031 59.46875 146.191406 59.75 Z M 146.191406 59.75 "/>
<use xlink:href="#surface11" mask="url(#mask2)"/>
<path style=" stroke:none;fill-rule:nonzero;fill:rgb(100%,80.784314%,66.27451%);fill-opacity:1;" d="M 53.949219 95.644531 C 53.726562 97.566406 51.425781 105.859375 51.917969 108.703125 C 52.410156 111.542969 60.273438 116.296875 60.273438 116.296875 L 61.363281 111.433594 L 57.011719 107.195312 L 58.183594 99.140625 Z M 53.949219 95.644531 "/>
<path style=" stroke:none;fill-rule:nonzero;fill:rgb(92.941176%,92.941176%,92.941176%);fill-opacity:1;" d="M 60.03125 87.46875 C 58.90625 86.984375 56.820312 86.878906 55.652344 88.789062 C 54.480469 90.699219 53.292969 97.246094 53.1875 98.382812 C 53.1875 98.382812 54.808594 100.617188 57.242188 100.242188 Z M 60.03125 87.46875 "/>
<path style=" stroke:none;fill-rule:nonzero;fill:rgb(21.960784%,13.333333%,42.745098%);fill-opacity:1;" d="M 69.007812 179.941406 C 70.71875 180.410156 72.546875 180.191406 74.09375 179.328125 C 75.316406 179.363281 81.96875 176.527344 82.875 178.90625 C 83.675781 180.996094 80.785156 182.929688 79.246094 183.304688 C 75.886719 184.101562 73.398438 185.785156 72.050781 186.070312 C 71.046875 186.28125 69.742188 186.421875 68.941406 185.632812 C 67.984375 184.691406 68.0625 181.191406 69.007812 179.941406 Z M 69.007812 179.941406 "/>
<path style=" stroke:none;fill-rule:nonzero;fill:rgb(61.176471%,45.098039%,100%);fill-opacity:1;" d="M 72.050781 185.492188 C 73.398438 185.214844 75.886719 183.542969 79.246094 182.730469 C 80.535156 182.421875 82.757812 181.011719 82.980469 179.335938 C 83.277344 181.257812 80.679688 182.964844 79.246094 183.308594 C 75.886719 184.105469 73.398438 185.789062 72.050781 186.074219 C 71.046875 186.285156 69.742188 186.425781 68.941406 185.636719 C 68.734375 185.410156 68.585938 185.136719 68.5 184.839844 C 69.671875 185.804688 71.046875 185.707031 72.050781 185.492188 Z M 72.050781 185.492188 "/>
<path style=" stroke:none;fill-rule:nonzero;fill:rgb(21.960784%,13.333333%,42.745098%);fill-opacity:1;" d="M 58.21875 175.117188 C 59.929688 175.589844 61.757812 175.371094 63.304688 174.507812 C 64.53125 174.542969 71.179688 171.707031 72.085938 174.105469 C 72.886719 176.195312 69.996094 178.128906 68.457031 178.503906 C 65.097656 179.300781 62.613281 180.984375 61.265625 181.269531 C 60.257812 181.480469 58.957031 181.621094 58.15625 180.828125 C 57.195312 179.863281 57.277344 176.363281 58.21875 175.117188 Z M 58.21875 175.117188 "/>
<path style=" stroke:none;fill-rule:nonzero;fill:rgb(61.176471%,45.098039%,100%);fill-opacity:1;" d="M 61.265625 180.664062 C 62.613281 180.382812 65.097656 178.714844 68.457031 177.902344 C 69.746094 177.589844 71.96875 176.179688 72.195312 174.507812 C 72.492188 176.429688 69.890625 178.136719 68.457031 178.480469 C 65.097656 179.277344 62.613281 180.960938 61.265625 181.246094 C 60.257812 181.457031 58.957031 181.597656 58.15625 180.804688 C 57.949219 180.578125 57.796875 180.304688 57.714844 180.007812 C 58.882812 180.972656 60.257812 180.878906 61.265625 180.664062 Z M 61.265625 180.664062 "/>
<path style=" stroke:none;fill-rule:nonzero;fill:rgb(54.901961%,31.372549%,100%);fill-opacity:1;" d="M 58.085938 157.101562 C 58.371094 154.640625 58.886719 152.207031 59.621094 149.839844 C 59.621094 149.839844 59.164062 143.570312 58.933594 137.628906 C 58.675781 130.886719 56.328125 124.949219 58.175781 119.570312 L 79.050781 124.199219 C 79.050781 124.199219 77.785156 151.082031 77.503906 154.335938 C 77.355469 156.867188 77.042969 159.390625 76.574219 161.882812 C 75.621094 167.101562 74.074219 179.519531 74.074219 179.519531 C 71.863281 180.796875 68.96875 180.089844 68.96875 180.089844 C 68.96875 180.089844 69.128906 164.390625 69.269531 160.628906 C 69.441406 156.035156 69.582031 156.386719 69.582031 156.386719 L 68.894531 144.953125 L 68.445312 139.257812 C 68.445312 139.257812 67.867188 143.4375 67.492188 147.164062 C 67.160156 150.417969 66.375 153.359375 65.484375 159.414062 C 64.722656 164.664062 63.480469 175.21875 63.480469 175.21875 C 61.277344 176.496094 58.269531 175.4375 58.269531 175.4375 C 58.269531 175.4375 57.488281 161.660156 58.085938 157.101562 Z M 58.085938 157.101562 "/>
<path style=" stroke:none;fill-rule:nonzero;fill:rgb(100%,80.784314%,66.27451%);fill-opacity:1;" d="M 61.132812 87.582031 C 62.734375 87.660156 63.90625 88.070312 64.105469 87.582031 C 64.277344 86.761719 64.398438 85.933594 64.46875 85.101562 C 64.285156 84.644531 64.125 84.152344 64.125 84.152344 C 62.121094 82.925781 61.5 80.773438 61.234375 78.273438 C 60.792969 73.992188 63.109375 70.242188 67.402344 69.792969 C 71.441406 69.394531 74.410156 72.191406 75.199219 76.089844 C 75.628906 78.003906 76.480469 81.628906 75.328125 84.78125 C 74.6875 86.546875 73.859375 87.945312 73.03125 88.214844 C 72.234375 88.195312 71.4375 88.125 70.644531 88.007812 C 70.644531 88.007812 70.433594 89.207031 70.285156 89.960938 C 70.136719 90.710938 70.195312 91.125 71.71875 92.066406 C 73.242188 93.003906 69.414062 94.921875 66.910156 94.734375 C 64.402344 94.546875 61.597656 93.042969 60.824219 91.425781 C 59.96875 89.648438 60.042969 87.527344 61.132812 87.582031 Z M 61.132812 87.582031 "/>
<path style=" stroke:none;fill-rule:nonzero;fill:rgb(95.686275%,95.686275%,95.686275%);fill-opacity:1;" d="M 63.433594 87.816406 C 62.992188 88.910156 64.109375 90.25 67.097656 91.1875 C 70.085938 92.121094 70.347656 90.917969 70.347656 90.917969 C 70.347656 90.917969 74.726562 92.917969 76.152344 93.894531 C 77.941406 95.148438 78.738281 98.761719 78.980469 104.859375 C 79.257812 111.917969 79.28125 122.390625 79.050781 124.199219 C 79.050781 124.199219 75.703125 127.523438 71.433594 127.171875 C 67.160156 126.820312 59.9375 123.042969 58.203125 120.121094 C 58.25 113.933594 58.976562 112.925781 57.96875 109.359375 C 55.667969 101.199219 54.457031 97.859375 55.5625 92.433594 C 56.484375 87.960938 57.777344 87.40625 59.546875 87.449219 C 60.847656 87.503906 62.144531 87.625 63.433594 87.816406 Z M 63.433594 87.816406 "/>
<path style=" stroke:none;fill-rule:nonzero;fill:rgb(100%,80.784314%,66.27451%);fill-opacity:1;" d="M 85.714844 110.695312 C 82.199219 111.578125 81.375 109.371094 80.90625 107.539062 C 79.785156 103.105469 79.183594 99.105469 78.351562 96.589844 C 77.371094 93.625 76.347656 93.148438 74.894531 92.574219 C 73.195312 91.894531 71.738281 93.324219 72.300781 97.097656 C 72.972656 101.566406 73.847656 104.691406 75.507812 109.988281 C 75.945312 111.367188 76.925781 113.820312 78.394531 115.003906 C 80.207031 116.46875 82.941406 116.402344 87.074219 115.378906 C 88.839844 114.941406 90.773438 113.890625 94.109375 112.339844 C 95 111.9375 95.710938 111.648438 97.414062 110.847656 C 99.117188 110.046875 100.921875 108.71875 101.824219 107.417969 C 102.726562 106.121094 102.84375 105.507812 102.660156 105.210938 C 102.429688 104.839844 102.023438 104.921875 101.539062 105.46875 C 100.847656 106.394531 99.988281 107.183594 99.011719 107.800781 C 99.011719 107.800781 100.121094 106.660156 100.722656 105.914062 C 101.261719 105.257812 101.710938 104.527344 102.054688 103.75 C 102.371094 102.988281 101.71875 101.960938 101.21875 102.503906 C 100.722656 103.042969 100.484375 103.59375 99.578125 104.679688 C 99.09375 105.257812 98.546875 105.777344 97.945312 106.226562 C 98.507812 105.46875 99.011719 104.667969 99.449219 103.828125 C 100.023438 102.652344 100.015625 102.050781 99.992188 101.65625 C 99.96875 101.257812 99.40625 100.789062 98.882812 101.535156 C 98.40625 102.210938 98.082031 103.265625 96.996094 104.414062 C 96.191406 105.246094 95.507812 105.722656 95.488281 105.492188 C 95.464844 105.261719 95.972656 104.804688 96.261719 103.835938 C 96.550781 102.871094 96.261719 101.839844 95.722656 101.734375 C 95.1875 101.628906 95.289062 101.65625 94.855469 102.558594 C 94.425781 103.460938 93.765625 104.132812 93.253906 105.457031 C 92.808594 106.621094 92.609375 107.089844 91.804688 107.9375 C 90.96875 108.839844 89.058594 109.855469 85.714844 110.695312 Z M 85.714844 110.695312 "/>
<path style=" stroke:none;fill-rule:nonzero;fill:rgb(92.941176%,92.941176%,92.941176%);fill-opacity:1;" d="M 73.597656 91.964844 C 75.945312 91.621094 77.605469 92.675781 78.640625 96.222656 C 79.675781 99.769531 80.402344 102.683594 80.402344 102.683594 C 79.472656 104.019531 78.066406 104.949219 76.472656 105.285156 C 73.664062 105.964844 72.652344 104.625 72.652344 104.625 C 72.652344 104.625 71.847656 100.90625 71.382812 98.378906 C 70.917969 95.847656 70.691406 92.40625 73.597656 91.964844 Z M 73.597656 91.964844 "/>
<path style=" stroke:none;fill-rule:nonzero;fill:rgb(22.745098%,17.254902%,42.745098%);fill-opacity:1;" d="M 75.0625 75.542969 C 75.0625 75.542969 78.777344 69.917969 70.738281 68.769531 C 64.941406 67.945312 61.210938 71.660156 60.785156 75.691406 C 60.382812 79.539062 62.75 83.535156 64.46875 85.121094 C 65.304688 85.421875 67.109375 85.59375 69.480469 84.519531 C 69.574219 83.472656 69.609375 82.417969 69.585938 81.367188 C 69.585938 81.367188 66.761719 75.4375 75.0625 75.542969 Z M 75.0625 75.542969 "/>
<use xlink:href="#surface14" mask="url(#mask3)"/>
<path style=" stroke:none;fill-rule:nonzero;fill:rgb(83.921569%,84.705882%,89.803922%);fill-opacity:1;" d="M 32.867188 138.292969 C 32.867188 135.234375 28.5625 132.757812 23.253906 132.757812 C 17.945312 132.757812 13.640625 135.234375 13.640625 138.292969 C 13.640625 141.351562 17.945312 143.828125 23.253906 143.828125 C 28.5625 143.828125 32.867188 141.351562 32.867188 138.292969 Z M 32.867188 138.292969 "/>
<path style=" stroke:none;fill-rule:nonzero;fill:rgb(83.921569%,84.705882%,89.803922%);fill-opacity:1;" d="M 10.382812 119.371094 L 13.746094 138.675781 L 32.84375 138.675781 L 36.125 119.511719 Z M 10.382812 119.371094 "/>
<path style=" stroke:none;fill-rule:nonzero;fill:rgb(89.411765%,90.196078%,93.72549%);fill-opacity:1;" d="M 36.136719 119.128906 C 36.136719 115.035156 30.367188 111.714844 23.253906 111.714844 C 16.140625 111.714844 10.371094 115.035156 10.371094 119.128906 C 10.371094 123.226562 16.140625 126.542969 23.253906 126.542969 C 30.367188 126.542969 36.136719 123.226562 36.136719 119.128906 Z M 36.136719 119.128906 "/>
<path style=" stroke:none;fill-rule:nonzero;fill:rgb(15.686275%,13.333333%,10.980392%);fill-opacity:1;" d="M 23.253906 124.910156 C 20.097656 124.910156 17.15625 124.21875 14.964844 122.960938 C 13.089844 121.875 12.011719 120.480469 12.011719 119.128906 C 12.011719 117.777344 13.089844 116.382812 14.964844 115.304688 C 17.152344 114.046875 20.097656 113.351562 23.253906 113.351562 C 26.410156 113.351562 29.355469 114.046875 31.542969 115.304688 C 33.421875 116.382812 34.496094 117.777344 34.496094 119.128906 C 34.496094 120.480469 33.421875 121.875 31.542969 122.960938 C 29.355469 124.21875 26.414062 124.910156 23.253906 124.910156 Z M 23.253906 124.910156 "/>
<path style=" stroke:none;fill-rule:nonzero;fill:rgb(60%,70.980392%,14.117647%);fill-opacity:1;" d="M 28.796875 113.289062 C 28.796875 113.289062 28.546875 97.636719 23.253906 92.105469 C 16.792969 97.773438 17.816406 113.3125 17.816406 113.3125 L 23.332031 123.308594 C 24.054688 123.332031 28.796875 113.289062 28.796875 113.289062 Z M 28.796875 113.289062 "/>
<path style=" stroke:none;fill-rule:nonzero;fill:rgb(65.098039%,80.784314%,15.686275%);fill-opacity:1;" d="M 23.332031 123.296875 C 23.332031 123.296875 20.394531 104.539062 9.472656 97.492188 C 9.472656 97.492188 7.523438 123.183594 23.332031 123.296875 Z M 23.332031 123.296875 "/>
<path style=" stroke:none;fill-rule:nonzero;fill:rgb(65.098039%,80.784314%,15.686275%);fill-opacity:1;" d="M 23.253906 123.296875 C 23.253906 123.296875 25.902344 104.910156 36.546875 98.273438 C 36.546875 98.273438 39.0625 123.183594 23.253906 123.296875 Z M 23.253906 123.296875 "/>
<use xlink:href="#surface17" mask="url(#mask4)"/>
<path style=" stroke:none;fill-rule:nonzero;fill:rgb(85.098039%,86.27451%,90.980392%);fill-opacity:1;" d="M 148.324219 194.042969 C 148.324219 190.992188 144.023438 188.515625 138.722656 188.515625 C 133.417969 188.515625 129.121094 190.992188 129.121094 194.042969 C 129.121094 197.097656 133.417969 199.570312 138.722656 199.570312 C 144.023438 199.570312 148.324219 197.097656 148.324219 194.042969 Z M 148.324219 194.042969 "/>
<path style=" stroke:none;fill-rule:nonzero;fill:rgb(85.098039%,86.27451%,90.980392%);fill-opacity:1;" d="M 129.121094 193.957031 L 129.121094 191.183594 L 132.171875 192.199219 Z M 129.121094 193.957031 "/>
<path style=" stroke:none;fill-rule:nonzero;fill:rgb(85.098039%,86.27451%,90.980392%);fill-opacity:1;" d="M 148.316406 191.378906 L 148.316406 193.867188 L 144.800781 193.179688 Z M 148.316406 191.378906 "/>
<path style=" stroke:none;fill-rule:nonzero;fill:rgb(93.72549%,94.509804%,97.647059%);fill-opacity:1;" d="M 148.324219 191.203125 C 148.324219 188.148438 144.023438 185.671875 138.722656 185.671875 C 133.417969 185.671875 129.121094 188.148438 129.121094 191.203125 C 129.121094 194.253906 133.417969 196.730469 138.722656 196.730469 C 144.023438 196.730469 148.324219 194.253906 148.324219 191.203125 Z M 148.324219 191.203125 "/>
<path style=" stroke:none;fill-rule:nonzero;fill:rgb(82.745098%,83.921569%,88.627451%);fill-opacity:1;" d="M 132.425781 195.375 L 131.386719 194.773438 L 144.925781 186.984375 L 145.960938 187.585938 Z M 132.425781 195.375 "/>
<path style=" stroke:none;fill-rule:nonzero;fill:rgb(77.254902%,78.431373%,82.745098%);fill-opacity:1;" d="M 131.386719 194.773438 L 131.386719 197.613281 L 132.332031 198.171875 L 132.464844 198.238281 L 132.464844 195.375 Z M 131.386719 194.773438 "/>
<use xlink:href="#surface20" mask="url(#mask5)"/>
<path style=" stroke:none;fill-rule:nonzero;fill:rgb(85.098039%,86.27451%,90.980392%);fill-opacity:1;" d="M 20.632812 184.03125 C 20.632812 180.976562 16.332031 178.503906 11.027344 178.503906 C 5.726562 178.503906 1.425781 180.976562 1.425781 184.03125 C 1.425781 187.085938 5.726562 189.558594 11.027344 189.558594 C 16.332031 189.558594 20.632812 187.085938 20.632812 184.03125 Z M 20.632812 184.03125 "/>
<path style=" stroke:none;fill-rule:nonzero;fill:rgb(85.098039%,86.27451%,90.980392%);fill-opacity:1;" d="M 1.425781 183.9375 L 1.425781 181.160156 L 4.476562 182.183594 Z M 1.425781 183.9375 "/>
<path style=" stroke:none;fill-rule:nonzero;fill:rgb(85.098039%,86.27451%,90.980392%);fill-opacity:1;" d="M 20.625 181.363281 L 20.625 183.855469 L 17.105469 183.164062 Z M 20.625 181.363281 "/>
<path style=" stroke:none;fill-rule:nonzero;fill:rgb(93.72549%,94.509804%,97.647059%);fill-opacity:1;" d="M 20.632812 181.1875 C 20.632812 178.136719 16.332031 175.660156 11.027344 175.660156 C 5.726562 175.660156 1.425781 178.136719 1.425781 181.1875 C 1.425781 184.242188 5.726562 186.71875 11.027344 186.71875 C 16.332031 186.71875 20.632812 184.242188 20.632812 181.1875 Z M 20.632812 181.1875 "/>
<path style=" stroke:none;fill-rule:nonzero;fill:rgb(82.745098%,83.921569%,88.627451%);fill-opacity:1;" d="M 4.734375 185.363281 L 3.695312 184.761719 L 17.230469 176.972656 L 18.273438 177.570312 Z M 4.734375 185.363281 "/>
<path style=" stroke:none;fill-rule:nonzero;fill:rgb(77.254902%,78.431373%,82.745098%);fill-opacity:1;" d="M 3.695312 184.761719 L 3.695312 187.601562 L 4.636719 188.15625 L 4.769531 188.222656 L 4.769531 185.363281 Z M 3.695312 184.761719 "/>
<use xlink:href="#surface23" mask="url(#mask6)"/>
<path style=" stroke:none;fill-rule:nonzero;fill:rgb(85.098039%,86.27451%,90.980392%);fill-opacity:1;" d="M 199 178.515625 C 199 175.460938 194.699219 172.988281 189.398438 172.988281 C 184.09375 172.988281 179.796875 175.460938 179.796875 178.515625 C 179.796875 181.566406 184.09375 184.042969 189.398438 184.042969 C 194.699219 184.042969 199 181.566406 199 178.515625 Z M 199 178.515625 "/>
<path style=" stroke:none;fill-rule:nonzero;fill:rgb(85.098039%,86.27451%,90.980392%);fill-opacity:1;" d="M 179.800781 178.425781 C 179.800781 178.402344 179.800781 175.648438 179.800781 175.648438 L 182.855469 176.671875 Z M 179.800781 178.425781 "/>
<path style=" stroke:none;fill-rule:nonzero;fill:rgb(85.098039%,86.27451%,90.980392%);fill-opacity:1;" d="M 198.996094 175.847656 L 198.996094 178.339844 L 195.480469 177.648438 Z M 198.996094 175.847656 "/>
<path style=" stroke:none;fill-rule:nonzero;fill:rgb(93.72549%,94.509804%,97.647059%);fill-opacity:1;" d="M 199 175.671875 C 199 172.621094 194.699219 170.144531 189.398438 170.144531 C 184.09375 170.144531 179.796875 172.621094 179.796875 175.671875 C 179.796875 178.726562 184.09375 181.199219 189.398438 181.199219 C 194.699219 181.199219 199 178.726562 199 175.671875 Z M 199 175.671875 "/>
<path style=" stroke:none;fill-rule:nonzero;fill:rgb(82.745098%,83.921569%,88.627451%);fill-opacity:1;" d="M 183.109375 179.847656 L 182.066406 179.246094 L 195.601562 171.457031 L 196.644531 172.054688 Z M 183.109375 179.847656 "/>
<path style=" stroke:none;fill-rule:nonzero;fill:rgb(77.254902%,78.431373%,82.745098%);fill-opacity:1;" d="M 182.066406 179.246094 L 182.066406 182.085938 L 183.011719 182.640625 L 183.144531 182.707031 L 183.144531 179.847656 Z M 182.066406 179.246094 "/>
</g>
</svg>
