<svg xmlns="http://www.w3.org/2000/svg" xmlns:xlink="http://www.w3.org/1999/xlink" width="2552" height="1080" viewBox="0 0 2552 1080">
  <defs>
    <linearGradient id="linear-gradient" x1="1" y1="0.017" x2="0.02" y2="1" gradientUnits="objectBoundingBox">
      <stop offset="0" stop-color="#f55"/>
      <stop offset="1" stop-color="#fa5"/>
    </linearGradient>
  </defs>
  <g id="Rectangle_1573" data-name="Rectangle 1573" stroke="#707070" stroke-width="1" fill="url(#linear-gradient)">
    <rect width="2552" height="1080" stroke="none"/>
    <rect x="0.5" y="0.5" width="2551" height="1079" fill="none"/>
  </g>
  <g id="Group_3618" data-name="Group 3618" transform="translate(655 132.371)" opacity="0.5">
    <path id="Path_8318" data-name="Path 8318" d="M269.307,212.823a7.936,7.936,0,0,0-7.945,7.909l-1.952,848.181a7.936,7.936,0,0,0,7.909,7.945l683.3,1.573a7.937,7.937,0,0,0,7.945-7.909l1.951-848.181a7.936,7.936,0,0,0-7.909-7.945Z" transform="translate(-204.549 -133.106)" fill="#e6e6e6"/>
    <path id="Path_8319" data-name="Path 8319" d="M284.491,228.124a7.936,7.936,0,0,0-7.945,7.909l-1.835,797.448a7.936,7.936,0,0,0,7.909,7.945l632.568,1.456a7.936,7.936,0,0,0,7.945-7.909l1.835-797.449a7.936,7.936,0,0,0-7.909-7.945Z" transform="translate(-194.426 -122.982)" fill="#fff"/>
    <path id="Path_8320" data-name="Path 8320" d="M801.034,446.416l-466.1-1.073a11.89,11.89,0,1,1,.055-23.781l466.1,1.073a11.891,11.891,0,0,1-.055,23.781Z" transform="translate(-162.429 5.011)" fill="#e6e6e6"/>
    <path id="Path_8321" data-name="Path 8321" d="M739.689,312.943l-309.227-.712c-4.357-.01-7.876-5.342-7.861-11.909s3.559-11.882,7.916-11.872l309.227.712c4.357.01,7.876,5.342,7.861,11.909S744.046,312.953,739.689,312.943Z" transform="translate(-96.57 -83.066)" fill="#e6e6e6"/>
    <path id="Path_8322" data-name="Path 8322" d="M739.594,353.969l-309.227-.712c-4.357-.01-7.876-5.342-7.861-11.909s3.559-11.882,7.916-11.872l309.227.712c4.357.01,7.876,5.342,7.861,11.908S743.951,353.979,739.594,353.969Z" transform="translate(-96.633 -55.92)" fill="#e6e6e6"/>
    <path id="Path_8323" data-name="Path 8323" d="M800.928,492.688l-466.1-1.073a11.89,11.89,0,0,1,.055-23.781l466.1,1.073a11.89,11.89,0,1,1-.055,23.781Z" transform="translate(-162.499 35.628)" fill="#e6e6e6"/>
    <path id="Path_8324" data-name="Path 8324" d="M800.821,538.961l-466.1-1.073a11.89,11.89,0,1,1,.055-23.781l466.1,1.073a11.89,11.89,0,1,1-.055,23.781Z" transform="translate(-162.57 66.246)" fill="#e6e6e6"/>
    <path id="Path_8325" data-name="Path 8325" d="M800.715,585.235l-466.1-1.073a11.89,11.89,0,1,1,.055-23.781l466.1,1.073a11.89,11.89,0,1,1-.055,23.781Z" transform="translate(-162.64 96.864)" fill="#e6e6e6"/>
    <path id="Path_8326" data-name="Path 8326" d="M800.608,631.509l-466.1-1.073a11.89,11.89,0,0,1,.055-23.781l466.1,1.073a11.89,11.89,0,0,1-.055,23.781Z" transform="translate(-162.711 127.481)" fill="#e6e6e6"/>
    <path id="Path_8327" data-name="Path 8327" d="M800.5,677.782,334.4,676.71a11.89,11.89,0,1,1,.055-23.781L800.557,654a11.89,11.89,0,1,1-.055,23.781Z" transform="translate(-162.781 158.099)" fill="#e6e6e6"/>
    <circle id="Ellipse_402" data-name="Ellipse 402" cx="62.623" cy="62.623" r="62.623" transform="translate(161.07 189.278)" fill="#3f3d56"/>
    <path id="Path_8328" data-name="Path 8328" d="M418.807,436.077" transform="translate(-99.081 14.615)" fill="#e6e6e6"/>
    <path id="Path_8329" data-name="Path 8329" d="M643.822,398.461l0-148.165a83.826,83.826,0,1,0-167.612-3.686H494.66a65.461,65.461,0,0,1,65.316-62.925c.319,0,.642,0,.961.007a65.5,65.5,0,0,1,64.445,66.471V398.539c0,.378,0,.755,0,1.1a43.909,43.909,0,0,1-43.847,43.327l-.54,0a43.931,43.931,0,0,1-43.322-44.494l.1-147.168a22.091,22.091,0,1,1,44.182-.145l0,112.384a9.22,9.22,0,1,0,18.441,0l0-112.53a40.53,40.53,0,1,0-81.06.14l-.1,147.2A62.37,62.37,0,0,0,580.771,461.4c.258,0,.51,0,.767,0a62.386,62.386,0,0,0,62.285-61.578C643.825,399.347,643.825,398.865,643.822,398.461Z" transform="translate(-61.1 -164.997)" fill="#6c63ff"/>
    <rect id="Rectangle_1619" data-name="Rectangle 1619" width="925.727" height="3.323" transform="translate(0 943.903)" fill="#3f3d56"/>
    <path id="Path_8330" data-name="Path 8330" d="M800.122,340.031h129v-64.15a65.806,65.806,0,0,0-18.893-46.321,63.579,63.579,0,0,0-45.61-19.191c-35.252,0-63.572,28.023-64.474,63.8-.01.588-.02,1.146-.02,1.714Z" transform="translate(153.224 -134.73)" fill="#2f2e41"/>
    <path id="Path_8331" data-name="Path 8331" d="M791.177,519.279h0A19.283,19.283,0,0,0,812.6,497.031l-4.9-29.952H783.525L775.131,494.5a19.284,19.284,0,0,0,16.046,24.779Z" transform="translate(136.129 35.128)" fill="#ffb9b9"/>
    <path id="Path_8332" data-name="Path 8332" d="M1078.316,916.631l-28.707,3.525L901.544,609.926l-83.6,310.231-30.217-9.065,28.2-497.579,132.956-7.051C999.328,466.182,1038.949,723.44,1078.316,916.631Z" transform="translate(145.022 -4.981)" fill="#2f2e41"/>
    <path id="Path_8333" data-name="Path 8333" d="M824.436,752.851h-60.23A10.8,10.8,0,0,1,753.414,742.5h0a10.8,10.8,0,0,1,5.631-9.938l34.642-18.84,21.344-5.692c9.4,10.767,18.383,10.824,27.036,2.134l2.838,18.919a20.7,20.7,0,0,1-20.468,23.769Z" transform="translate(122.313 194.557)" fill="#2f2e41"/>
    <path id="Path_8334" data-name="Path 8334" d="M980.22,752.851H919.99A10.8,10.8,0,0,1,909.2,742.5h0a10.8,10.8,0,0,1,5.632-9.938l34.642-18.84,21.344-5.692c9.4,10.767,18.383,10.824,27.036,2.134l2.838,18.919a20.7,20.7,0,0,1-20.468,23.769Z" transform="translate(225.39 194.557)" fill="#2f2e41"/>
    <path id="Path_8335" data-name="Path 8335" d="M775,579.213l37.268-2.015L835.43,308.264,817.9,310.895a29.673,29.673,0,0,0-25.115,26.3Z" transform="translate(136.599 -69.956)" fill="#6c63ff"/>
    <circle id="Ellipse_403" data-name="Ellipse 403" cx="49.355" cy="49.355" r="49.355" transform="translate(958.935 91.251)" fill="#ffb9b9"/>
    <path id="Path_8336" data-name="Path 8336" d="M909.06,324.85c-37.347,109.043-70.186,116.658-100.724,72.522,2.689-32.891,13.607-59.538,33.239-79.572,11.4-7.815,4.67-22.663-4.029-38.275l47.34-16.116C886.234,283.3,894.946,303.838,909.06,324.85Z" transform="translate(158.659 -99.635)" fill="#ffb9b9"/>
    <path id="Path_8337" data-name="Path 8337" d="M944.338,488.8c-54.076,37.333-102.718,44.234-134.971,9.065-11.278-46.69-13.606-95.638-8.132-144.012A51.675,51.675,0,0,1,824.42,316.4l23.726-15.45,11.583,36.764,44.822-48.851,33.864,4.087a25,25,0,0,1,21.853,27.55Z" transform="translate(152.086 -82.79)" fill="#6c63ff"/>
    <path id="Path_8338" data-name="Path 8338" d="M913.525,237.643l-12.258,39L795.284,274.76a65.515,65.515,0,0,1,118.24-37.117Z" transform="translate(150.023 -134.325)" fill="#2f2e41"/>
    <path id="Path_8339" data-name="Path 8339" d="M879.993,473.268a1.8,1.8,0,0,0-1.805,1.8l-.443,192.7a1.8,1.8,0,0,0,1.8,1.8l155.243.357a1.8,1.8,0,0,0,1.805-1.8l.443-192.7a1.8,1.8,0,0,0-1.8-1.805Z" transform="translate(204.585 39.223)" fill="#e6e6e6"/>
    <path id="Path_8340" data-name="Path 8340" d="M883.443,476.744a1.8,1.8,0,0,0-1.8,1.8l-.417,181.177a1.8,1.8,0,0,0,1.8,1.8l143.717.331a1.8,1.8,0,0,0,1.805-1.8l.417-181.177a1.8,1.8,0,0,0-1.8-1.805Z" transform="translate(206.885 41.523)" fill="#fff"/>
    <path id="Path_8341" data-name="Path 8341" d="M1000.8,526.34,894.9,526.1a2.7,2.7,0,1,1,.012-5.4l105.9.244a2.7,2.7,0,0,1-.012,5.4Z" transform="translate(214.155 70.602)" fill="#e6e6e6"/>
    <path id="Path_8342" data-name="Path 8342" d="M986.862,496.015l-70.255-.162c-.99,0-1.789-1.214-1.786-2.706s.809-2.7,1.8-2.7l70.255.162c.99,0,1.789,1.214,1.786,2.706S987.853,496.016,986.862,496.015Z" transform="translate(229.117 50.592)" fill="#e6e6e6"/>
    <path id="Path_8343" data-name="Path 8343" d="M986.841,505.336l-70.255-.162c-.99,0-1.789-1.214-1.786-2.706s.809-2.7,1.8-2.7l70.255.162c.99,0,1.789,1.214,1.786,2.706S987.83,505.337,986.841,505.336Z" transform="translate(229.104 56.759)" fill="#e6e6e6"/>
    <path id="Path_8344" data-name="Path 8344" d="M1000.776,536.852l-105.9-.244a2.7,2.7,0,1,1,.013-5.4l105.9.244a2.7,2.7,0,0,1-.013,5.4Z" transform="translate(214.139 77.559)" fill="#e6e6e6"/>
    <path id="Path_8345" data-name="Path 8345" d="M1000.752,547.365l-105.9-.244a2.7,2.7,0,1,1,.012-5.4l105.9.244a2.7,2.7,0,0,1-.013,5.4Z" transform="translate(214.123 84.515)" fill="#e6e6e6"/>
    <path id="Path_8346" data-name="Path 8346" d="M1000.728,557.878l-105.9-.244a2.7,2.7,0,1,1,.013-5.4l105.9.244a2.7,2.7,0,0,1-.013,5.4Z" transform="translate(214.107 91.471)" fill="#e6e6e6"/>
    <path id="Path_8347" data-name="Path 8347" d="M1000.7,568.391l-105.9-.244a2.7,2.7,0,1,1,.012-5.4l105.9.244a2.7,2.7,0,0,1-.012,5.4Z" transform="translate(214.09 98.427)" fill="#e6e6e6"/>
    <path id="Path_8348" data-name="Path 8348" d="M1000.679,578.9l-105.9-.244a2.7,2.7,0,0,1,.012-5.4l105.9.244a2.7,2.7,0,0,1-.012,5.4Z" transform="translate(214.075 105.383)" fill="#e6e6e6"/>
    <circle id="Ellipse_404" data-name="Ellipse 404" cx="14.228" cy="14.228" r="14.228" transform="translate(1106.459 537.382)" fill="#3f3d56"/>
    <path id="Path_8349" data-name="Path 8349" d="M913.959,523.99" transform="translate(228.547 72.784)" fill="#e6e6e6"/>
    <path id="Path_8350" data-name="Path 8350" d="M919.046,502.307h0a19.283,19.283,0,0,1-21.422-22.249l4.9-29.952H926.7l8.394,27.421a19.284,19.284,0,0,1-16.046,24.779Z" transform="translate(217.571 23.898)" fill="#ffb9b9"/>
    <path id="Path_8351" data-name="Path 8351" d="M943.933,562.241l-37.268-2.014L883.5,291.292l17.535,2.63a29.673,29.673,0,0,1,25.115,26.3Z" transform="translate(208.393 -81.185)" fill="#6c63ff"/>
  </g>
</svg>
