<svg xmlns="http://www.w3.org/2000/svg" xmlns:xlink="http://www.w3.org/1999/xlink" width="2802" height="1080" viewBox="0 0 2802 1080">
  <defs>
    <linearGradient id="linear-gradient" x1="1" y1="0.017" x2="0.02" y2="1" gradientUnits="objectBoundingBox">
      <stop offset="0" stop-color="#40dfff"/>
      <stop offset="1" stop-color="#3793d1"/>
    </linearGradient>
  </defs>
  <g id="Rectangle_1573" data-name="Rectangle 1573" stroke="#707070" stroke-width="1" fill="url(#linear-gradient)">
    <rect width="2802" height="1080" stroke="none"/>
    <rect x="0.5" y="0.5" width="2801" height="1079" fill="none"/>
  </g>
  <g id="Group_3620" data-name="Group 3620" transform="translate(660 190)" opacity="0.5">
    <rect id="Rectangle_1621" data-name="Rectangle 1621" width="153.131" height="46.292" rx="7.43" transform="translate(181.56 356.701)" fill="#6c63ff" opacity="0.1"/>
    <rect id="Rectangle_1622" data-name="Rectangle 1622" width="153.131" height="46.292" rx="7.43" transform="translate(341.813 403.005)" fill="#6c63ff" opacity="0.1"/>
    <rect id="Rectangle_1623" data-name="Rectangle 1623" width="153.131" height="46.292" rx="7.43" transform="translate(502.078 449.296)" fill="#6c63ff" opacity="0.1"/>
    <rect id="Rectangle_1624" data-name="Rectangle 1624" width="153.131" height="46.292" rx="7.43" transform="translate(181.56 287.263)" fill="#6c63ff" opacity="0.1"/>
    <rect id="Rectangle_1625" data-name="Rectangle 1625" width="153.131" height="46.292" rx="7.43" transform="translate(341.813 333.555)" fill="#6c63ff" opacity="0.1"/>
    <rect id="Rectangle_1626" data-name="Rectangle 1626" width="153.131" height="46.292" rx="7.43" transform="translate(502.078 379.859)" fill="#6c63ff" opacity="0.1"/>
    <rect id="Rectangle_1627" data-name="Rectangle 1627" width="153.131" height="46.292" rx="7.43" transform="translate(680.135 356.701)" fill="#6c63ff" opacity="0.1"/>
    <rect id="Rectangle_1628" data-name="Rectangle 1628" width="153.131" height="46.292" rx="7.43" transform="translate(840.388 403.005)" fill="#6c63ff" opacity="0.1"/>
    <rect id="Rectangle_1629" data-name="Rectangle 1629" width="153.131" height="46.292" rx="7.43" transform="translate(1000.653 449.296)" fill="#6c63ff" opacity="0.1"/>
    <rect id="Rectangle_1630" data-name="Rectangle 1630" width="153.131" height="46.292" rx="7.43" transform="translate(680.135 287.263)" fill="#6c63ff" opacity="0.1"/>
    <rect id="Rectangle_1631" data-name="Rectangle 1631" width="153.131" height="46.292" rx="7.43" transform="translate(840.388 333.555)" fill="#6c63ff" opacity="0.1"/>
    <rect id="Rectangle_1632" data-name="Rectangle 1632" width="153.131" height="46.292" rx="7.43" transform="translate(1000.653 379.859)" fill="#6c63ff" opacity="0.1"/>
    <rect id="Rectangle_1633" data-name="Rectangle 1633" width="153.131" height="46.292" rx="7.43" transform="translate(181.56 194.667)" fill="#6c63ff" opacity="0.1"/>
    <rect id="Rectangle_1634" data-name="Rectangle 1634" width="153.131" height="46.292" rx="7.43" transform="translate(341.813 240.959)" fill="#6c63ff" opacity="0.1"/>
    <rect id="Rectangle_1635" data-name="Rectangle 1635" width="153.131" height="46.292" rx="7.43" transform="translate(502.078 287.263)" fill="#6c63ff" opacity="0.1"/>
    <rect id="Rectangle_1636" data-name="Rectangle 1636" width="153.131" height="46.292" rx="7.43" transform="translate(181.56 125.218)" fill="#6c63ff" opacity="0.1"/>
    <rect id="Rectangle_1637" data-name="Rectangle 1637" width="153.131" height="46.292" rx="7.43" transform="translate(341.813 171.521)" fill="#6c63ff" opacity="0.1"/>
    <rect id="Rectangle_1638" data-name="Rectangle 1638" width="153.131" height="46.292" rx="7.43" transform="translate(502.078 217.813)" fill="#6c63ff" opacity="0.1"/>
    <rect id="Rectangle_1639" data-name="Rectangle 1639" width="153.131" height="46.292" rx="7.43" transform="translate(680.135 194.667)" fill="#6c63ff" opacity="0.1"/>
    <rect id="Rectangle_1640" data-name="Rectangle 1640" width="153.131" height="46.292" rx="7.43" transform="translate(840.388 240.959)" fill="#6c63ff" opacity="0.1"/>
    <rect id="Rectangle_1641" data-name="Rectangle 1641" width="153.131" height="46.292" rx="7.43" transform="translate(1000.653 287.263)" fill="#6c63ff" opacity="0.1"/>
    <rect id="Rectangle_1642" data-name="Rectangle 1642" width="153.131" height="46.292" rx="7.43" transform="translate(680.135 125.218)" fill="#6c63ff" opacity="0.1"/>
    <rect id="Rectangle_1643" data-name="Rectangle 1643" width="153.131" height="46.292" rx="7.43" transform="translate(840.388 171.521)" fill="#6c63ff" opacity="0.1"/>
    <rect id="Rectangle_1644" data-name="Rectangle 1644" width="153.131" height="46.292" rx="7.43" transform="translate(1000.653 217.813)" fill="#6c63ff" opacity="0.1"/>
    <ellipse id="Ellipse_431" data-name="Ellipse 431" cx="640.5" cy="116.5" rx="640.5" ry="116.5" transform="translate(0 657)" fill="#6c63ff" opacity="0.1"/>
    <path id="Path_8384" data-name="Path 8384" d="M247.882,321.086,194,651.408l243.642-25.77L427.1,597.525,236.754,613.339,281.266,320.5Z" transform="translate(33.243 54.919)" fill="#3f3d56"/>
    <path id="Path_8385" data-name="Path 8385" d="M186,1.171,513.979,0l94.88,718.04L279.708,762.552Z" transform="translate(31.872)" fill="#3f3d56"/>
    <path id="Path_8386" data-name="Path 8386" d="M216.5,24.5H481.226l92.537,667.672L300.838,729.655Z" transform="translate(37.098 4.198)" fill="#fff"/>
    <path id="Path_8387" data-name="Path 8387" d="M488.591,639.987c1.663,3.186,2.9,6.63,5.072,9.5,6.325,8.457,18.332,9.781,27.339,15.3a2.518,2.518,0,0,1,1.066,1.031c.41.972-.5,1.991-1.382,2.6-6.829,4.791-15.79,4.9-24.142,4.838a32.2,32.2,0,0,1-8.352-.8c-4.416-1.171-8.2-4.252-12.557-5.505a33.309,33.309,0,0,0-6.9-.972l-9.148-.621a21.563,21.563,0,0,1-7.134-1.324,7.215,7.215,0,0,1-4.5-5.33c-.258-1.944.574-3.83,1.066-5.728,1.171-4.5.808-9.933,4.311-13a13.293,13.293,0,0,1,4.861-2.343,155.06,155.06,0,0,1,19.456-5.177C483.074,631.39,486.19,635.372,488.591,639.987Z" transform="translate(14.669 26.349)" fill="#3f3d56"/>
    <path id="Path_8388" data-name="Path 8388" d="M399.329,665.12c.234,2.495.3,5.353-1.5,7.1a8,8,0,0,1-3.924,1.757c-8.656,2.015-18.308,2.155-25.84-2.553a7.134,7.134,0,0,1-2.038-1.745A6.361,6.361,0,0,1,365,666.455c-.269-3.315.75-6.583,1.675-9.781a171.636,171.636,0,0,0,4.978-23.134c.094-.644,22.1,3.514,23.568,5.693,1.839,2.694,1.851,9.16,2.343,12.369Q398.673,658.326,399.329,665.12Z" transform="translate(0.454 26.554)" fill="#3f3d56"/>
    <path id="Path_8389" data-name="Path 8389" d="M483.033,405.818l5.857,54.456c1.171,11.128,2.4,22.314,1.593,33.477-.937,12.885-4.545,25.77-3.022,38.538.6,4.967,1.956,9.839,2.155,14.841a80.829,80.829,0,0,1-.5,9.957c-2.647,33.044,5.728,65.83,10.413,98.64A42.8,42.8,0,0,1,500.017,668c-.609,4.158-1.827,9.617,1.874,11.585l-34.766,12.6c-4.439-5.564-1.5-14.22-2.343-21.283-.773-6.36-4.264-12.03-6.126-18.156-1.687-5.505-2.038-11.3-2.589-17.02-3.034-31.123-12.346-61.438-14.525-92.631a42.167,42.167,0,0,0-1.171-8.937c-1.171-3.877-3.514-7.262-5.224-10.905-2.624-5.47-3.912-11.468-5.177-17.395l-7.438-34.848c-7.52,11.2-7.216,25.77-8.7,39.194-2.085,18.742-6.747,37.167-10.542,55.674a110.651,110.651,0,0,0-1.98,12.065c-.984,10.859.972,21.822-.07,32.669-1.171,12.569-6.454,24.833-5.177,37.4.7,6.958,3.374,13.541,5.177,20.288s2.694,14.15-.059,20.581a63.253,63.253,0,0,0-30.116-3.327c-11.163-11.421-13.143-27.351-13.9-43.34s1.078-32-.914-47.838c-.586-4.685-1.5-9.254-1.652-13.927-.492-14.982,6.712-29,10.3-43.563a92.185,92.185,0,0,0,.9-40c-1.757-8.75-4.779-17.242-5.857-26.109-1.464-12.428,1.019-24.95,3.514-37.226,1.675-8.281,3.338-16.563,5.236-24.8,2.038-8.844,4.463-17.875,9.91-25.114,8.715-11.585,24.188-16.727,38.655-15.6s27.972,7.708,39.92,15.907a150.5,150.5,0,0,1,25.864,21.869Z" transform="translate(-1.325 -18.955)" fill="#192534"/>
    <path id="Path_8390" data-name="Path 8390" d="M437.493,225.326a10.108,10.108,0,0,0-1.347,3.444c-.293,2.4,1.171,4.6,2.343,6.7a36.488,36.488,0,0,1,3.432,8.551,14.055,14.055,0,0,1,.5,5.7,13.763,13.763,0,0,1-1.523,4.1c-2.261,4.357-5.611,8.387-10.167,10.2a17.91,17.91,0,0,1-11,.445,33.4,33.4,0,0,1-10.062-4.779,30.584,30.584,0,0,1-6.888-5.974,41.29,41.29,0,0,1-4.756-8.2c-2.436-5.1-4.908-10.542-4.463-16.13a5.388,5.388,0,0,1,.281-1.488,8,8,0,0,1,1.57-2.343,30.572,30.572,0,0,0,7.169-21.26l17.067,3.877c3.76.855,7.52,1.71,11.233,2.776,3.046.879,7.731,2.1,9.711,4.814S438.84,222.843,437.493,225.326Z" transform="translate(5.349 -46.987)" fill="#fbbebe"/>
    <circle id="Ellipse_432" data-name="Ellipse 432" cx="31.017" cy="31.017" r="31.017" transform="translate(402.688 113.399)" fill="#fbbebe"/>
    <path id="Path_8391" data-name="Path 8391" d="M425.674,249.715c1.312-2.87,4.147-4.685,6.735-6.489s5.213-4.111,5.716-7.239a5.188,5.188,0,0,1,.515-2.038c1-1.5,3.362-.75,4.779.351,3.444,2.682,5.787,6.489,8.071,10.2a87.178,87.178,0,0,1,7.555,14.279c3.292,8.68,3.69,18.156,4.053,27.421.328,8.434.644,17-1.406,25.172-1.289,5.177-3.514,10.2-3.643,15.532-.387,19.362-7.11,37.87-7.579,57.232a148.463,148.463,0,0,0,.843,16.762l1.1,12.569q-25.547-1.464-50.954-4.486c-.492-5.786-2.144-11.4-3.655-17a368.892,368.892,0,0,1-11.842-69.977c-.9-12.557-1.827-25.067-3.221-37.577-1.253-11.374-3.713-22.818-2.237-34.168a47.172,47.172,0,0,1,4.8-14.783A9.746,9.746,0,0,1,389.058,231a10.13,10.13,0,0,1,2.647-.855,49.125,49.125,0,0,1,8.059-.949,5.553,5.553,0,0,1,1.968.187,6.173,6.173,0,0,1,2.682,2.6,48.635,48.635,0,0,0,21.26,17.734Z" transform="translate(3.041 -42.725)" fill="#f2f2f2"/>
    <path id="Path_8392" data-name="Path 8392" d="M406.72,244.945c2.179,3.116,6.794,3.854,8.809,7.028a18.426,18.426,0,0,1,1.534,4.182c1.23,3.924,3.713,7.333,5.224,11.163,2.179,5.505,2.237,11.6,2.261,17.512a57.945,57.945,0,0,1-1.078,14.056c-.7,2.893-1.851,5.646-2.694,8.5a41.582,41.582,0,0,0-1.57,14.993,6.137,6.137,0,0,0,.843,3.1,6.735,6.735,0,0,0,3,2.039c3.432,1.511,7.028,3.057,10.776,2.706a3.948,3.948,0,0,0,2.144-.715,4.767,4.767,0,0,0,1.054-1.394l2.343-3.959c2.12-3.619,4.334-7.672,3.514-11.807a23.426,23.426,0,0,0-2.659-6.056,71.186,71.186,0,0,1-3.819-9.453c-3.737-10.741-7.52-21.635-8.363-32.974a28.98,28.98,0,0,1,1.406-12.791,36.428,36.428,0,0,1,4.123-7.134,3.057,3.057,0,0,0-3.291-1.113,19.585,19.585,0,0,0-3.409,1.417c-3.444,1.452-7.262.925-10.741-.07-1.359-.4-3.514-1.757-4.92-1.663C410.726,242.579,406.8,245.086,406.72,244.945Z" transform="translate(7.612 -40.439)" fill="#6c63ff"/>
    <path id="Path_8393" data-name="Path 8393" d="M431.841,247.11c-.7-.562-1.792-1.078-2.413-.422a2.717,2.717,0,0,0-.445.949c-.609,1.64-2.4,2.448-4.029,3.081s-3.385.984-4.369-.223a2.647,2.647,0,0,1,.152-3.128A9.558,9.558,0,0,1,423.3,245.2a25.043,25.043,0,0,0,10.214-16.071,7.637,7.637,0,0,1,2.8,4.838c.386,1.862.433,3.783.82,5.646.574,2.671,1.851,5.166,2.144,7.871a41.144,41.144,0,0,1,0,4.334,26.61,26.61,0,0,0,.492,4.193C437.03,253.108,435.1,249.7,431.841,247.11Z" transform="translate(9.912 -42.732)" fill="#f2f2f2"/>
    <path id="Path_8394" data-name="Path 8394" d="M412.527,240.8c-1.171-1.113-2.343-2.167-3.514-3.3a45.566,45.566,0,0,1-11.327-17.98c-1.5,1.171-3.151,2.718-3.186,4.685a7.18,7.18,0,0,0,1.546,3.807,59.364,59.364,0,0,1,8.586,22.97,6.841,6.841,0,0,1,5.915-3.151c1.851,0,10.156,4.92,10.753,3.678C422.179,249.565,413.933,242.127,412.527,240.8Z" transform="translate(5.518 -44.379)" fill="#f2f2f2"/>
    <path id="Path_8395" data-name="Path 8395" d="M448.871,231.123a97.222,97.222,0,0,0,39.334,23.814,8.832,8.832,0,0,1,3.971,2.015,8.117,8.117,0,0,1,1.652,3.631c2.858,11.175,3.819,22.736,4.767,34.227a19.072,19.072,0,0,1-.117,5.716c-.691,3.069-2.87,5.552-5.013,7.86-6.724,7.2-14.4,14.736-15.532,24.528a39.19,39.19,0,0,1-.668,5.622c-.586,2.179-1.886,4.1-2.682,6.22-3.912,10.437,4.931,23.076-.457,32.8a59.2,59.2,0,0,1,5.927,17.875,23.265,23.265,0,0,0,1.6,6.888c1.6,3.35,4.908,5.482,7.508,8.2,7.93,8.129,8.9,20.569,9.371,31.919.293,6.4.2,13.74-4.685,17.933-2.823,2.448-6.677,3.245-10.367,3.854-4.908.82-10.249,1.406-14.6-1.019-3.116-1.734-5.236-4.767-7.262-7.7-3.842-5.587-7.7-11.163-11.339-16.891-5.763-9.031-11.2-19.351-9.535-29.94-.469,10.835-2.753,21.752-8.071,31.193s-13.881,17.324-24.27,20.44-22.537.914-30.28-6.677a40.924,40.924,0,0,1-6.454-8.7,84.948,84.948,0,0,1-9.535-24.259c-.5-2.214-.879-4.685.234-6.665.527-.937,1.335-1.675,1.886-2.6,1.851-3.151.07-7.122-1.722-10.331-2.729.258-4.685-2.952-4.439-5.693s1.886-5.119,3.046-7.614c3.4-7.356,2.647-15.919,1.007-23.849s-4.088-15.813-3.9-23.907c.2-8.563-5.962-16.27-10.659-23.427-2.624-4.029-5.681-7.778-7.965-12.006a38.737,38.737,0,0,1-3.069-29,76.014,76.014,0,0,1,6.419-14.314l3.865-7.251a11.959,11.959,0,0,1,8.2-7.028l26.742-10.542a40.236,40.236,0,0,0,9.652-4.826c3.268-2.46,5.7-5.857,8.82-8.481a4.943,4.943,0,0,1,3.514-1.534c2.507.223,3.4,3.385,3.655,5.857.586,5.529,4.685,10.214,6.079,15.591,7.544,29.694,23.509,57.08,27.89,87.395,4.92-11.819,9.839-23.661,16.141-34.789a28.885,28.885,0,0,0,2.495-5.049,21.554,21.554,0,0,0,.832-7.836c-.316-7.626-2.343-15.075-4.346-22.443C453.92,250.3,451.577,241.056,448.871,231.123Z" transform="translate(-4.67 -44.023)" fill="#3f3d56"/>
    <path id="Path_8396" data-name="Path 8396" d="M480.238,311.166c.515,4.99,1.019,9.992,1.944,14.923,1.078,5.7,2.718,11.28,4.346,16.856a43.864,43.864,0,0,0,3.4,9.055,11.644,11.644,0,0,1,1.253,2.682c.574,2.343-.738,4.685-1.3,7.028-1.687,7.028,3.373,14.841.187,21.319-.961,1.968-2.636,3.6-3.268,5.7-.738,2.425,0,5.013.387,7.52,1,7.028-1.406,14.173-3.772,20.932l-4.029,11.409c-3.678-6.841-7.391-13.752-12.475-19.62-1.816-2.108-3.8-4.065-5.47-6.29a44.113,44.113,0,0,1-5.857-11.409,98.9,98.9,0,0,1-6.056-30.127,20.605,20.605,0,0,1,1-8.668,46.109,46.109,0,0,1,2.6-4.685c3.139-5.658,3.784-12.358,3.725-18.824s-.75-12.955,0-19.386a44.347,44.347,0,0,1,4.685-15.38,21.821,21.821,0,0,1,6.36-7.93,11.456,11.456,0,0,1,7.028-2.284c3.83.223,2.952,3.514,3.28,6.688Z" transform="translate(14.929 -33.332)" fill="#3f3d56"/>
    <path id="Path_8397" data-name="Path 8397" d="M330.506,298.063q-3.584,10.542-6.466,21.272-2.811,10.542-5.025,21.2a45.4,45.4,0,0,0-1.265,9.535,42.662,42.662,0,0,0,1.909,11.022c7.544,27.187,21.3,52.266,36.781,75.845a68.267,68.267,0,0,1,15.579-14.22,3.338,3.338,0,0,0,1.171-1.171,3.174,3.174,0,0,0-.375-2.741c-4.275-8.762-11.046-16.481-13.178-26-.89-3.959-.925-8.082-1.933-12.018-1.3-5.1-4.205-9.757-4.873-14.982-.715-5.693,1.171-11.9-1.5-16.949,5.447-2.12,8.6-7.731,10.905-13.107a71.789,71.789,0,0,0,5.248-17.231,51.844,51.844,0,0,0-6.337-32.974,52.711,52.711,0,0,0-10.6-13.307c-1.394-1.253-4.685-4.849-6.712-4.814-2.706.059-3.573,4.439-4.346,6.407C336.363,281.863,333.27,289.91,330.506,298.063Z" transform="translate(-7.634 -36.171)" fill="#3f3d56"/>
    <path id="Path_8398" data-name="Path 8398" d="M373.689,407.132c.351.258.75.609.656,1.031s-.433.527-.738.7a9.09,9.09,0,0,0-3.374,4.568,127.51,127.51,0,0,0-5.084,13.459,59,59,0,0,0-9.183-10.718c-2.671-2.46-5.658-4.791-7.087-8.118,0-.094,6.138-4.627,6.7-5.119,1.722-1.534,3.889-5.786,5.669-6.724,2.015-1.054,3.936,3.081,5.47,4.744a46.522,46.522,0,0,0,6.969,6.173Z" transform="translate(-2.3 -14.131)" fill="#fbbebe"/>
    <path id="Path_8399" data-name="Path 8399" d="M462.205,196.073c-.082-1.534-.281-3.233-1.452-4.229a5.541,5.541,0,0,0-3.514-.972c-6.829-.223-13.892.925-20.335-1.37-4.24-1.511-7.86-4.416-11.995-6.22s-9.429-2.284-12.768.75c-2.53,2.343-3.221,5.939-4.1,9.254a54.256,54.256,0,0,1-10.109,20.054c-3.174-.984-5.447-3.819-6.911-6.794-4.978-10.144-2.53-22.256,1.007-33.009,1.171-3.608,2.472-7.18,3.772-10.741l2.858-7.872a15.368,15.368,0,0,0,9.793-4.873l1.23,2.987a15.579,15.579,0,0,0,8.785-3.1c.984,1.851,3.514,2.343,5.564,1.745s3.819-1.745,5.857-2.343c5.447-1.757,11.257.949,16.973,1.253a67.929,67.929,0,0,1,7.251.211c6.747,1.089,11.514,7.438,13.576,13.951,1.37,4.334,2.507,9.664,6.782,11.2.094,1.64-2.811,1.956-3.057,3.514a2.694,2.694,0,0,0,.351,1.488l3.924,8.422a9.746,9.746,0,0,1-5.669-.281C468.249,193.25,462.381,199.248,462.205,196.073Z" transform="translate(4.439 -56.506)" fill="#192534"/>
    <path id="Path_8400" data-name="Path 8400" d="M622.357,210.18a153.878,153.878,0,0,1,4.685,19.6c.843,4.967,1.335,10.484-1.511,14.63,10.847-16.317,22.174-33.126,38.655-43.656a35.293,35.293,0,0,1-9.2-27.222c.094-.984-13.529,4.158-14.572,4.744-4.779,2.659-9.16,5.962-13.822,8.809-2.413,1.464-12.463,4.931-12.557,7.028,0,1.347,3.994,5.47,4.744,6.888a53.5,53.5,0,0,1,3.573,9.183Z" transform="translate(43.137 -52.281)" fill="#fbbebe"/>
    <path id="Path_8401" data-name="Path 8401" d="M674.128,731.49a18.156,18.156,0,0,0-18.554-1.406c-5.306,2.741-8.879,7.93-13.7,11.444-8.293,6.021-19.245,6.5-28.956,9.757-2.577.867-5.318,2.155-6.407,4.685a8.317,8.317,0,0,0,.48,6.524,16.89,16.89,0,0,0,8.035,8.281c4.357,2.085,9.371,2.179,14.2,2.237l41.935.492c12.885.152,25.852.3,38.655,1.909,2.987.375,6.22.785,8.855-.679,4.287-2.343,4.779-8.27,4.451-13.154a120.731,120.731,0,0,0-8.2-36.078c-.5-1.277-1.171-2.729-2.589-2.964a4.217,4.217,0,0,0-2.788.89c-11.831,7.028-26.812,11-39.393,5.377" transform="translate(41.769 41.815)" fill="#fff"/>
    <path id="Path_8402" data-name="Path 8402" d="M685.725,502.178c-4.685,27.211-1.628,55.171,3.643,82.264a143.422,143.422,0,0,0,3.83,15.977c1.886,5.974,4.428,11.714,6.2,17.723,4.5,15.228,3.865,31.509,3.2,47.4l-3.069,72.331c-.258,6.068-.492,12.276,1.335,18.062.738,2.343,1.64,5.271-.223,6.852a5.225,5.225,0,0,1-2.472.949,38.256,38.256,0,0,1-24.6-3.69l-.832-73.069c-.258-22.525-.527-45.144-3.994-67.388-2.753-17.687-7.532-35.141-7.848-53.039-.328-18.742,4.264-37.237,8.949-55.405,1.007-3.889,4.685-6.735,7.708-9.371a9.477,9.477,0,0,1,3.748-2.272C682.7,499.121,684.858,501,685.725,502.178Z" transform="translate(51.162 3.589)" fill="#3f3d56"/>
    <path id="Path_8403" data-name="Path 8403" d="M685.725,502.178c-4.685,27.211-1.628,55.171,3.643,82.264a143.422,143.422,0,0,0,3.83,15.977c1.886,5.974,4.428,11.714,6.2,17.723,4.5,15.228,3.865,31.509,3.2,47.4l-3.069,72.331c-.258,6.068-.492,12.276,1.335,18.062.738,2.343,1.64,5.271-.223,6.852a5.225,5.225,0,0,1-2.472.949,38.256,38.256,0,0,1-24.6-3.69l-.832-73.069c-.258-22.525-.527-45.144-3.994-67.388-2.753-17.687-7.532-35.141-7.848-53.039-.328-18.742,4.264-37.237,8.949-55.405,1.007-3.889,4.685-6.735,7.708-9.371a9.477,9.477,0,0,1,3.748-2.272C682.7,499.121,684.858,501,685.725,502.178Z" transform="translate(51.162 3.589)" opacity="0.1"/>
    <path id="Path_8404" data-name="Path 8404" d="M607.068,430.853c-1.734,7.134,1.944,14.525,1.534,21.857-.234,4.439-1.98,8.867-1.171,13.225s3.924,7.637,5.587,11.632a31.557,31.557,0,0,1,1.9,10.4c.48,8.762.094,17.57-.234,26.3-.55,14.642-.961,29.366.972,43.879a137.273,137.273,0,0,0,10.156,36.488,63.249,63.249,0,0,1,3.784,9.828,70.143,70.143,0,0,1,1.288,9.535,96.873,96.873,0,0,0,8.282,30.116c2.987,6.524,8.2,11.714,9.851,18.636,1.57,6.63.515,13.623,1.652,20.335.832,4.978,2.858,9.687,3.983,14.607,1.464,6.36,1.429,12.955,2.167,19.444,2.108,18.742,10.624,37.483,5.54,55.663-1.019,3.655-2.6,7.368-1.886,11.093.351,1.827,1.242,3.631.843,5.447-.328,1.546-1.523,2.741-2.132,4.205-1.171,2.741.07,6,2.155,8.117a23.066,23.066,0,0,0,7.614,4.5c8.633,3.69,17.57,7.438,26.941,7.356a7.239,7.239,0,0,0,3.315-.609c1.687-.878,2.518-2.788,3.233-4.545l4.8-11.878c.586-1.441,1.171-3.128.363-4.463a8.315,8.315,0,0,0-2.015-1.874c-3.877-3.268-3-9.371-1.968-14.279a208.357,208.357,0,0,0,4.357-38.3c.515-25.676-3.713-51.2-7.93-76.536-1.464-8.8-2.94-17.652-5.857-26.086s-7.216-16.551-6.513-25.313c.75-9.465-1.71-19.386,0-28.722s4.416-18.472,6.161-27.8c2.261-12.1,2.823-24.434,3.514-36.71.293-5.013.668-10.191,3.01-14.642,1.37-2.6,3.362-4.826,4.9-7.344,3.959-6.548,4.592-14.665,8.375-21.319,1.792-3.151,4.264-5.927,5.576-9.3a25.992,25.992,0,0,0,1.429-8.27,98.387,98.387,0,0,0-1.171-21.143,137.576,137.576,0,0,0-64.425-14.946c-8.563.141-17.219,1.007-25.254,3.971C622.132,426.249,615.151,430.244,607.068,430.853Z" transform="translate(41.862 -10.126)" fill="#3f3d56"/>
    <path id="Path_8405" data-name="Path 8405" d="M656.736,746.581c-3.444,4.287-3.209,10.413-5.412,15.462-2.671,6.126-8.621,10.05-14.267,13.623l-35.141,22.256c-1.921,1.171-3.983,2.612-4.685,4.791a7.684,7.684,0,0,0,.176,4.205,18.25,18.25,0,0,0,12.276,12.463,36.312,36.312,0,0,0,9.5.972l15.8.211A92.536,92.536,0,0,0,649.4,820c4.381-.633,8.645-1.886,13-2.683,7.93-1.441,16.083-1.312,24.025-2.706a127.04,127.04,0,0,0,14.384-3.713c5.74-1.722,11.585-3.514,16.5-6.923a8.563,8.563,0,0,0,3.174-3.42c.832-1.933.375-4.147-.094-6.2l-7.544-33.149a19.76,19.76,0,0,0-2.952-7.743c-1.675-2.226-4.685-3.7-7.3-2.753a15.465,15.465,0,0,0-3.034,1.827c-3.865,2.542-8.82,2.964-13.388,2.167-2.952-.527-6.852-1.335-9.23-3.292-1.8-1.488-2.343-3.8-3.877-5.482a11,11,0,0,0-16.34.644Z" transform="translate(40.22 45.255)" fill="#fff"/>
    <circle id="Ellipse_433" data-name="Ellipse 433" cx="42.321" cy="42.321" r="42.321" transform="translate(631.852 68.688)" fill="#fbbebe"/>
    <path id="Path_8406" data-name="Path 8406" d="M600.873,176.967c4.053-2.272,4.053-8.82,8.2-11s8.855,1.6,11.514,5.423a49.887,49.887,0,0,1,7.907,18.589c.375,1.9.726,3.971,2.155,5.295s3.3,1.488,5.13,1.675q8.024.8,16.071,1.452c5.974.48,12.276.867,17.7-1.7a12.884,12.884,0,0,0,5.318-4.4,19.819,19.819,0,0,0,2.272-5.951c2.8-10.648,5.622-21.424,5.857-32.435.094-4.545-.3-9.254-2.495-13.236-1.277-2.343-3.151-4.381-3.678-6.958s1.171-5.857,3.842-5.576a15.767,15.767,0,0,1-7.028-1.335c-2.12-1.171-3.69-3.69-2.94-5.986-5.951.761-10.285-5.119-14.923-8.926a4.041,4.041,0,0,0-2.835-1.171,10.226,10.226,0,0,0-2.343.9c-2.343.82-4.791-.738-7.192-1.417-6.442-1.8-14.63,2.554-19.409-2.132.457,2.987-3.209,4.99-6.232,4.931s-6.138-1.171-9-.164a5.857,5.857,0,0,1-3.35,8.387l1.417,3.092a7.989,7.989,0,0,0-6.15,5.763c-1.558,6.15-1.171,14.888-.8,21.213C600.076,154.079,602.782,175.925,600.873,176.967Z" transform="translate(40.655 -63.475)" fill="#192534"/>
    <path id="Path_8407" data-name="Path 8407" d="M637.992,214.622c-21.26,23.907-26.672,57.56-31.2,89.246l-6.677,46.784c-1.734,12.135-3.514,24.27-5.025,36.441-1.054,8.328-2.038,16.785-.89,25.1.9,6.56,3.092,12.885,4.92,19.2a181.047,181.047,0,0,1,7.028,50.942c1.417-4.17,6.325-5.857,10.636-6.794a171.978,171.978,0,0,1,107.6,11.491c5.915-16.575,4.8-34.707,6.454-52.231,2.343-24.985,10.413-49.2,12.8-74.135.879-9.289.984-18.625,1.078-27.96.07-6.852.141-13.775-1.288-20.487-1.593-7.426-4.955-14.349-8.434-21.084a549.465,549.465,0,0,0-32-54.374q-8.832-13.213-18.425-25.9-4.861-6.431-9.921-12.721c-3.268-4.065-4.685-7.59-9.875-5.154C654.965,197.579,645.126,206.6,637.992,214.622Z" transform="translate(39.648 -49.063)" fill="#6c63ff"/>
    <path id="Path_8408" data-name="Path 8408" d="M646.722,382.475a114.792,114.792,0,0,1-15.544-.492c-3.83-.375-7.743-.937-11.479,0a11.947,11.947,0,0,0-4.463,2.19,3.362,3.362,0,0,0,1.909,5.857l4.006.351c2.542.223,5.189.48,7.169,2.343a4.474,4.474,0,0,1,1.452,2.823c.246,2.729-2.12,4.217-4.24,5.353a33.606,33.606,0,0,0-8.27,5.505,11.456,11.456,0,0,0-3.432,7.028,1.359,1.359,0,0,0,1.991,1.253c4.685-2.343,7.743-9.289,12.885-8.129a20.874,20.874,0,0,0-11.315,8.7,5.248,5.248,0,0,0,7.028,7.415,23.164,23.164,0,0,0,2.2-1.464,54.129,54.129,0,0,0,9.289-9.652c-3.748,7.907-7.544,17.16-3.233,25.02a2.5,2.5,0,0,0,2.343,1.382c1.359-.141,1.757-1.417,1.98-2.542.7-3.619.878-7.438,2.659-10.659,4.123-7.473,14.291-8.2,22.033-11.842,9.289-4.311,15.649-13.588,18.215-23.5a18.062,18.062,0,0,0,.457-8.926c-1.722-6.665-9.945-8.2-15.228-4.978C658.658,379.629,654.9,382.217,646.722,382.475Z" transform="translate(43.101 -17.926)" fill="#fbbebe"/>
    <path id="Path_8409" data-name="Path 8409" d="M635.823,277.553c8.2,12.662,22.432,19.8,34.637,28.686a29.038,29.038,0,0,1,7.661,7.286c3.081,4.756,3.514,10.8,2.882,16.4-.8,7.391-3.174,14.5-5.529,21.553l-5.119,15.286c-3.245,9.7-6.595,19.6-12.768,27.749-1.581,2.073-3.42,4.287-3.35,6.888a8.9,8.9,0,0,0,1.5,4.193,28.206,28.206,0,0,0,17.91,12.791,13.659,13.659,0,0,0,6.735,0c3.163-.937,5.54-3.514,7.743-5.95,10.542-11.632,21.084-23.427,28.7-37.073,7.438-13.318,11.889-28.113,15.989-42.766a90.03,90.03,0,0,0,3.514-16.551c.867-10.542-1.9-21.084-6.419-30.607s-10.741-18.144-17.149-26.519a184.571,184.571,0,0,0-20.089-23.052c-12.744-11.913-28.335-18.917-45.39-12.159-12.042,4.779-16.551,14.747-17.629,27.515A41.864,41.864,0,0,0,635.823,277.553Z" transform="translate(45.777 -44.114)" opacity="0.1"/>
    <path id="Path_8410" data-name="Path 8410" d="M639.47,274.8c8.2,12.662,22.443,19.8,34.637,28.686a29.131,29.131,0,0,1,7.625,7.333c3.081,4.756,3.514,10.788,2.882,16.4-.808,7.391-3.174,14.5-5.541,21.553l-5.119,15.228c-3.245,9.7-6.595,19.585-12.768,27.749-1.57,2.073-3.409,4.275-3.338,6.888a8.692,8.692,0,0,0,1.5,4.182,28.194,28.194,0,0,0,17.9,12.8,13.7,13.7,0,0,0,6.747,0c3.163-.925,5.529-3.514,7.743-5.939,10.542-11.643,21.084-23.427,28.7-37.073,7.438-13.318,11.889-28.113,15.989-42.778a89.128,89.128,0,0,0,3.514-16.54c.867-10.542-1.9-21.084-6.407-30.619s-10.741-18.144-17.149-26.519a184.669,184.669,0,0,0-20.136-22.923c-12.733-11.9-28.323-18.917-45.378-12.147-12.053,4.779-16.551,14.736-17.641,27.515a41.9,41.9,0,0,0,6.243,26.2Z" transform="translate(46.393 -44.565)" fill="#6c63ff"/>
    <path id="Path_8411" data-name="Path 8411" d="M867.366,630.3a43.34,43.34,0,0,1-.937,9.09c-.117.562-.246,1.171-.375,1.652-3.327,13.342-12.709,23.1-23.907,23.72h-1.171c-11.842,0-21.857-10.214-25.161-24.282-.094-.375-.176-.75-.258-1.171a43.347,43.347,0,0,1-.937-9.09c0-19.058,11.8-34.5,26.355-34.5S867.366,611.276,867.366,630.3Z" transform="translate(77.507 20.085)" fill="#3f3d56"/>
    <path id="Path_8412" data-name="Path 8412" d="M867.359,630.29a43.34,43.34,0,0,1-.937,9.09c-.117.562-.246,1.171-.375,1.652h-1.171a53.606,53.606,0,0,1-8.621-1.171,52.628,52.628,0,0,1-7.684,1.757,53.725,53.725,0,0,1-6.021.562h-2.038a54.37,54.37,0,0,1-7.221-.481,52.9,52.9,0,0,1-11.321-2.811,53.364,53.364,0,0,1-6.114,1.64c-.094-.375-.176-.75-.258-1.171a43.336,43.336,0,0,1-.937-9.09c0-19.058,11.8-34.5,26.355-34.5S867.359,611.267,867.359,630.29Z" transform="translate(77.514 20.093)" opacity="0.1"/>
    <path id="Path_8413" data-name="Path 8413" d="M932.828,581.74a53.343,53.343,0,0,0-5.74-24.142l-30.994,9.64,27.21-16A53.566,53.566,0,0,0,883.057,528.3a53.5,53.5,0,0,0-4.182-5.529l-44.511,13.857,36.511-21.471a53.566,53.566,0,0,0-84.337,28.569l38.127,43.891L783.3,557.7a53.578,53.578,0,0,0,47.943,94.528,53.789,53.789,0,0,0,34.3.949A53.624,53.624,0,0,0,930.7,600.868c0-1.171,0-2.343-.117-3.514A53.455,53.455,0,0,0,932.828,581.74Z" transform="translate(68.271 4.383)" fill="#6c63ff"/>
    <path id="Path_8414" data-name="Path 8414" d="M931.914,580.66a142.79,142.79,0,0,0-49.6-.633c-18.613,3.081-37.636,9.851-55.838,4.908-10.683-2.9-19.913-9.628-30.35-13.365A57.607,57.607,0,0,0,764.8,569.7a53.6,53.6,0,0,0,66.4,71.523,53.789,53.789,0,0,0,34.3.949,53.625,53.625,0,0,0,65.151-52.313c0-1.171,0-2.343-.117-3.514a52.928,52.928,0,0,0,1.382-5.681Z" transform="translate(68.259 15.395)" opacity="0.1"/>
  </g>
</svg>
