<svg xmlns="http://www.w3.org/2000/svg" xmlns:xlink="http://www.w3.org/1999/xlink" width="2504" height="1080" viewBox="0 0 2504 1080">
  <defs>
    <linearGradient id="linear-gradient" x1="1" y1="0.017" x2="0.02" y2="1" gradientUnits="objectBoundingBox">
      <stop offset="0" stop-color="#f55"/>
      <stop offset="1" stop-color="#de55ff"/>
    </linearGradient>
  </defs>
  <g id="Rectangle_1573" data-name="Rectangle 1573" stroke="#707070" stroke-width="1" fill="url(#linear-gradient)">
    <rect width="2504" height="1080" stroke="none"/>
    <rect x="0.5" y="0.5" width="2503" height="1079" fill="none"/>
  </g>
  <g id="Group_3619" data-name="Group 3619" transform="translate(684 152)" opacity="0.5">
    <path id="Path_8352" data-name="Path 8352" d="M1323.672,585.022c-6.069,51.993-18.678,93.737-35.986,127.029-23.031,44.358-62.426,62.23-97.618,80.932a222.567,222.567,0,0,1-31.622,13.75c-64.034,22.225-135.707,16.329-192.007,4.594a756.923,756.923,0,0,0-119.866-15.155q-17.239-.777-34.512-.772c-17.757.023-337.488,6.092-415.333-151.511-19.219-38.877-32.393-86.367-37.126-144.255-13.393-163.66,60.215-271.146,155.161-341.4,179.61-132.9,425.8-127.328,602.761,9.075C1235.4,258.164,1345.767,395.671,1323.672,585.022Z" transform="translate(32.162 -61.705)" fill="#3f3d56"/>
    <path id="Path_8353" data-name="Path 8353" d="M1043.335,398.271c-49.826-37.25-127.868-72.478-214.111-96.65C750.7,279.611,674.108,268.985,613.543,271.7l-.315-7.043c61.286-2.745,138.671,7.971,217.9,30.177,87.048,24.4,165.934,60.042,216.43,97.792Z" transform="translate(81.918 -22.218)" fill="#f2f2f2"/>
    <path id="Path_8354" data-name="Path 8354" d="M1045.669,438.831a234.615,234.615,0,0,1-20.3,95.79q-1.681,3.786-3.5,7.5A235.491,235.491,0,0,1,810.2,674.3c-130.046,0-235.473-105.427-235.473-235.473q0-8.175.557-16.222.264-4.093.684-8.136c12.19-118.6,112.414-211.115,234.233-211.115C940.242,203.358,1045.669,308.785,1045.669,438.831Z" transform="translate(74.411 -34.087)" fill="#6c63ff"/>
    <path id="Path_8355" data-name="Path 8355" d="M1025.274,500.176q-1.681,3.786-3.5,7.5-10.321,1.121-21.729,1.629c-6.3.282-12.775.423-19.395.423-57.825,0-127.417-10.674-198.509-30.6C702.908,456.924,631.23,425.861,580.3,391.661q-2.6-1.745-5.111-3.5.264-4.093.684-8.136,4.05,2.887,8.354,5.781c50.331,33.791,121.29,64.523,199.814,86.533,70.473,19.754,139.409,30.337,196.571,30.337q9.8,0,19.113-.416Q1013.282,501.649,1025.274,500.176Z" transform="translate(74.502 0.358)" opacity="0.1"/>
    <path id="Path_8356" data-name="Path 8356" d="M991.244,526.6c-57.823,0-127.419-10.674-198.509-30.6-79.228-22.205-150.909-53.27-201.84-87.469-51.993-34.913-76.374-69.314-68.651-96.868s46.432-44.272,109-47.076l.315,7.043c-29.217,1.309-53.028,5.652-70.77,12.907-17.7,7.237-28.383,17-31.753,29.028s.681,25.92,12.04,41.3c11.387,15.42,29.472,31.5,53.753,47.809C645.15,436.469,716.112,467.2,794.638,489.21c70.475,19.753,139.405,30.338,196.571,30.339q9.8,0,19.109-.417c29.217-1.309,53.028-5.652,70.771-12.907,17.7-7.237,28.383-17,31.753-29.028,6.051-21.591-12.237-49.645-51.5-79l4.222-5.646c20.2,15.1,35.157,29.991,44.449,44.248,9.961,15.285,13.2,29.516,9.613,42.3-7.723,27.553-46.432,44.271-109,47.075C1004.339,526.458,997.864,526.6,991.244,526.6Z" transform="translate(63.906 -22.15)" fill="#f2f2f2"/>
    <circle id="Ellipse_405" data-name="Ellipse 405" cx="2.698" cy="2.698" r="2.698" transform="translate(888.138 121.406)" fill="#f2f2f2"/>
    <circle id="Ellipse_406" data-name="Ellipse 406" cx="2.698" cy="2.698" r="2.698" transform="translate(530.164 236.551)" fill="#f2f2f2"/>
    <circle id="Ellipse_407" data-name="Ellipse 407" cx="2.698" cy="2.698" r="2.698" transform="translate(520.27 418.235)" fill="#f2f2f2"/>
    <circle id="Ellipse_408" data-name="Ellipse 408" cx="1.799" cy="1.799" r="1.799" transform="translate(1071.622 138.495)" fill="#f2f2f2"/>
    <circle id="Ellipse_409" data-name="Ellipse 409" cx="1.799" cy="1.799" r="1.799" transform="translate(1288.384 392.152)" fill="#f2f2f2"/>
    <circle id="Ellipse_410" data-name="Ellipse 410" cx="1.799" cy="1.799" r="1.799" transform="translate(1189.448 309.404)" fill="#f2f2f2"/>
    <circle id="Ellipse_411" data-name="Ellipse 411" cx="1.799" cy="1.799" r="1.799" transform="translate(693.861 178.97)" fill="#f2f2f2"/>
    <circle id="Ellipse_412" data-name="Ellipse 412" cx="1.799" cy="1.799" r="1.799" transform="translate(1183.152 367.868)" fill="#f2f2f2"/>
    <circle id="Ellipse_413" data-name="Ellipse 413" cx="1.799" cy="1.799" r="1.799" transform="translate(542.756 548.654)" fill="#f2f2f2"/>
    <circle id="Ellipse_414" data-name="Ellipse 414" cx="1.799" cy="1.799" r="1.799" transform="translate(649.788 622.407)" fill="#f2f2f2"/>
    <path id="Path_8357" data-name="Path 8357" d="M676.517,41.231h-2.482V38.749H672.7v2.482h-2.483v1.332H672.7v2.482h1.331V42.563h2.482Z" transform="translate(130.671 7.555)" fill="#f2f2f2"/>
    <path id="Path_8358" data-name="Path 8358" d="M900.817,553.055h-2.483v-2.482H897v2.482h-2.482v1.332H897v2.482h1.331v-2.482h2.483Z" transform="translate(174.403 107.344)" fill="#f2f2f2"/>
    <path id="Path_8359" data-name="Path 8359" d="M1040.068,522.195h-2.486v-2.482h-1.338v2.482h-2.474v1.332h2.474v2.482h1.338v-2.482h2.486Z" transform="translate(201.552 101.327)" fill="#f2f2f2"/>
    <circle id="Ellipse_415" data-name="Ellipse 415" cx="19.787" cy="19.787" r="19.787" transform="translate(868.351 200.573)" fill="#3f3d56"/>
    <circle id="Ellipse_416" data-name="Ellipse 416" cx="19.787" cy="19.787" r="19.787" transform="translate(716.346 345.382)" fill="#3f3d56"/>
    <circle id="Ellipse_417" data-name="Ellipse 417" cx="19.787" cy="19.787" r="19.787" transform="translate(934.908 544.156)" fill="#3f3d56"/>
    <circle id="Ellipse_418" data-name="Ellipse 418" cx="19.787" cy="19.787" r="19.787" transform="translate(868.351 375.962)" fill="#3f3d56"/>
    <circle id="Ellipse_419" data-name="Ellipse 419" cx="19.787" cy="19.787" r="19.787" transform="translate(726.241 484.794)" fill="#3f3d56"/>
    <circle id="Ellipse_420" data-name="Ellipse 420" cx="19.787" cy="19.787" r="19.787" transform="translate(974.483 269.83)" fill="#3f3d56"/>
    <circle id="Ellipse_421" data-name="Ellipse 421" cx="19.787" cy="19.787" r="19.787" transform="translate(1040.142 403.844)" fill="#3f3d56"/>
    <circle id="Ellipse_422" data-name="Ellipse 422" cx="26.084" cy="26.084" r="26.084" transform="translate(862.055 283.321)" fill="#fff"/>
    <path id="Path_8360" data-name="Path 8360" d="M780.749,289.015a36.877,36.877,0,0,0-36.877,36.877c0,20.366,36.877,87.245,36.877,87.245s36.877-66.878,36.877-87.245A36.877,36.877,0,0,0,780.749,289.015Zm0,54.865a17.089,17.089,0,1,1,17.089-17.089,17.089,17.089,0,0,1-17.089,17.089Z" transform="translate(107.39 -17.387)" fill="#ff6584"/>
    <circle id="Ellipse_423" data-name="Ellipse 423" cx="26.084" cy="26.084" r="26.084" transform="translate(719.945 394.85)" fill="#fff"/>
    <path id="Path_8361" data-name="Path 8361" d="M661.825,382.348a36.877,36.877,0,0,0-36.877,36.877c0,20.366,36.877,87.245,36.877,87.245S698.7,439.591,698.7,419.225a36.877,36.877,0,0,0-36.877-36.877Zm0,54.865a17.089,17.089,0,1,1,17.089-17.089,17.089,17.089,0,0,1-17.089,17.089Z" transform="translate(84.203 0.81)" fill="#ff6584"/>
    <circle id="Ellipse_424" data-name="Ellipse 424" cx="26.084" cy="26.084" r="26.084" transform="translate(1033.846 313.902)" fill="#fff"/>
    <path id="Path_8362" data-name="Path 8362" d="M924.511,314.606a36.877,36.877,0,0,0-36.877,36.877c0,20.366,36.877,87.245,36.877,87.245s36.877-66.878,36.877-87.245a36.877,36.877,0,0,0-36.877-36.877Zm0,54.865A17.089,17.089,0,1,1,941.6,352.382a17.089,17.089,0,0,1-17.089,17.089Z" transform="translate(135.419 -12.397)" fill="#ff6584"/>
    <circle id="Ellipse_425" data-name="Ellipse 425" cx="26.084" cy="26.084" r="26.084" transform="translate(862.055 107.932)" fill="#fff"/>
    <path id="Path_8363" data-name="Path 8363" d="M780.749,142.242a36.877,36.877,0,0,0-36.877,36.877c0,20.367,36.877,87.245,36.877,87.245s36.877-66.878,36.877-87.245a36.877,36.877,0,0,0-36.877-36.877Zm0,54.865a17.089,17.089,0,1,1,17.089-17.089,17.089,17.089,0,0,1-17.089,17.089Z" transform="translate(107.39 -46.003)" fill="#ff6584"/>
    <circle id="Ellipse_426" data-name="Ellipse 426" cx="26.084" cy="26.084" r="26.084" transform="translate(928.612 454.212)" fill="#fff"/>
    <path id="Path_8364" data-name="Path 8364" d="M836.447,432.025A36.877,36.877,0,0,0,799.57,468.9c0,20.366,36.877,87.245,36.877,87.245s36.877-66.878,36.877-87.245a36.877,36.877,0,0,0-36.877-36.877Zm0,54.865A17.089,17.089,0,1,1,853.536,469.8a17.089,17.089,0,0,1-17.089,17.089Z" transform="translate(118.249 10.496)" fill="#ff6584"/>
    <circle id="Ellipse_427" data-name="Ellipse 427" cx="26.084" cy="26.084" r="26.084" transform="translate(710.05 253.639)" fill="#fff"/>
    <path id="Path_8365" data-name="Path 8365" d="M653.545,264.177a36.877,36.877,0,0,0-36.877,36.877c0,20.366,36.877,87.245,36.877,87.245s36.877-66.878,36.877-87.245A36.877,36.877,0,0,0,653.545,264.177Zm0,54.865a17.089,17.089,0,1,1,17.089-17.089,17.089,17.089,0,0,1-17.089,17.089Z" transform="translate(82.589 -22.229)" fill="#ff6584"/>
    <circle id="Ellipse_428" data-name="Ellipse 428" cx="26.084" cy="26.084" r="26.084" transform="translate(968.187 180.786)" fill="#fff"/>
    <path id="Path_8366" data-name="Path 8366" d="M869.565,203.209a36.877,36.877,0,0,0-36.877,36.877c0,20.366,36.877,87.245,36.877,87.245s36.877-66.878,36.877-87.245a36.877,36.877,0,0,0-36.877-36.877Zm0,54.865a17.089,17.089,0,1,1,17.089-17.089,17.089,17.089,0,0,1-17.089,17.089Z" transform="translate(124.706 -34.116)" fill="#ff6584"/>
    <path id="Path_8367" data-name="Path 8367" d="M527.412,825.688c0,12.787-111.014,23.152-247.956,23.152S31.5,838.475,31.5,825.688s102.067-41.481,239.009-41.481S527.412,812.9,527.412,825.688Z" transform="translate(-31.5 79.16)" fill="#3f3d56"/>
    <rect id="Rectangle_1620" data-name="Rectangle 1620" width="97.321" height="80.542" transform="translate(164.175 153.532)" fill="#2f2e41"/>
    <path id="Path_8368" data-name="Path 8368" d="M281.253,692.495l8.4,32.2-22.4,3.5-10.5-33.6Z" transform="translate(50.058 135.014)" fill="#a0616a"/>
    <path id="Path_8369" data-name="Path 8369" d="M148.153,688.394v34.3h-23.8l3.5-34.3Z" transform="translate(24.245 134.215)" fill="#a0616a"/>
    <path id="Path_8370" data-name="Path 8370" d="M294.049,779.363s16.8-7.7,26.6,0,14.7,25.2,14.7,25.2,25.2,32.2-4.2,30.8-30.8-4.9-30.8-9.8,1.4-10.5-3.5-12.6-7-11.9-5.6-14.7S294.049,779.363,294.049,779.363Z" transform="translate(19.06 77.548)" fill="#2f2e41"/>
    <path id="Path_8371" data-name="Path 8371" d="M187.007,775.362s-23.1-14.778-28-3.189-11.9,26.291-11.9,26.291-19.6,30.8,4.9,31.5,28.7-2.8,30.8-9.1,0-11.2,4.2-11.2,6.3-9.1,4.2-13.3S187.007,775.362,187.007,775.362Z" transform="translate(-10.408 75.949)" fill="#2f2e41"/>
    <path id="Path_8372" data-name="Path 8372" d="M249.338,230.334s-5.6,31.5,9.1,33.6,29.4,8.4,30.1,12.6-57.4,49-57.4,49l-35.7-11.2s-35.7-9.1-34.3-16.1,4.2-16.8,4.2-16.8,40.6-8.4,41.3-21,5.6-32.9,5.6-32.9Z" transform="translate(-6.234 -29.374)" fill="#a0616a"/>
    <path id="Path_8373" data-name="Path 8373" d="M249.338,230.334s-5.6,31.5,9.1,33.6,29.4,8.4,30.1,12.6-57.4,49-57.4,49l-35.7-11.2s-35.7-9.1-34.3-16.1,4.2-16.8,4.2-16.8,40.6-8.4,41.3-21,5.6-32.9,5.6-32.9Z" transform="translate(-6.234 -29.374)" opacity="0.1"/>
    <path id="Path_8374" data-name="Path 8374" d="M163.129,395.427s25.357,24.215,75.683,21.908,46.127,15.194,46.127,15.194l-2.1,28s26.6,116.909,23.1,178.514c0,0,1.4,29.4,11.2,45.5s36.4,135.11,32.2,144.211-35,5.6-35,5.6-28.7-108.508-42.7-133.011-15.4-38.5-15.4-38.5l-47.6-138.611-6.3,60.2s.7,47.6.7,51.8-.7,37.8-3.5,44.8-13.3,119.009-7,137.911-32.9,8.4-32.9,8.4-11.9-121.809-8.4-145.612-5.6-66.505-5.6-66.505-26.6-130.21-11.9-151.211c0,0,9.8-71.406,14.7-70.705Z" transform="translate(-12.433 2.95)" fill="#2f2e41"/>
    <circle id="Ellipse_429" data-name="Ellipse 429" cx="38.503" cy="38.503" r="38.503" transform="translate(184.649 139.006)" fill="#a0616a"/>
    <path id="Path_8375" data-name="Path 8375" d="M135.96,443.2c.714,2.142,9.066-2.268,17.088-7.106,7.715-4.648,15.114-9.7,15.114-9.7,8.4,26.6,61.6,16.1,61.6,16.1s.133.189.378.525c1.757,2.387,9.339,12.342,18.523,19.076,10.5,7.7,35-10.5,35-10.5s38.1-91.237,42.97-139.569c1.071-10.634.539-19.2-2.366-24.243-16.1-28-38.755-24.474-38.755-24.474-3.759,9.836-34.051,24.474-34.051,24.474l-30.1,5.6c-30.1,5.6-39.2-25.9-39.2-25.9-8.4-1.4-23.8,14-23.8,14-14.7,4.2-22.4,53.2-22.4,53.2s1.463,1.82,3.745,4.725c1.288,1.631,2.835,3.605,4.529,5.8.588.756,1.19,1.54,1.806,2.338,7.764,10.123,17.571,23.431,20.022,29.143,4.2,9.8-4.2,24.5-14,23.8S134.561,439,135.96,443.2Z" transform="translate(-11.166 -22.425)" fill="#6c63ff"/>
    <path id="Path_8376" data-name="Path 8376" d="M226.7,449.12s-32.9,41.3-47.6,26.6,42.7-49,42.7-49Z" transform="translate(-3.194 9.461)" fill="#a0616a"/>
    <path id="Path_8377" data-name="Path 8377" d="M152.591,434.92s28.7,43.4,12.6,44.8-35.7-28.7-35.7-28.7Z" transform="translate(-12.395 11.06)" fill="#a0616a"/>
    <path id="Path_8378" data-name="Path 8378" d="M146.212,281.265c3.693-8.149,8.656-15.8,11.021-24.425,2.834-10.342,1.731-21.284,1.393-32-.3-9.475.035-19.059,2.4-28.239s6.887-17.989,13.959-24.3c18.034-16.1,51.038-17.255,73.058-10.553,8.681,2.642,17.929,7.673,20.081,16.489.325,1.331.471,2.7.834,4.023,1.8,6.563,8.517,10.716,10.94,17.077,3.133,8.227-1.7,17.174-2.33,25.955-.737,10.252,4.3,19.936,9.269,28.934,2.953,5.349,6.023,11.047,5.73,17.15a21.667,21.667,0,0,1-2.965,9.454c-5.957,10.612-18.118,17.039-30.284,17.359-3.95.1-8.089-.437-11.343-2.678-5.374-3.7-6.948-11.152-5.828-17.58s4.382-12.242,6.939-18.245c.785-1.842,1.493-3.715,2.145-5.608a38.507,38.507,0,1,0-25.4,4.308,52.162,52.162,0,0,1-2.526,29c-2.966,7.622-7.592,14.465-12.179,21.236-2.193,3.237-4.475,6.562-7.759,8.683a27.53,27.53,0,0,1-6.61,2.823c-9.72,3.126-19.955,5.641-30.068,4.235s-20.128-7.506-23.574-17.117C140.094,298.825,142.52,289.414,146.212,281.265Z" transform="translate(-10.005 -42.952)" fill="#2f2e41"/>
    <ellipse id="Ellipse_430" data-name="Ellipse 430" cx="42.003" cy="23.802" rx="42.003" ry="23.802" transform="translate(178.349 129.906)" fill="#2f2e41"/>
    <path id="Path_8379" data-name="Path 8379" d="M214.752,438.9c1.757,2.387,9.339,12.342,18.523,19.076,10.5,7.7,35-10.5,35-10.5s38.1-91.238,42.969-139.569a216.23,216.23,0,0,0-9.366-23.543l8.051,32.552s-36.053,29.052-43.753,40.953-.7,51.8,0,58.1-14,8.4-21,7.7-8.4,5.6-14.7,5.6C227.429,429.271,220.8,434,214.752,438.9Z" transform="translate(4.228 -18.294)" opacity="0.1"/>
    <path id="Path_8380" data-name="Path 8380" d="M299.242,284.36h10.5s25.9,52.5,23.1,112.009-31.5,83.306-64.4,91.007-47.6,12.6-51.8,7.7-6.3-45.5-6.3-45.5,21.7-20.3,28-20.3,7.7-6.3,14.7-5.6,21.7-1.4,21-7.7-7.7-46.2,0-58.1S299.242,284.36,299.242,284.36Z" transform="translate(3.367 -18.294)" fill="#6c63ff"/>
    <path id="Path_8381" data-name="Path 8381" d="M139.068,327.407c1.288,1.631,2.835,3.605,4.529,5.8l-4.074-8.422S139.355,325.734,139.068,327.407Z" transform="translate(-10.528 -10.413)" opacity="0.1"/>
    <path id="Path_8382" data-name="Path 8382" d="M135.96,430.048c.714,2.142,9.066-2.268,17.088-7.106-.084-.42-.175-.854-.287-1.3-2.1-8.4,12.6-28.7,12.6-28.7l9.8-26.6-2.1-35.7L146.041,334.4c7.764,10.123,17.571,23.431,20.022,29.143,4.2,9.8-4.2,24.5-14,23.8S134.561,425.849,135.96,430.048Z" transform="translate(-11.166 -9.271)" opacity="0.1"/>
    <path id="Path_8383" data-name="Path 8383" d="M153.775,311.308l-14,14s-9.8,56.7-9.8,60.2-16.8,25.9-12.6,41.3,7,35.7,3.5,39.9-8.4,16.1,0,21.7,18.9-32.2,44.1-22.4c0,0-15.4-24.5-14.7-26.6s4.2-7.7,2.1-16.1,12.6-28.7,12.6-28.7l9.8-26.6-2.1-35.7Z" transform="translate(-14.98 -13.04)" fill="#6c63ff"/>
  </g>
</svg>
