<svg xmlns="http://www.w3.org/2000/svg" xmlns:xlink="http://www.w3.org/1999/xlink" width="2118" height="1080" viewBox="0 0 2118 1080">
  <defs>
    <linearGradient id="linear-gradient" x1="1" y1="0.017" x2="0.02" y2="1" gradientUnits="objectBoundingBox">
      <stop offset="0" stop-color="#1769ff"/>
      <stop offset="1" stop-color="#45aff7"/>
    </linearGradient>
  </defs>
  <g id="Rectangle_1573" data-name="Rectangle 1573" stroke="#707070" stroke-width="1" fill="url(#linear-gradient)">
    <rect width="2118" height="1080" stroke="none"/>
    <rect x="0.5" y="0.5" width="2117" height="1079" fill="none"/>
  </g>
  <g id="Group_3615" data-name="Group 3615" transform="translate(391.327 193.637)" opacity="0.5">
    <rect id="Rectangle_1574" data-name="Rectangle 1574" width="670.184" height="883.119" transform="translate(69.403)" fill="#3f3d56"/>
    <rect id="Rectangle_1575" data-name="Rectangle 1575" width="470.697" height="31.38" transform="translate(168.025 221.9)" fill="#fff"/>
    <rect id="Rectangle_1576" data-name="Rectangle 1576" width="302.592" height="15.69" transform="translate(275.613 109.829)" fill="#6c63ff"/>
    <rect id="Rectangle_1577" data-name="Rectangle 1577" width="470.697" height="31.38" transform="translate(168.025 291.384)" fill="#fff"/>
    <rect id="Rectangle_1578" data-name="Rectangle 1578" width="470.697" height="31.38" transform="translate(168.025 360.869)" fill="#fff"/>
    <circle id="Ellipse_395" data-name="Ellipse 395" cx="29.138" cy="29.138" r="29.138" transform="translate(163.542 87.415)" fill="#6c63ff"/>
    <rect id="Rectangle_1579" data-name="Rectangle 1579" width="475.181" height="289.142" transform="translate(163.543 477.422)" fill="#6c63ff"/>
    <path id="Path_8215" data-name="Path 8215" d="M927.551,713.69a15.69,15.69,0,0,0-22.211,22.167l22.167,22.21,22.21-22.167a15.69,15.69,0,0,0-22.167-22.21Z" transform="translate(391.471 123.958)" fill="#ff6582"/>
    <path id="Path_8216" data-name="Path 8216" d="M980,761.4l-23.512-23.557a17.594,17.594,0,0,1,23.561-26.073,17.593,17.593,0,0,1,23.508,26.119Zm-11.06-49.766a13.78,13.78,0,0,0-9.757,23.52L980,756.015l20.866-20.824a13.787,13.787,0,0,0-9.726-23.545h-.015a13.7,13.7,0,0,0-9.739,4.028l-1.346,1.345-1.346-1.347a13.744,13.744,0,0,0-9.759-4.041Z" transform="translate(417.008 123.32)" fill="#2f2e41"/>
    <rect id="Rectangle_1580" data-name="Rectangle 1580" width="1679.319" height="3.01" transform="translate(0 881.614)" fill="#2f2e41"/>
    <path id="Path_8217" data-name="Path 8217" d="M655,550.653l-2.3,30.64-46.725-15.32,19.15-22.979Z" transform="translate(305.876 274.085)" fill="#9e616a"/>
    <path id="Path_8218" data-name="Path 8218" d="M766.207,544.551l-2.3,29.873-26.043,3.831L722.546,563.7l17.618-28.342Z" transform="translate(364.717 270.231)" fill="#9e616a"/>
    <path id="Path_8219" data-name="Path 8219" d="M882.905,446.324s20.682,24.512-5.362,62.045-57.449,74.3-57.449,74.3l-58.215,110.3S732,800.98,725.11,804.043s-10.724-9.192-6.894,3.83,1.532,12.256-1.532,13.022-11.49-.766-8.426,4.6,5.362,5.362-.766,5.362-8.426-3.83-8.426,1.532S693.7,850,693.7,850s-37.534-10.724-39.066-15.32,9.958-6.894,7.66-11.49-3.064-4.6-3.064-11.49,4.6-8.426,4.6-8.426,3.83-1.532,2.3-4.6-7.66-1.532,0-5.362,39.066-121.027,39.066-121.027,0-58.215,9.958-77.365,2.3-155.5,26.044-157.028S882.905,446.324,882.905,446.324Z" transform="translate(267.168 -13.008)" fill="#2f2e41"/>
    <path id="Path_8220" data-name="Path 8220" d="M825.607,472.46l-4.6,118.729s22.98,114.9,15.32,150.135-2.3,30.64-6.894,36.768-8.426,3.064-4.6,8.426,6.128,6.894,0,13.022-9.192,20.682-9.192,20.682l-39.066-3.83s9.958-17.618,6.128-21.448-13.788,2.3-6.128-6.128,12.256-4.6,7.66-8.426-11.49-2.3-5.362-8.426,13.022-6.128,6.894-8.426-13.022,0-9.958-4.6,6.894-9.958,6.894-9.958l-9.192-69.705s-10.724-22.98-7.66-32.938-13.022-91.919-13.022-91.919Z" transform="translate(316.807 4.518)" fill="#2f2e41"/>
    <path id="Path_8221" data-name="Path 8221" d="M820.665,715.363s7.66-7.66,9.958-3.064,19.15,45.96,9.192,49.024-24.512,6.128-32.172,3.83-23.746-13.022-42.9-13.022-35.236-8.426-35.236-11.49-3.064-21.448,11.49-21.448,41.364-16.852,41.364-16.852,6.128-12.256,9.192-11.49.766,25.278.766,25.278S809.941,732.981,820.665,715.363Z" transform="translate(304.897 114.738)" fill="#2f2e41"/>
    <path id="Path_8222" data-name="Path 8222" d="M715.958,724.575s6.894-16.852,13.788-13.022,2.3,51.322,2.3,51.322-6.128,9.958-23.746,7.66-64.343-7.66-75.067-5.362-39.832-10.724-32.172-28.342c0,0,3.83-9.958,22.214-9.192s52.088-21.448,52.088-21.448,5.362-15.32,6.894-13.788,3.064,28.342,3.064,28.342S705.233,733.766,715.958,724.575Z" transform="translate(239.554 115.484)" fill="#2f2e41"/>
    <circle id="Ellipse_396" data-name="Ellipse 396" cx="44.428" cy="44.428" r="44.428" transform="translate(1011.429 44.958)" fill="#9e616a"/>
    <path id="Path_8223" data-name="Path 8223" d="M783.629,216.92s23.746,47.492,32.172,52.088-57.449,32.938-57.449,32.938-10.724-46.726-23.746-56.683S783.629,216.92,783.629,216.92Z" transform="translate(306.697 -124.47)" fill="#9e616a"/>
    <path id="Path_8224" data-name="Path 8224" d="M730.477,476.29,727.412,505.4s-32.938-11.49-22.214-32.938Z" transform="translate(291.677 4.518)" fill="#9e616a"/>
    <path id="Path_8225" data-name="Path 8225" d="M716.052,540.552c22.979,24.506,144.767,3.823,144.767,3.823l-1.526-17.616,15.319-16.075-4.593-75.072s13.779-35.232,16.075-88.851a48.313,48.313,0,0,0-.593-9.853c-7.9-48.033-86.11-78.969-88.258-78.243-1.082.356-12.594,6.356-24.609,12.668-13.794,7.245-28.239,14.9-28.239,14.9-18.387,6.9-15.319,117.209-21.453,127.165s0,44.418,0,44.418l-6.889,32.936S693.073,516.047,716.052,540.552Z" transform="translate(293.084 -103.405)" fill="#f0f0f0"/>
    <path id="Path_8226" data-name="Path 8226" d="M784.181,285.183s21.448,64.343,16.852,108.005-54.385,168.519-54.385,168.519L729.8,570.9v21.448l-11.853-32.106,32.595-68.153S709.88,256.841,784.181,285.183Z" transform="translate(299.193 -91.209)" opacity="0.1"/>
    <path id="Path_8227" data-name="Path 8227" d="M748.593,278.073c22.224-12.253,55.93,19.927,91.163,54.389,12.653,12.371,19.972,11.127,24.164,4.445-7.9-48.033-86.109-78.969-88.258-78.243-1.082.356-12.594,6.356-24.609,12.668Z" transform="translate(314.664 -103.405)" opacity="0.1"/>
    <path id="Path_8228" data-name="Path 8228" d="M748.6,280.556l9.192-25.278s62.811-29.874,104.175,0l6.894,42.9s6.128,71.237-29.108,36.768S770.811,268.3,748.6,280.556Z" transform="translate(314.667 -111.81)" fill="#f0f0f0"/>
    <path id="Path_8229" data-name="Path 8229" d="M790.536,278.246s21.448,64.343,16.852,108.005S753,554.77,753,554.77l-16.852,9.192v21.448l-35.236-9.958,7.66-25.278s-12.256-15.32-3.83-19.916,6.894-29.874,6.894-29.874S716.235,249.9,790.536,278.246Z" transform="translate(290.598 -94.643)" fill="#f0f0f0"/>
    <path id="Path_8230" data-name="Path 8230" d="M800.247,257.973c-.726-3.434-.627-7.128-2.273-10.227-2.469-4.647-8.142-6.594-13.385-7.05-6.692-.583-13.436.576-20.138.117s-13.862-3.013-17.2-8.844c-1.331-2.327-1.987-5.064-3.753-7.081-3.674-4.2-10.37-3.546-15.65-1.748s-10.786,4.426-16.183,3.019c-4.538-12.7,1.05-27.344,10.715-36.746s22.7-14.461,35.647-18.232c17.076-4.974,36.292-7.914,51.992.443,22.766,12.118,30.8,44.189,28.7,68.094-.794,9.036-2.093,19.268-9.4,25.369C818.618,274.029,803.479,273.262,800.247,257.973Z" transform="translate(295.217 -149.989)" fill="#2f2e41"/>
  </g>
</svg>
