<svg xmlns="http://www.w3.org/2000/svg" xmlns:xlink="http://www.w3.org/1999/xlink" width="197.402" height="154.459" viewBox="0 0 197.402 154.459">
  <defs>
    <linearGradient id="linear-gradient" y1="0.5" x2="1" y2="0.5" gradientUnits="objectBoundingBox">
      <stop offset="0" stop-color="gray" stop-opacity="0.251"/>
      <stop offset="0.54" stop-color="gray" stop-opacity="0.122"/>
      <stop offset="1" stop-color="gray" stop-opacity="0.102"/>
    </linearGradient>
  </defs>
  <g id="Group_3572" data-name="Group 3572" transform="translate(0.004 -0.003)">
    <ellipse id="Ellipse_255" data-name="Ellipse 255" cx="34.434" cy="6.523" rx="34.434" ry="6.523" transform="translate(34.808 138.424)" fill="#3381b6" opacity="0.1"/>
    <path id="Path_422" data-name="Path 422" d="M209.918,76.815c-12.655-.438-24.708-4.525-36.217-8.995S150.792,58.4,138.44,56.032c-7.945-1.523-17.031-1.74-23.431,2.515-6.161,4.106-8.152,11.175-9.221,17.739-.806,4.939-1.279,10.139.927,14.763,1.533,3.211,4.251,5.909,6.132,8.985,6.545,10.7,1.918,23.894-5.172,34.342-3.324,4.9-7.186,9.581-9.753,14.792s-3.754,11.2-1.508,16.533c2.225,5.279,7.53,9.237,13.277,12.023,11.672,5.661,25.42,7.28,38.835,8.2,29.688,2.03,59.533,1.152,89.3.27,11.016-.325,22.08-.655,32.916-2.358,6.019-.946,12.231-2.448,16.6-6.073a13.9,13.9,0,0,0,3.2-18.159c-6.234-9.679-23.464-12.082-27.827-22.467-2.4-5.717.065-12.084,3.551-17.385,7.477-11.374,20.009-21.352,20.668-34.352.454-8.928-5.571-17.87-14.886-22.1-9.763-4.429-23.3-3.872-30.5,3.459C234.127,74.3,221.093,77.2,209.918,76.815Z" transform="translate(-95.23 -55.03)" fill="#3793d1" opacity="0.1"/>
    <path id="Path_423" data-name="Path 423" d="M379.147,203.084l-5.989-4.038h0l3.021-4.5-15.819-1.261-5.684,4.4-7.116-3.989-5.935.714-.07-1.564a44.151,44.151,0,0,0-.491-4.869c.025-.489.043-1.05.041-1.66,0-2.571-.348-5.979-1.877-8.252l.352-3.164-2.855-3.373a21.582,21.582,0,0,1,1.564-2.632c.1-.141.2-.278.3-.411a7.1,7.1,0,0,0,6.629-7.039,4.5,4.5,0,0,0-.02-.514,1.872,1.872,0,0,0-.021-.207c.362.2.727.391,1.093.587.068.1.147.2.233.311h0l.018.021.109.135.035.041c.039.047.08.092.121.139l.027.031c.1.115.213.233.33.348a.349.349,0,0,1,.039.037l.147.137.041.037c.125.111.258.219.391.321l.043.031.168.115.055.035c.065.039.131.08.2.117l.023.014c.076.041.154.08.233.117l.039.016.2.082.061.022c.068.023.135.045.205.065l.043.012c.086.022.172.039.26.053h.01a2.127,2.127,0,0,0,.25.025h.057a2.15,2.15,0,0,0,.225,0h.049a2.314,2.314,0,0,0,.28-.033,3.085,3.085,0,0,0,1.232-.442,1.075,1.075,0,0,0,.25-.233.922.922,0,0,0-.039-1.074h0c-.153-.364-1.142-.62-1.142-.62s-3.129-1.306-3.129-2.346-.782-6.437-8.856-7.671c0,0-5.252-.3-6.728,2.517l-.031.328c-.434.272-.794.817-1.222.978a2,2,0,0,0-.53.2v-.037h0a.5.5,0,0,0-.119.154,1.564,1.564,0,0,0-.162.587,2.211,2.211,0,0,1-.256.71,1.587,1.587,0,0,1-.117.18h0l-.033.053a1.427,1.427,0,0,0,.665-.108,3.31,3.31,0,0,1-.2.782.649.649,0,0,0,.6-.36v-.016l.025-.035a1.653,1.653,0,0,0,.121-.284l-.022.023c.039-.127.074-.256.117-.381a.6.6,0,0,1,.1-.2.473.473,0,0,1,.4-.135l-.08,1.7h.035a2.32,2.32,0,0,1-.172.356c-.278.45-.782.757-.968,1.249a1.839,1.839,0,0,0-.09.739c0,.147.018.3.029.442v-.012a1.649,1.649,0,0,1-.176,1.077c-.145.215-.377.377-.458.622a.607.607,0,0,0-.029.211,2.372,2.372,0,0,0,.133.628.027.027,0,0,0,0-.012.954.954,0,0,1,.033.461c-.088.391-.563.718-.54,1.091a.42.42,0,0,0,.022.145.792.792,0,0,0,.442.391,1.721,1.721,0,0,0,.993.219,1.306,1.306,0,0,0,.371-.127c-.137.315-.278.626-.42.921-.021.047-.045.094-.068.141,0,0-1.208-.808-1.895.839a3.653,3.653,0,0,0-.424,1.1,2.624,2.624,0,0,1-.145.454,2.919,2.919,0,0,1-1.306,1.173c-1.4.641-7.055,7.694-7.155,9.521a10.656,10.656,0,0,1-.36,2.108,12.543,12.543,0,0,0-.336,4.984,9.532,9.532,0,0,0,.346,1.59,35.62,35.62,0,0,1,1,5.229l.649,5.909a16.82,16.82,0,0,0,.106,2.442c-.663.757-3.324,3.911-2.307,4.769a3.752,3.752,0,0,0,2.919.426,24.847,24.847,0,0,0-1.8,6.3c-.2,2.829.334,6.578,1.173,8.017s3.635,5.131,3.635,5.131-.131,5.064.868,6.9a20.129,20.129,0,0,1,1.4,5.657s.933,3.222.465,4.407.866,2.17-.534,2.958-3.191,18.548-3.191,18.548-.721,11.64,0,12.233a.738.738,0,0,0,.123.072v3.911s-.5.821,1.535.987c1.394.111,5.346.364,7.69.51l1.816.113s4.3.856,6.2,0,5.27-.837,4.769-3.1a6.437,6.437,0,0,0-.266-.905c-.549-1.4-1.482-1.564-3.2-1.955-.1-.021-.2-.041-.284-.057-1.811-.315-2.405.528-3.42-.569-.882-.948-3.69-2.01-4.646-2.346.023-.07.053-.139.076-.211a1.431,1.431,0,0,1-.725-.354l2.591.164,1.543.1s3.657.729,5.279,0,4.478-.71,4.051-2.632a5.518,5.518,0,0,0-.225-.77c-.467-1.193-1.261-1.324-2.722-1.654-.084-.018-.162-.035-.241-.049-1.539-.268-2.043.448-2.906-.483a13.368,13.368,0,0,0-3.911-1.987c0-.434-.587-1.052-.956-1.672-.434-.723.368-3.256.368-3.256l.458-10.506a2.029,2.029,0,0,1,.548-.156s2.069-1.975,1.6-4.079a13.531,13.531,0,0,1-.149-1.922,9.873,9.873,0,0,0,1.883-2.139c.434-.937,0-5.475,0-5.475V219.272l3.461.35,3.14.323.956.1,3.14.317,7.217.729,6.5-1.232,2.814-.532,5.786-1.095V204.073Zm-47.634-46.911-.4-.043C331.243,156.136,331.384,156.161,331.513,156.173Z" transform="translate(-274.516 -132.348)" fill="url(#linear-gradient)"/>
    <path id="Path_424" data-name="Path 424" d="M496.166,434.634c-1.955,2.8-8.985,1.316-8.985,1.316l-5.448-5.1-.733-.69,1.23-2.612s.391.108,1.062.3C486.813,428.872,497.816,432.282,496.166,434.634Z" transform="translate(-405.572 -354.706)" fill="#efb7b9"/>
    <path id="Path_425" data-name="Path 425" d="M483.288,427.849a11.471,11.471,0,0,1-1.554,3l-.733-.69,1.23-2.612S482.625,427.658,483.288,427.849Z" transform="translate(-405.572 -354.706)" opacity="0.1"/>
    <path id="Path_426" data-name="Path 426" d="M377.469,278.082s-5.021,2.227-4.775,7.7a90.176,90.176,0,0,0,1.15,10.512s-1.027,8.23,3.248,10.352,8.23,3.866,8.23,3.866,6.687.72,7.518,1.017,3.428-4.247,2.949-4.955-6.617-2.192-7.4-3.373a6.529,6.529,0,0,0-2.591-1.91s-1.867-1.13-1.994-2.151a4.643,4.643,0,0,1,.491-2.229c.125-.448.442-4.771.442-4.771S386.845,276.746,377.469,278.082Z" transform="translate(-318.436 -234.399)" fill="#dce6f2"/>
    <path id="Path_427" data-name="Path 427" d="M388.315,370.39s-6.889,1.154-6.222,3.565A14.6,14.6,0,0,1,388.315,370.39Z" transform="translate(-325.968 -308.723)" opacity="0.1"/>
    <path id="Path_428" data-name="Path 428" d="M401.441,375.38s-3.788,3.091-3.046,3.25S401.441,375.38,401.441,375.38Z" transform="translate(-339.041 -312.738)" opacity="0.1"/>
    <path id="Path_429" data-name="Path 429" d="M421.237,380.89s-1.015,2.079-.391,1.938S421.237,380.89,421.237,380.89Z" transform="translate(-357.017 -317.17)" opacity="0.1"/>
    <path id="Path_430" data-name="Path 430" d="M397.445,308.663l-.418-.119a1.2,1.2,0,0,0,.055-.854c-.479-.708-6.613-2.19-7.393-3.373a6.494,6.494,0,0,0-2.591-1.91s-1.867-1.13-1.995-2.151a4.644,4.644,0,0,1,.491-2.229c.125-.448.442-4.773.442-4.773s2.1-15.387-7.274-14.051c0,0-5.021,2.229-4.777,7.7a89.918,89.918,0,0,0,1.152,10.512s-1.027,8.23,3.248,10.352,8.23,3.866,8.23,3.866,6.685.718,7.518,1.017c.315.113.884-.471,1.441-1.275l.317.3,5.448,5.1s7.029,1.484,8.985-1.314C411.975,313.094,400.974,309.684,397.445,308.663Z" transform="translate(-319.474 -235.3)" opacity="0.1"/>
    <path id="Path_431" data-name="Path 431" d="M377.527,168.813a1.661,1.661,0,0,0-.542.209c-.2.162-.2.44-.244.682a2.244,2.244,0,0,1-.391.935,1.406,1.406,0,0,0,.651-.108,3.351,3.351,0,0,1-.2.782.634.634,0,0,0,.587-.358,3.768,3.768,0,0,0,.244-.686.565.565,0,0,1,.094-.2c.18-.213.514-.117.792-.09a1.3,1.3,0,0,0,1.189-.571c.3-.448.313-1.594-.391-1.715C378.585,167.578,378.127,168.59,377.527,168.813Z" transform="translate(-321.384 -145.657)" fill="#965d7b"/>
    <g id="Group_40" data-name="Group 40" transform="translate(54.995 23.314)" opacity="0.1">
      <path id="Path_432" data-name="Path 432" d="M378.229,174.541c.018-.1.029-.2.051-.291h0a1.146,1.146,0,0,0-.244.682,2.155,2.155,0,0,1-.115.413A2.24,2.24,0,0,0,378.229,174.541Z" transform="translate(-377.642 -174.25)"/>
      <path id="Path_433" data-name="Path 433" d="M377.149,180.782a3.255,3.255,0,0,0,.2-.782,1.4,1.4,0,0,1-.62.108,2.262,2.262,0,0,1-.225.391,1.392,1.392,0,0,0,.649-.106,3.249,3.249,0,0,1-.2.782.635.635,0,0,0,.587-.358,1.46,1.46,0,0,0,.117-.28A.587.587,0,0,1,377.149,180.782Z" transform="translate(-376.5 -178.876)"/>
      <path id="Path_434" data-name="Path 434" d="M384.755,175.229c-.278-.027-.614-.123-.794.09a.6.6,0,0,0-.094.2c-.018.051-.033.1-.047.156.186-.147.487-.068.739-.043a1.306,1.306,0,0,0,1.189-.571,1.082,1.082,0,0,0,.131-.307,1.3,1.3,0,0,1-1.124.479Z" transform="translate(-382.389 -174.652)"/>
    </g>
    <path id="Path_435" data-name="Path 435" d="M313.081,201l2.982,3.586-.389,3.619-3.6-5.641Z" transform="translate(-251.053 -161.695)" fill="#dce6f2"/>
    <path id="Path_436" data-name="Path 436" d="M316.061,204.586l-.366,3.4-.023.215-3.252-5.092-.35-.549.1-.158.907-1.406.2.242Z" transform="translate(-251.053 -161.695)" opacity="0.1"/>
    <path id="Path_437" data-name="Path 437" d="M384.812,209.52A5.979,5.979,0,0,0,382,212.009a21.245,21.245,0,0,0-1.517,2.608c-.276.551-.518,1.081-.72,1.543l-.141.329c-.34.8-.53,1.341-.53,1.341s-7.724-5.807-6.5-6.2c.411-.131.95-1.011,1.484-2.12l.066-.141c.338-.712.671-1.506.966-2.253.6-1.535,1.052-2.869,1.052-2.869S387.891,208.64,384.812,209.52Z" transform="translate(-318.255 -175.07)" fill="#efb7b9"/>
    <path id="Path_438" data-name="Path 438" d="M459.26,202.58s1.783,3.226,4.179,2.786,1.41-1.732,1.41-1.732Z" transform="translate(-388.083 -173.726)" fill="#444053"/>
    <path id="Path_439" data-name="Path 439" d="M382.494,742.4c-1.58.722-5.152,0-5.152,0l-1.506-.094c-1.955-.125-5.229-.336-6.386-.43-1.689-.139-1.275-.831-1.275-.831v-4.183l8.2-2.077s3.24,1.109,4.128,2.077c.843.923,1.336.213,2.839.479.074.014.152.029.235.049,1.427.327,2.2.456,2.659,1.639a5.5,5.5,0,0,1,.221.763C386.876,741.7,384.072,741.687,382.494,742.4Z" transform="translate(-314.772 -601.87)" fill="#a36468"/>
    <path id="Path_440" data-name="Path 440" d="M386.233,749.548a6.122,6.122,0,0,1-.923.473c-1.075.491-2.1,1.089-3.185,1.553a7.449,7.449,0,0,1-3.436.706,5.123,5.123,0,0,0-1.834-.02,4.237,4.237,0,0,0-1.019.565c-1.955-.125-5.229-.336-6.386-.43-1.689-.139-1.275-.831-1.275-.831v-.489c.061,0,.129-.018.207-.024a3.694,3.694,0,0,1,1.193.178c.849.231,1.693.458,2.542.684a2.009,2.009,0,0,1,.978-1.247,3.116,3.116,0,0,1,1.576-.362c1.316.018,2.562.641,3.876.7a2.136,2.136,0,0,0,1.073-.18c.18-.09.338-.221.514-.321a3.75,3.75,0,0,1,.886-.3,19.522,19.522,0,0,0,2.532-.817c.235-.092.508-.258.477-.508-.041-.332-.563-.372-.7-.677a.391.391,0,0,1,.016-.346c.074.014.153.029.235.049C385,748.236,385.775,748.365,386.233,749.548Z" transform="translate(-314.772 -612.385)" opacity="0.1"/>
    <path id="Path_441" data-name="Path 441" d="M363.527,783.661c-1.858.849-6.062,0-6.062,0l-1.77-.1c-2.292-.147-6.152-.391-7.514-.506-1.989-.164-1.5-.978-1.5-.978v-4.929l9.646-2.444s3.813,1.3,4.857,2.444c.991,1.085,1.564.25,3.342.563.088.016.18.035.276.057,1.68.391,2.591.538,3.129,1.93a6.271,6.271,0,0,1,.26.9C368.675,782.832,365.385,782.815,363.527,783.661Z" transform="translate(-297.474 -633.976)" fill="#a36468"/>
    <path id="Path_442" data-name="Path 442" d="M367.926,792.107a7.277,7.277,0,0,1-1.085.557c-1.265.577-2.47,1.281-3.748,1.826a8.787,8.787,0,0,1-4.044.831,5.9,5.9,0,0,0-2.151-.024,4.988,4.988,0,0,0-1.2.673c-2.292-.147-6.152-.391-7.514-.506-1.989-.164-1.5-.978-1.5-.978v-.575q.121-.02.244-.027a4.29,4.29,0,0,1,1.4.209l2.99.806a2.366,2.366,0,0,1,1.16-1.469,3.648,3.648,0,0,1,1.856-.426c1.549.022,3.013.755,4.56.829a2.525,2.525,0,0,0,1.259-.209c.213-.108.391-.262.606-.377a4.249,4.249,0,0,1,1.042-.352,23.417,23.417,0,0,0,2.964-.962c.276-.109.6-.305.561-.6-.049-.391-.663-.438-.825-.8a.471.471,0,0,1,.02-.407c.088.016.18.035.276.057C366.478,790.562,367.389,790.715,367.926,792.107Z" transform="translate(-297.474 -646.389)" opacity="0.1"/>
    <path id="Path_443" data-name="Path 443" d="M385.188,647.54l-.522,12.285s-.782,2.509-.358,3.226,1.14,1.433.88,1.858-3.389,5.012-4.4,3.252-2.008-9.386-2.008-9.386l.933-9.419Z" transform="translate(-323.339 -531.681)" fill="#444053"/>
    <path id="Path_444" data-name="Path 444" d="M411.063,491l1.451,1.94v16.871s.424,4.5,0,5.426a14.565,14.565,0,0,1-2.575,2.786l-1.809-9.288.391-9.826Z" transform="translate(-346.95 -405.75)" fill="#444053"/>
    <path id="Path_445" data-name="Path 445" d="M385.188,647.54l-.522,12.285s-.782,2.509-.358,3.226,1.14,1.433.88,1.858-3.389,5.012-4.4,3.252-2.008-9.386-2.008-9.386l.933-9.419Z" transform="translate(-323.339 -531.681)" opacity="0.1"/>
    <path id="Path_446" data-name="Path 446" d="M411.063,491l1.451,1.94v16.871s.424,4.5,0,5.426a14.565,14.565,0,0,1-2.575,2.786l-1.809-9.288.391-9.826Z" transform="translate(-346.95 -405.75)" opacity="0.1"/>
    <path id="Path_447" data-name="Path 447" d="M347.248,434.893v9.126l-1.629,7.1s-.522,17.143-.066,19.227-1.564,4.042-1.564,4.042-1.173.131-1.173,1.042-1.955,3.52-1.955,3.52l.065,5.084s.849,9.517-.456,11.341.456,2.086.456,2.086c-1.629,5.344-9.45,4.106-10.156,3.52s0-12.123,0-12.123,1.748-17.6,3.117-18.38.066-1.76.522-2.933-.456-4.366-.456-4.366a20.123,20.123,0,0,0-1.369-5.606c-.978-1.824-.849-6.844-.849-6.844s-2.737-3.651-3.551-5.084-1.337-5.148-1.142-7.952a24.985,24.985,0,0,1,1.76-6.241c.3-.761.522-1.253.522-1.253l.186.049,10.68,2.8Z" transform="translate(-281.684 -356.838)" fill="#444053"/>
    <path id="Path_448" data-name="Path 448" d="M395.7,209.463a5.978,5.978,0,0,0-2.812,2.489h-.219a6.984,6.984,0,0,1-6.062-3.506,6.878,6.878,0,0,1-.614-1.4c.6-1.535,1.052-2.868,1.052-2.868S398.776,208.583,395.7,209.463Z" transform="translate(-329.139 -175.013)" opacity="0.1"/>
    <path id="Path_449" data-name="Path 449" d="M398.361,177.419a6.99,6.99,0,1,1-13.077-3.426,6.831,6.831,0,0,1,.739-1.068,7.073,7.073,0,0,1,1.607-1.412,6.99,6.99,0,0,1,10.721,5.393C398.355,177.078,398.361,177.249,398.361,177.419Z" transform="translate(-327.844 -147.857)" fill="#efb7b9"/>
    <path id="Path_450" data-name="Path 450" d="M382.9,242.434l-.023.215-3.252-5.084c-.34.8-.53,1.341-.53,1.341s-7.724-5.815-6.5-6.206c.411-.131.95-1.011,1.484-2.12l.066-.141c.567,1.689,3.862,5.066,5.233,6.419.158.156.289.285.391.379l.209.2.109.109C380.582,238.058,382.686,240.326,382.9,242.434Z" transform="translate(-318.255 -196.138)" opacity="0.1"/>
    <path id="Path_451" data-name="Path 451" d="M343.518,259.451l-.356,11.453-.063,2.039s-4.216-.391-8.15-.821a53.07,53.07,0,0,1-6.613-.939,12.446,12.446,0,0,0-2.835-.624c-.767-.1-1.369-.158-1.369-.158s-.225.066-.571.129a3.627,3.627,0,0,1-2.853-.422c-.987-.858,1.607-3.977,2.255-4.726l.143-.162-.244-2.258-.636-5.856a35.73,35.73,0,0,0-.978-5.182,9.565,9.565,0,0,1-.338-1.574,12.607,12.607,0,0,1,.329-4.939,10.774,10.774,0,0,0,.352-2.09c.1-1.809,5.622-8.8,6.99-9.435a2.9,2.9,0,0,0,1.4-1.4,2.668,2.668,0,0,0,.213-.608c.587-2.542,2.071-1.533,2.071-1.533.358,1.989,5.9,7.252,5.9,7.252l.109.11c.549.563,3,3.207,2.824,5.463a6.624,6.624,0,0,0,.37,2.472,41.8,41.8,0,0,1,1.926,10.95Z" transform="translate(-276.444 -195.905)" fill="#dce6f2"/>
    <path id="Path_452" data-name="Path 452" d="M387.566,310.45s-1.369,3.324-2.4,3.862S388.054,315.446,387.566,310.45Z" transform="translate(-328.341 -260.504)" opacity="0.1"/>
    <path id="Path_453" data-name="Path 453" d="M390.509,342.2s-3.129.391-3.129.978S390.509,342.2,390.509,342.2Z" transform="translate(-330.258 -286.045)" opacity="0.1"/>
    <path id="Path_454" data-name="Path 454" d="M395.57,361.7s-4.546,9.679-5.817,9.972S395.57,361.7,395.57,361.7Z" transform="translate(-332.043 -301.732)" opacity="0.1"/>
    <path id="Path_455" data-name="Path 455" d="M376.3,239.659l-3.76,1.635L368,234.438a2.666,2.666,0,0,0,.213-.608c.587-2.542,2.071-1.533,2.071-1.533.358,1.989,5.9,7.252,5.9,7.252Z" transform="translate(-314.667 -197.473)" opacity="0.1"/>
    <path id="Path_456" data-name="Path 456" d="M377.3,237.659l-3.76,1.635L369,232.438a2.664,2.664,0,0,0,.213-.608c.587-2.542,2.071-1.533,2.071-1.533.358,1.989,5.9,7.252,5.9,7.252Z" transform="translate(-315.472 -195.865)" fill="#dce6f2"/>
    <path id="Path_457" data-name="Path 457" d="M351.458,322.564s-4.216-.391-8.15-.821l7.059,1.848v2.151c-.309.28-.577.424-.751.35-.813-.342-7.452-1.418-7.452-1.418s-3.856-1.955-8.017-4.3a3.2,3.2,0,0,1-.293-.184,4.623,4.623,0,0,1-1.232-1.234,8.757,8.757,0,0,1-1.306-3.944,17.059,17.059,0,0,1-.1-2.421,19.85,19.85,0,0,1,.25-2.736,89.956,89.956,0,0,1-.587-10.559c.049-5.475,5.182-7.43,5.182-7.43,9.435-.831,6.509,14.421,6.509,14.421s-.546,4.3-.694,4.742a4.642,4.642,0,0,0-.61,2.2c.072,1.027,1.875,2.255,1.875,2.255a6.583,6.583,0,0,1,2.485,2.047c.528.9,3.958,2.124,5.9,3Z" transform="translate(-284.803 -245.526)" opacity="0.1"/>
    <path id="Path_458" data-name="Path 458" d="M397.6,169.335a2.214,2.214,0,0,1-.2.935,5.78,5.78,0,0,1-.348.7,3.207,3.207,0,0,1-.856,1.064,4.381,4.381,0,0,1-1.564.544,2.264,2.264,0,0,0-1.414.8,2.8,2.8,0,0,0-.331.958,2.061,2.061,0,0,1-.391.927.768.768,0,0,1-.915.219.925.925,0,0,1-.354-.456,6.532,6.532,0,0,1-.37-1.6,3.407,3.407,0,0,0-.549-1.535,1.375,1.375,0,0,0-1.443-.553,1.39,1.39,0,0,0-.782.759,4.348,4.348,0,0,0-.3,1.079q-.364,1.991-.858,3.958a.364.364,0,0,1-.065.149.282.282,0,0,1-.2.082c-.438.059-.858-.248-1.3-.215a.742.742,0,0,0-.135.022,6.986,6.986,0,0,1,.706-7.978l.035-.01a2.107,2.107,0,0,0,.782-.493,8.253,8.253,0,0,0,.782-.905l.156-.2a8.918,8.918,0,0,1,1.525-1.449,1.564,1.564,0,0,1,.52-.282,1.541,1.541,0,0,1,.493-.016,12.43,12.43,0,0,0,2.036.076,13.065,13.065,0,0,1,1.429-.145,4.4,4.4,0,0,1,3.076,1.867A2.892,2.892,0,0,1,397.6,169.335Z" transform="translate(-327.787 -144.114)" opacity="0.1"/>
    <path id="Path_459" data-name="Path 459" d="M376.03,169.655c-.272.446-.763.749-.946,1.238-.27.71.186,1.594-.233,2.227-.139.213-.368.372-.446.616-.133.413.231.853.137,1.277s-.653.782-.5,1.2a.782.782,0,0,0,.43.391,1.682,1.682,0,0,0,.978.217c.534-.088.931-.612,1.472-.651.44-.031.86.274,1.3.217a.293.293,0,0,0,.2-.084.338.338,0,0,0,.064-.149q.493-1.965.86-3.958a4.261,4.261,0,0,1,.293-1.079,1.4,1.4,0,0,1,.782-.759,1.379,1.379,0,0,1,1.443.553,3.387,3.387,0,0,1,.551,1.535,6.621,6.621,0,0,0,.368,1.6.935.935,0,0,0,.356.458.766.766,0,0,0,.913-.219,2.04,2.04,0,0,0,.391-.929,2.792,2.792,0,0,1,.33-.956,2.269,2.269,0,0,1,1.414-.8,4.424,4.424,0,0,0,1.564-.546,3.219,3.219,0,0,0,.856-1.062,3.126,3.126,0,0,0,.536-1.633,3,3,0,0,0-.8-1.691,4.395,4.395,0,0,0-3.078-1.865,12.164,12.164,0,0,0-1.429.145,12.235,12.235,0,0,1-2.035-.078,1.6,1.6,0,0,0-.493.018,1.475,1.475,0,0,0-.518.282,8.923,8.923,0,0,0-1.527,1.447,11.207,11.207,0,0,1-.942,1.1,2.122,2.122,0,0,1-.782.495c-.2.055-.391.016-.577.076C376.374,168.46,376.3,169.213,376.03,169.655Z" transform="translate(-319.504 -143.333)" fill="#965d7b"/>
    <path id="Path_460" data-name="Path 460" d="M463.439,205.364c-1.564.287-2.861-.978-3.578-1.9a7.671,7.671,0,0,1-.6-.884l5.369,1.013.217.041S465.834,204.926,463.439,205.364Z" transform="translate(-388.083 -173.726)" opacity="0.1"/>
    <g id="Group_41" data-name="Group 41" transform="translate(54.499 24.83)" opacity="0.1">
      <path id="Path_461" data-name="Path 461" d="M376.034,211.081a1.629,1.629,0,0,0-.113-.751c0,.02-.018.039-.023.059a1.455,1.455,0,0,0,.1.806A.587.587,0,0,0,376.034,211.081Z" transform="translate(-375.495 -204.79)"/>
      <path id="Path_462" data-name="Path 462" d="M379.051,197.8a4.346,4.346,0,0,0,.016.811A4.359,4.359,0,0,0,379.051,197.8Z" transform="translate(-378.046 -194.711)"/>
      <path id="Path_463" data-name="Path 463" d="M388.548,183.261a3.206,3.206,0,0,1-.856,1.064,4.368,4.368,0,0,1-1.564.544,2.259,2.259,0,0,0-1.414.8,2.818,2.818,0,0,0-.33.958,2.047,2.047,0,0,1-.391.929.763.763,0,0,1-.913.219.935.935,0,0,1-.356-.458,6.512,6.512,0,0,1-.368-1.6,3.379,3.379,0,0,0-.551-1.535,1.375,1.375,0,0,0-1.443-.553,1.4,1.4,0,0,0-.782.759,4.263,4.263,0,0,0-.293,1.079q-.366,1.993-.86,3.958a.339.339,0,0,1-.065.149.293.293,0,0,1-.2.084c-.438.057-.858-.248-1.3-.217-.542.039-.939.563-1.472.649a1.653,1.653,0,0,1-.978-.217,1.046,1.046,0,0,1-.358-.254.528.528,0,0,0-.072.456.763.763,0,0,0,.43.391,1.653,1.653,0,0,0,.978.217c.534-.086.931-.61,1.472-.649.44-.031.86.274,1.3.217a.293.293,0,0,0,.2-.084.339.339,0,0,0,.065-.149q.493-1.955.86-3.958a4.264,4.264,0,0,1,.293-1.079,1.4,1.4,0,0,1,.782-.759,1.376,1.376,0,0,1,1.443.553,3.386,3.386,0,0,1,.551,1.535,6.622,6.622,0,0,0,.368,1.6.935.935,0,0,0,.356.458.766.766,0,0,0,.913-.219,2.046,2.046,0,0,0,.391-.929,2.819,2.819,0,0,1,.33-.958,2.278,2.278,0,0,1,1.414-.8,4.46,4.46,0,0,0,1.564-.544,3.206,3.206,0,0,0,.856-1.064,3.113,3.113,0,0,0,.536-1.631,2.109,2.109,0,0,0-.023-.223A3.843,3.843,0,0,1,388.548,183.261Z" transform="translate(-373.964 -182)"/>
    </g>
    <path id="Path_464" data-name="Path 464" d="M401.164,174.013a6.908,6.908,0,0,1,.87,2.9c-1.742-.978-3.381-2.051-4.208-2.425-1.441-.651-6.83-.553-8.856-.493a6.83,6.83,0,0,1,.739-1.068,7.074,7.074,0,0,1,1.613-1.412,6.994,6.994,0,0,1,9.851,2.489Z" transform="translate(-331.537 -147.863)" opacity="0.1"/>
    <path id="Path_465" data-name="Path 465" d="M463.927,204.535c-.941.289-2.475-.27-4.067-1.072a7.671,7.671,0,0,1-.6-.884l5.369,1.013C464.985,203.835,465.075,204.181,463.927,204.535Z" transform="translate(-388.083 -173.726)" opacity="0.1"/>
    <path id="Path_466" data-name="Path 466" d="M392.318,154.044s-5.133-.293-6.576,2.493l-.233,2.47-.391-.043-.078,1.68s7.845-.342,9.63.463,7.333,4.865,9.556,4.181-.2-1.32-.2-1.32-3.06-1.3-3.06-2.313S400.212,155.266,392.318,154.044Z" transform="translate(-328.375 -134.673)" fill="#444053"/>
    <path id="Path_467" data-name="Path 467" d="M371.63,622.28s3.275,3.177,4.693,2.933C376.323,625.213,372.314,624.871,371.63,622.28Z" transform="translate(-317.587 -511.36)" opacity="0.1"/>
    <path id="Path_468" data-name="Path 468" d="M368.13,629.81s.293,1.635,1.075,1.474S368.13,629.81,368.13,629.81Z" transform="translate(-314.772 -517.417)" opacity="0.1"/>
    <path id="Path_469" data-name="Path 469" d="M378.109,769.53s-4.65,3.617-3.866,3.715S378.109,769.53,378.109,769.53Z" transform="translate(-319.618 -629.817)" opacity="0.1"/>
    <path id="Path_470" data-name="Path 470" d="M330.96,337.25l15.056-2.45v14.255l-14.305-.749Z" transform="translate(-266.249 -269.332)" fill="#2e74a4"/>
    <path id="Path_471" data-name="Path 471" d="M330.96,337.25l15.056-2.45v14.255l-14.305-.749Z" transform="translate(-266.249 -269.332)" opacity="0.05"/>
    <path id="Path_472" data-name="Path 472" d="M407.96,334.8l18.056,1.351-1,12.4-17.057.5Z" transform="translate(-328.193 -269.332)" fill="#3381b6"/>
    <path id="Path_473" data-name="Path 473" d="M407.96,334.8l18.056,1.351-1,12.4-17.057.5Z" transform="translate(-328.193 -269.332)" opacity="0.1"/>
    <path id="Path_474" data-name="Path 474" d="M413.511,312.55,407.96,316.9l18.056,1.351,2.951-4.452Z" transform="translate(-328.193 -251.433)" fill="#3793d1"/>
    <path id="Path_475" data-name="Path 475" d="M303.08,316.24l13.555-1.65,6.953,3.952-15.056,2.45Z" transform="translate(-243.82 -253.074)" fill="#3793d1"/>
    <path id="Path_476" data-name="Path 476" d="M349.317,348.581V368.07l-7.053-.723-3.068-.313-.935-.1-3.066-.315-4.235-.434V347.33l15.054,1.025Z" transform="translate(-266.249 -279.412)" fill="#45aff7"/>
    <path id="Path_477" data-name="Path 477" d="M439.6,341.71v19.006l-5.653,1.085-2.749.528-6.353,1.22V344.06Z" transform="translate(-341.772 -274.891)" fill="#45aff7"/>
    <path id="Path_478" data-name="Path 478" d="M439.6,341.71v19.006l-5.653,1.085-2.749.528-6.353,1.22V344.06Z" transform="translate(-339.455 -274.118)" fill="#45aff7" opacity="0.05"/>
    <path id="Path_479" data-name="Path 479" d="M303.08,351.432l5.452-4.1,18.357,1.251-2.7,4.552Z" transform="translate(-243.82 -279.412)" fill="#3793d1"/>
    <path id="Path_480" data-name="Path 480" d="M303.08,351.432l5.452-4.1,18.357,1.251-2.7,4.552Z" transform="translate(-243.82 -279.412)" fill="#45aff7" opacity="0.1"/>
    <path id="Path_481" data-name="Path 481" d="M439.6,341.71l-14.755,2.35,4.8,4.3,15.805-2.651Z" transform="translate(-341.772 -274.891)" fill="#3793d1"/>
    <path id="Path_482" data-name="Path 482" d="M439.6,341.71l-14.755,2.35,4.8,4.3,15.805-2.651Z" transform="translate(-341.772 -274.891)" fill="#45aff7" opacity="0.1"/>
    <path id="Path_483" data-name="Path 483" d="M460.079,427.253l-2.749.528v-4.061l2.575-.649Z" transform="translate(-367.909 -340.342)" fill="#fff" opacity="0.1"/>
    <path id="Path_484" data-name="Path 484" d="M376.148,435.96v2.687l-3.068-.313V435.96Z" transform="translate(-300.133 -350.712)" fill="#fff" opacity="0.1"/>
    <path id="Path_485" data-name="Path 485" d="M355.686,440.29v1.429l-3.066-.315V440.29Z" transform="translate(-283.674 -354.195)" fill="#fff" opacity="0.1"/>
    <path id="Path_486" data-name="Path 486" d="M449.322,451.521c-2.1,2.689-9.044.831-9.044.831l-5.158-5.381-.7-.729,1.369-2.542s.391.129,1.044.356C440.29,445.264,451.091,449.259,449.322,451.521Z" transform="translate(-368.1 -367.699)" opacity="0.1"/>
    <path id="Path_487" data-name="Path 487" d="M448.322,449.521c-2.1,2.689-9.044.831-9.044.831l-5.158-5.381-.7-.729,1.369-2.542s.391.129,1.044.356C439.29,443.264,450.091,447.259,448.322,449.521Z" transform="translate(-367.295 -366.09)" fill="#efb7b9"/>
    <path id="Path_488" data-name="Path 488" d="M435.793,442.056a11.561,11.561,0,0,1-1.713,2.915l-.7-.729,1.369-2.542S435.142,441.829,435.793,442.056Z" transform="translate(-367.263 -366.09)" opacity="0.1"/>
    <path id="Path_489" data-name="Path 489" d="M337.06,287.862s-5.133,1.955-5.182,7.43a89.963,89.963,0,0,0,.587,10.559s-1.467,8.164,2.689,10.51,8.017,4.3,8.017,4.3,6.638,1.075,7.454,1.418,3.649-4.057,3.209-4.791-6.484-2.542-7.2-3.764a6.511,6.511,0,0,0-2.485-2.045s-1.8-1.23-1.875-2.257a4.619,4.619,0,0,1,.61-2.2c.151-.44.7-4.742.7-4.742S346.494,287.021,337.06,287.862Z" transform="translate(-285.608 -242.306)" fill="#dce6f2"/>
    <path id="Path_490" data-name="Path 490" d="M343.912,380.7s-6.941.782-6.4,3.226A14.6,14.6,0,0,1,343.912,380.7Z" transform="translate(-290.113 -317.017)" opacity="0.1"/>
    <path id="Path_491" data-name="Path 491" d="M356.782,385.7s-3.94,2.884-3.217,3.08S356.782,385.7,356.782,385.7Z" transform="translate(-302.983 -321.04)" opacity="0.1"/>
    <path id="Path_492" data-name="Path 492" d="M376.568,391.7s-1.124,2.022-.489,1.916S376.568,391.7,376.568,391.7Z" transform="translate(-321.01 -325.866)" opacity="0.1"/>
    <path id="Path_493" data-name="Path 493" d="M721.712,167.38s-7.43-.448-6.562,4.765a1.272,1.272,0,0,0,.661,1.339s.014-.391.763-.256a3.422,3.422,0,0,0,.808.039,1.676,1.676,0,0,0,.989-.409h0s2.09-.862,2.9-4.28c0,0,.6-.747.587-.939l-1.255.538a2.25,2.25,0,0,1,.09,1.658s-.039-1.625-.282-1.588c-.049,0-.651.315-.651.315a3.709,3.709,0,0,1,.18,2.724s.211-1.944-.411-2.61l-.884.516a3.9,3.9,0,0,1,.278,2.958s.151-2.039-.463-2.833l-.8.624a3.817,3.817,0,0,1,.317,2.71s-.064-2.374-.491-2.554a4.836,4.836,0,0,0-.806.872s.553,1.173.209,1.781c0,0-.211-1.582-.391-1.59a5.263,5.263,0,0,0-.77,1.76,3.806,3.806,0,0,1,.6-1.865,2.1,2.1,0,0,0-1.068.553s.108-.741,1.24-.806a5.344,5.344,0,0,1,.731-.845,4.585,4.585,0,0,0-1.809.209,2.049,2.049,0,0,1,2.016-.391l.782-.645a6.747,6.747,0,0,0-2.112.021,2.57,2.57,0,0,1,2.325-.168l.86-.514a7.724,7.724,0,0,0-2.016-.174,3.093,3.093,0,0,1,2.268.035l.616-.276s-.927-.182-1.2-.211-.285-.1-.285-.1a3.2,3.2,0,0,1,1.738.2A7.673,7.673,0,0,0,721.712,167.38Z" transform="translate(-593.88 -145.401)" fill="#3793d1"/>
    <path id="Path_494" data-name="Path 494" d="M837.172,300.72s-7.43-.448-6.562,4.765a1.272,1.272,0,0,0,.661,1.339s.014-.391.765-.256a3.422,3.422,0,0,0,.807.039,1.673,1.673,0,0,0,.978-.407h0s2.092-.864,2.906-4.282c0,0,.6-.745.577-.937l-1.255.536a2.256,2.256,0,0,1,.092,1.658s-.041-1.625-.282-1.588c-.049,0-.653.315-.653.315a3.707,3.707,0,0,1,.182,2.724s.211-1.944-.413-2.61l-.874.51a3.9,3.9,0,0,1,.278,2.958s.151-2.039-.463-2.833l-.8.626a3.821,3.821,0,0,1,.317,2.708s-.064-2.374-.491-2.554a4.9,4.9,0,0,0-.807.872s.555,1.173.211,1.781c0,0-.211-1.582-.391-1.59a5.264,5.264,0,0,0-.771,1.76,3.818,3.818,0,0,1,.6-1.865,2.1,2.1,0,0,0-1.07.553s.109-.741,1.242-.806a4.881,4.881,0,0,1,.731-.845,4.585,4.585,0,0,0-1.809.209,2.031,2.031,0,0,1,2.014-.381l.782-.645a6.75,6.75,0,0,0-2.112.021,2.571,2.571,0,0,1,2.325-.168l.86-.514a7.838,7.838,0,0,0-2.018-.174,3.1,3.1,0,0,1,2.27.035l.616-.276s-.927-.182-1.2-.211-.286-.1-.286-.1a3.2,3.2,0,0,1,1.74.2A7.894,7.894,0,0,0,837.172,300.72Z" transform="translate(-686.763 -252.669)" fill="#6c63ff" opacity="0.1"/>
    <path id="Path_495" data-name="Path 495" d="M612.745,246.854s1.711-7.252-3.576-7.278a1.27,1.27,0,0,0-1.431.422s.377.08.121.8a3.481,3.481,0,0,0-.176.782,1.68,1.68,0,0,0,.233,1.042h0s.495,2.21,3.715,3.594c0,0,.634.72.825.727l-.313-1.328a2.247,2.247,0,0,1-1.65-.2s1.609.237,1.611,0c0-.049-.2-.7-.2-.7a3.712,3.712,0,0,1-2.716-.287s1.879.54,2.644.041l-.352-.962a3.9,3.9,0,0,1-2.964-.231s1.985.5,2.872.027l-.479-.9a3.821,3.821,0,0,1-2.724-.151s2.346.34,2.6-.047a4.859,4.859,0,0,0-.721-.944s-1.244.348-1.791-.1c0,0,1.594.061,1.631-.108a5.272,5.272,0,0,0-1.609-1.062,3.833,3.833,0,0,1,1.738.911,2.11,2.11,0,0,0-.364-1.148s.712.235.587,1.369a4.87,4.87,0,0,1,.706.864,4.6,4.6,0,0,0,.1-1.818,2.033,2.033,0,0,1,.033,2.051l.5.89a6.489,6.489,0,0,0,.338-2.084,2.563,2.563,0,0,1-.231,2.319l.362.937a7.832,7.832,0,0,0,.514-1.955,3.091,3.091,0,0,1-.422,2.231l.168.653s.336-.882.411-1.144.151-.264.151-.264a3.2,3.2,0,0,1-.487,1.682A7.771,7.771,0,0,0,612.745,246.854Z" transform="translate(-507.476 -203.43)" fill="#6c63ff" opacity="0.1"/>
    <path id="Path_496" data-name="Path 496" d="M515.61,282s-5.968-4.464-8.1.372a1.273,1.273,0,0,0-.184,1.482s.223-.315.782.207a3.426,3.426,0,0,0,.653.477,1.678,1.678,0,0,0,1.05.2h0s2.221.428,4.779-1.979c0,0,.913-.293,1-.465l-1.347-.237a2.259,2.259,0,0,1-.835,1.435s.858-1.38.636-1.48c-.045-.021-.718-.1-.718-.1a3.71,3.71,0,0,1-1.345,2.376s1.246-1.508,1.091-2.407l-1.023-.055a3.9,3.9,0,0,1-1.394,2.626s1.246-1.621,1.173-2.622l-1.013.082a3.811,3.811,0,0,1-1.224,2.434s1.249-2.018.993-2.4a4.916,4.916,0,0,0-1.154.284s-.178,1.279-.8,1.6c0,0,.694-1.437.553-1.537a5.257,5.257,0,0,0-1.615,1.05,3.819,3.819,0,0,1,1.529-1.228,2.106,2.106,0,0,0-1.2-.125s.5-.559,1.478.01a4.937,4.937,0,0,1,1.075-.3,4.575,4.575,0,0,0-1.627-.819,2.036,2.036,0,0,1,1.895.782l1.015-.1a6.7,6.7,0,0,0-1.775-1.142s.944-.119,2.034,1.136l1,.045a7.806,7.806,0,0,0-1.588-1.255,3.092,3.092,0,0,1,1.875,1.277l.667.107s-.675-.661-.886-.833-.182-.244-.182-.244a3.213,3.213,0,0,1,1.347,1.118A7.906,7.906,0,0,0,515.61,282Z" transform="translate(-426.614 -236.107)" fill="#6c63ff" opacity="0.1"/>
    <path id="Path_497" data-name="Path 497" d="M617.22,69.889s-5.968-4.466-8.1.372a1.272,1.272,0,0,0-.184,1.482s.223-.315.782.207a3.478,3.478,0,0,0,.655.475,1.676,1.676,0,0,0,1.05.2h0s2.221.428,4.779-1.981c0,0,.913-.291,1-.465l-1.347-.233a2.249,2.249,0,0,1-.835,1.435s.86-1.38.637-1.48c-.045-.022-.718-.1-.718-.1a3.727,3.727,0,0,1-1.353,2.376s1.244-1.508,1.091-2.407l-1.023-.055a3.9,3.9,0,0,1-1.394,2.624s1.246-1.621,1.173-2.622l-1.011.082a3.82,3.82,0,0,1-1.226,2.436s1.251-2.018,1-2.4a4.917,4.917,0,0,0-1.154.284s-.178,1.279-.8,1.6c0,0,.694-1.437.553-1.539a5.276,5.276,0,0,0-1.615,1.052A3.8,3.8,0,0,1,610.7,70a2.092,2.092,0,0,0-1.2-.125s.5-.559,1.48.01a4.83,4.83,0,0,1,1.075-.3,4.6,4.6,0,0,0-1.627-.821,2.039,2.039,0,0,1,1.893.782l1.015-.1a6.7,6.7,0,0,0-1.775-1.144s.944-.117,2.035,1.138l1,.043a7.727,7.727,0,0,0-1.59-1.253,3.093,3.093,0,0,1,1.877,1.277l.665.108s-.677-.653-.888-.821-.182-.242-.182-.242a3.206,3.206,0,0,1,1.347,1.118A8.443,8.443,0,0,0,617.22,69.889Z" transform="translate(-508.355 -65.469)" fill="#6c63ff" opacity="0.1"/>
    <path id="Path_498" data-name="Path 498" d="M736.216,86.258s-2.385-7.061-6.885-4.286a1.285,1.285,0,0,0-.991,1.117s.362-.133.522.61a3.52,3.52,0,0,0,.268.765,1.693,1.693,0,0,0,.751.761h0s1.588,1.613,5.06,1.079c0,0,.917.278,1.085.182l-.978-.96a2.249,2.249,0,0,1-1.5.708s1.492-.649,1.369-.858c-.025-.041-.536-.485-.536-.485a3.716,3.716,0,0,1-2.456,1.193s1.879-.536,2.262-1.369l-.81-.624a3.9,3.9,0,0,1-2.638,1.369s1.955-.628,2.45-1.5l-.88-.506a3.784,3.784,0,0,1-2.39,1.312s2.174-.952,2.18-1.414a4.889,4.889,0,0,0-1.111-.42s-.872.952-1.564.866c0,0,1.384-.792,1.326-.954a5.246,5.246,0,0,0-1.926-.049,3.811,3.811,0,0,1,1.955-.147,2.109,2.109,0,0,0-.917-.782s.727-.178,1.214.847a4.924,4.924,0,0,1,1.056.36,4.6,4.6,0,0,0-.874-1.6,2.037,2.037,0,0,1,1.113,1.725l.9.489a6.6,6.6,0,0,0-.815-1.955s.847.438,1.031,2.09l.8.6a7.774,7.774,0,0,0-.6-1.936,3.1,3.1,0,0,1,.821,2.118l.487.465s-.18-.927-.254-1.189-.014-.28-.014-.28a3.223,3.223,0,0,1,.475,1.686A7.791,7.791,0,0,0,736.216,86.258Z" transform="translate(-604.548 -76.181)" fill="#6c63ff" opacity="0.1"/>
    <path id="Path_499" data-name="Path 499" d="M660.881,108.136s-7.411-.825-6.8,4.433a1.269,1.269,0,0,0,.587,1.369s.033-.391.782-.215a3.6,3.6,0,0,0,.806.08,1.681,1.681,0,0,0,1.007-.358h0s2.133-.757,3.129-4.13c0,0,.637-.714.624-.907l-1.281.473a2.18,2.18,0,0,1,0,1.66s.041-1.625-.2-1.6c-.049,0-.667.282-.667.282a3.729,3.729,0,0,1,.043,2.738s.309-1.932-.28-2.628l-.909.469a3.887,3.887,0,0,1,.127,2.97s.254-2.03-.319-2.853l-.831.587a3.818,3.818,0,0,1,.178,2.722s.057-2.374-.36-2.575a5.087,5.087,0,0,0-.851.829s.495,1.193.121,1.789c0,0-.131-1.59-.3-1.605a5.258,5.258,0,0,0-.86,1.725,3.807,3.807,0,0,1,.7-1.834,2.1,2.1,0,0,0-1.1.5s.145-.733,1.279-.741c0,0,.616-.765.782-.806a4.6,4.6,0,0,0-1.818.117,2.029,2.029,0,0,1,2.032-.28l.823-.6a6.341,6.341,0,0,0-2.118-.106,2.546,2.546,0,0,1,2.331-.049l.886-.471a7.785,7.785,0,0,0-2.006-.276,3.071,3.071,0,0,1,2.264.151l.63-.244s-.917-.229-1.187-.272-.28-.117-.28-.117a3.217,3.217,0,0,1,1.729.282A8,8,0,0,0,660.881,108.136Z" transform="translate(-544.781 -97.712)" fill="#6c63ff" opacity="0.1"/>
    <path id="Path_500" data-name="Path 500" d="M992.5,402.306s-7.407-.825-6.795,4.427a1.269,1.269,0,0,0,.587,1.369s.033-.391.782-.217a3.383,3.383,0,0,0,.806.08,1.668,1.668,0,0,0,1.007-.358h0s2.133-.757,3.119-4.128c0,0,.637-.716.624-.907l-1.281.471a2.187,2.187,0,0,1,0,1.662s.041-1.627-.2-1.6c-.049,0-.667.28-.667.28a3.729,3.729,0,0,1,.043,2.738s.309-1.93-.28-2.628l-.909.471a3.892,3.892,0,0,1,.129,2.97s.252-2.03-.321-2.855l-.831.587a3.814,3.814,0,0,1,.178,2.72s.057-2.374-.36-2.573a5.166,5.166,0,0,0-.851.829s.5,1.193.121,1.789c0,0-.131-1.59-.3-1.605a5.258,5.258,0,0,0-.86,1.725,3.806,3.806,0,0,1,.7-1.834,2.086,2.086,0,0,0-1.095.5s.145-.735,1.279-.743c0,0,.618-.765.782-.8a4.582,4.582,0,0,0-1.818.115,2.034,2.034,0,0,1,2.034-.278l.821-.6a6.534,6.534,0,0,0-2.11-.086,2.549,2.549,0,0,1,2.331-.051l.886-.469a7.787,7.787,0,0,0-2.006-.276,3.071,3.071,0,0,1,2.264.151l.63-.246s-.917-.229-1.187-.27-.28-.117-.28-.117a3.205,3.205,0,0,1,1.729.28A7.66,7.66,0,0,0,992.5,402.306Z" transform="translate(-811.558 -334.361)" fill="#6c63ff" opacity="0.1"/>
    <path id="Path_501" data-name="Path 501" d="M1050.407,437.687s-7.407-.823-6.795,4.427a1.273,1.273,0,0,0,.587,1.369s.033-.391.782-.215a3.452,3.452,0,0,0,.8.078,1.688,1.688,0,0,0,1-.356h0s2.131-.757,3.117-4.13c0,0,.639-.714.624-.907l-1.281.471a2.187,2.187,0,0,1,0,1.662s.041-1.625-.2-1.6c-.049,0-.667.28-.667.28a3.73,3.73,0,0,1,.043,2.738s.309-1.93-.28-2.626l-.909.469a3.893,3.893,0,0,1,.129,2.97s.252-2.03-.321-2.853l-.831.587a3.825,3.825,0,0,1,.18,2.722s.055-2.376-.362-2.575a5.161,5.161,0,0,0-.851.829s.5,1.193.121,1.789c0,0-.131-1.59-.3-1.605a5.228,5.228,0,0,0-.858,1.725,3.817,3.817,0,0,1,.694-1.834,2.1,2.1,0,0,0-1.095.5s.147-.735,1.281-.741c0,0,.616-.765.782-.806a4.6,4.6,0,0,0-1.819.117,2.031,2.031,0,0,1,2.034-.28l.821-.6a6.534,6.534,0,0,0-2.11-.086,2.546,2.546,0,0,1,2.331-.049l.886-.471a7.786,7.786,0,0,0-2.006-.276,3.071,3.071,0,0,1,2.264.151l.63-.244s-.917-.229-1.185-.272-.282-.117-.282-.117a3.216,3.216,0,0,1,1.729.282A7.73,7.73,0,0,0,1050.407,437.687Z" transform="translate(-858.144 -362.824)" fill="#6c63ff" opacity="0.1"/>
    <path id="Path_502" data-name="Path 502" d="M915.16,132.142s-5.968-4.464-8.1.372a1.272,1.272,0,0,0-.184,1.482s.223-.315.782.207a3.426,3.426,0,0,0,.653.477,1.679,1.679,0,0,0,1.05.2h0s2.221.428,4.781-1.979c0,0,.911-.293,1-.465l-1.343-.242a2.259,2.259,0,0,1-.835,1.435s.858-1.38.635-1.48c-.045-.022-.716-.1-.716-.1a3.716,3.716,0,0,1-1.347,2.376s1.246-1.508,1.091-2.407l-1.023-.055a3.9,3.9,0,0,1-1.394,2.626s1.248-1.621,1.173-2.622l-1.013.082a3.759,3.759,0,0,1-1.224,2.434s1.251-2.018.993-2.4a4.914,4.914,0,0,0-1.154.284s-.176,1.279-.8,1.6c0,0,.692-1.437.551-1.537a5.255,5.255,0,0,0-1.615,1.05,3.818,3.818,0,0,1,1.529-1.228,2.106,2.106,0,0,0-1.2-.125s.5-.559,1.48.01a4.914,4.914,0,0,1,1.074-.3,4.577,4.577,0,0,0-1.627-.819,2.036,2.036,0,0,1,1.895.782l1.015-.1a6.661,6.661,0,0,0-1.775-1.142s.944-.119,2.034,1.136l1,.045a7.837,7.837,0,0,0-1.59-1.255,3.087,3.087,0,0,1,1.875,1.277l.667.108s-.675-.661-.886-.833-.18-.229-.18-.229a3.216,3.216,0,0,1,1.345,1.118A7.85,7.85,0,0,0,915.16,132.142Z" transform="translate(-748.037 -115.55)" fill="#6c63ff" opacity="0.1"/>
    <path id="Path_503" data-name="Path 503" d="M941.736,283.509s-2.057-7.162-6.683-4.591a1.27,1.27,0,0,0-1.042,1.07s.368-.115.495.634a3.459,3.459,0,0,0,.235.782,1.68,1.68,0,0,0,.716.8h0s1.513,1.682,5.006,1.306c0,0,.9.317,1.075.231l-.925-1.005a2.248,2.248,0,0,1-1.531.641s1.517-.587,1.4-.8c-.023-.043-.512-.51-.512-.51a3.7,3.7,0,0,1-2.507,1.081s1.9-.45,2.321-1.259l-.782-.661a3.907,3.907,0,0,1-2.7,1.251s1.971-.542,2.515-1.384l-.856-.546a3.81,3.81,0,0,1-2.446,1.2s2.215-.854,2.243-1.314a4.881,4.881,0,0,0-1.093-.469s-.913.911-1.607.794c0,0,1.42-.729,1.369-.894a5.28,5.28,0,0,0-1.922-.137,3.814,3.814,0,0,1,1.955-.057,2.1,2.1,0,0,0-.88-.821s.735-.147,1.173.9a4.88,4.88,0,0,1,1.038.407,4.573,4.573,0,0,0-.8-1.635,2.031,2.031,0,0,1,1.034,1.772l.872.53a6.5,6.5,0,0,0-.727-1.983,2.567,2.567,0,0,1,.937,2.133l.782.639a7.753,7.753,0,0,0-.51-1.955,3.09,3.09,0,0,1,.725,2.151l.465.489s-.137-.935-.2-1.2,0-.3,0-.3a3.2,3.2,0,0,1,.4,1.705A7.769,7.769,0,0,0,941.736,283.509Z" transform="translate(-770.002 -234.689)" fill="#6c63ff" opacity="0.1"/>
    <path id="Path_504" data-name="Path 504" d="M704.452,371.894s-3.995-6.292-7.7-2.526a1.265,1.265,0,0,0-.7,1.32s.323-.215.655.469a3.351,3.351,0,0,0,.442.677,1.67,1.67,0,0,0,.909.563h0s1.926,1.189,5.172-.156c0,0,.956.051,1.1-.08l-1.173-.7a2.248,2.248,0,0,1-1.291,1.046s1.294-.978,1.12-1.158c-.033-.035-.636-.344-.636-.344a3.715,3.715,0,0,1-2.1,1.742s1.7-.968,1.875-1.863l-.937-.413a3.9,3.9,0,0,1-2.235,1.955s1.74-1.073,2.024-2.036l-.978-.282s-.825,1.6-2.008,1.842c0,0,1.885-1.443,1.781-1.893a4.857,4.857,0,0,0-1.173-.143s-.62,1.132-1.32,1.214c0,0,1.158-1.1,1.062-1.244a5.269,5.269,0,0,0-1.883.411,3.806,3.806,0,0,1,1.865-.606,2.1,2.1,0,0,0-1.073-.542s.663-.346,1.369.534a4.829,4.829,0,0,1,1.113.1,4.5,4.5,0,0,0-1.23-1.343s.919.078,1.49,1.41l.987.262a6.537,6.537,0,0,0-1.255-1.7s.925.223,1.5,1.785l.923.391a7.792,7.792,0,0,0-1.042-1.736,3.081,3.081,0,0,1,1.3,1.86l.587.338s-.391-.858-.53-1.1-.084-.291-.084-.291a3.206,3.206,0,0,1,.862,1.523A7.947,7.947,0,0,0,704.452,371.894Z" transform="translate(-578.556 -306.935)" fill="#6c63ff" opacity="0.1"/>
    <path id="Path_505" data-name="Path 505" d="M838.907,206.823s-3.8-6.412-7.626-2.763a1.272,1.272,0,0,0-.739,1.3s.326-.207.639.487a3.377,3.377,0,0,0,.42.692,1.66,1.66,0,0,0,.892.587h0s1.887,1.248,5.174,0c0,0,.954.08,1.1-.047l-1.148-.739a2.248,2.248,0,0,1-1.322,1.005s1.324-.944,1.158-1.122c-.035-.037-.626-.366-.626-.366a3.717,3.717,0,0,1-2.151,1.678s1.729-.915,1.93-1.8l-.923-.434a3.9,3.9,0,0,1-2.3,1.889s1.773-1.019,2.086-1.971l-.966-.313s-.876,1.564-2.065,1.779c0,0,1.928-1.384,1.838-1.836a4.828,4.828,0,0,0-1.173-.18s-.655,1.113-1.357,1.173c0,0,1.191-1.06,1.1-1.208a5.264,5.264,0,0,0-1.895.352,3.816,3.816,0,0,1,1.883-.548,2.1,2.1,0,0,0-1.058-.575s.675-.327,1.369.575a4.952,4.952,0,0,1,1.109.133,4.677,4.677,0,0,0-1.187-1.38s.915.106,1.445,1.455l.978.293a6.5,6.5,0,0,0-1.2-1.736s.919.252,1.443,1.83l.909.424a7.854,7.854,0,0,0-.978-1.76,3.093,3.093,0,0,1,1.244,1.9l.573.356s-.368-.87-.5-1.111-.074-.293-.074-.293a3.213,3.213,0,0,1,.815,1.549A7.566,7.566,0,0,0,838.907,206.823Z" transform="translate(-686.756 -174.014)" fill="#3793d1"/>
    <path id="Path_506" data-name="Path 506" d="M724.528,265.013s.2-7.45-4.98-6.4a1.274,1.274,0,0,0-1.318.706s.391,0,.282.753a3.431,3.431,0,0,0-.012.81,1.672,1.672,0,0,0,.44.978h0s.933,2.061,4.376,2.761c0,0,.765.577.956.546l-.587-1.236a2.257,2.257,0,0,1-1.654.147s1.623-.1,1.578-.334c0-.049-.336-.643-.336-.643a3.7,3.7,0,0,1-2.716.272s1.955.147,2.595-.5l-.546-.866a3.906,3.906,0,0,1-2.949.375s2.043.082,2.818-.557l-.651-.782a3.813,3.813,0,0,1-2.7.407s2.37-.143,2.542-.575a5.069,5.069,0,0,0-.9-.782s-1.146.587-1.771.27c0,0,1.564-.262,1.574-.436a5.248,5.248,0,0,0-1.791-.712,3.807,3.807,0,0,1,1.887.54,2.1,2.1,0,0,0-.587-1.05s.745.084.847,1.212a4.866,4.866,0,0,1,.868.7,4.572,4.572,0,0,0-.27-1.8,2.029,2.029,0,0,1,.45,2l.671.77a6.544,6.544,0,0,0-.092-2.11,2.57,2.57,0,0,1,.246,2.317l.542.843a7.8,7.8,0,0,0,.108-2.022,3.1,3.1,0,0,1,.039,2.27l.3.606s.151-.933.17-1.2.094-.289.094-.289a3.211,3.211,0,0,1-.135,1.746A7.453,7.453,0,0,0,724.528,265.013Z" transform="translate(-596.415 -218.721)" fill="#3793d1"/>
    <ellipse id="Ellipse_256" data-name="Ellipse 256" cx="5.266" cy="0.89" rx="5.266" ry="0.89" transform="translate(131.404 139.175)" fill="#6c63ff" opacity="0.1"/>
    <ellipse id="Ellipse_257" data-name="Ellipse 257" cx="5.266" cy="0.89" rx="5.266" ry="0.89" transform="translate(112.209 152.683)" fill="#6c63ff" opacity="0.1"/>
    <ellipse id="Ellipse_258" data-name="Ellipse 258" cx="5.266" cy="0.89" rx="5.266" ry="0.89" transform="translate(12.943 145.763)" fill="#6c63ff" opacity="0.1"/>
    <ellipse id="Ellipse_259" data-name="Ellipse 259" cx="5.266" cy="0.89" rx="5.266" ry="0.89" transform="translate(152.149 151.793)" fill="#6c63ff" opacity="0.1"/>
    <ellipse id="Ellipse_260" data-name="Ellipse 260" cx="7.862" cy="1.33" rx="7.862" ry="1.33" transform="translate(155.035 140.065)" fill="#3381b6"/>
    <path id="Path_507" data-name="Path 507" d="M915.078,752.1a2.27,2.27,0,0,0,.749-1.13,1,1,0,0,0-.522-1.152,1.476,1.476,0,0,0-1.386.485,1.858,1.858,0,0,1-1.345.651,2.054,2.054,0,0,0,.633-1.918.805.805,0,0,0-.176-.391c-.268-.285-.751-.162-1.072.063a3.992,3.992,0,0,0-1.306,3.34,6.277,6.277,0,0,1-.017-1.369,1.4,1.4,0,0,0-.518-1.216,1.547,1.547,0,0,0-.782-.2,1.633,1.633,0,0,0-1.279.364,1.26,1.26,0,0,0,.049,1.564,5.055,5.055,0,0,0,1.324,1.06,2.956,2.956,0,0,1,.946.9.91.91,0,0,1,.068.16h2.867A7.9,7.9,0,0,0,915.078,752.1Z" transform="translate(-748.921 -612.883)" fill="#3381b6"/>
    <path id="Path_508" data-name="Path 508" d="M170.29,777.194s3-.092,3.911-.737,4.62-1.414,4.845-.379,4.513,5.141,1.122,5.168-7.878-.528-8.781-1.079S170.29,777.194,170.29,777.194Z" transform="translate(-155.616 -634.677)" fill="#a8a8a8"/>
    <path id="Path_509" data-name="Path 509" d="M180.225,787.546c-3.391.027-7.878-.528-8.781-1.079-.688-.419-.962-1.922-1.054-2.616h-.1s.2,2.423,1.093,2.972,5.391,1.107,8.782,1.079c.978,0,1.316-.356,1.3-.872C181.326,787.344,180.953,787.54,180.225,787.546Z" transform="translate(-155.616 -641.337)" opacity="0.2"/>
  </g>
</svg>
