<svg id="Group_3621" data-name="Group 3621" xmlns="http://www.w3.org/2000/svg" width="2880.396" height="3094.963" viewBox="0 0 2880.396 3094.963">
  <rect id="Rectangle_1645" data-name="Rectangle 1645" width="2306.051" height="4.335" transform="translate(574.345 3090.628)" fill="#3c354c"/>
  <path id="Path_8415" data-name="Path 8415" d="M612.5,460.663c-.52-21.673-6.589-39.836-15.3-49.849L590.3,437.992v-32.64a16.557,16.557,0,0,0-10.1-2.384c-16.948,1.56-30.039,30.039-29.259,63.59s15.171,59.515,32.12,57.955S613.278,494.343,612.5,460.663Z" transform="translate(676.506 940.436)" fill="#57b894"/>
  <path id="Path_8416" data-name="Path 8416" d="M608.223,451.446c-7.109,1.56-14,5.938-21.11,6.806s-14.911-2.514-19.376-13.481c-2.427-5.9-3.641-13.351-5.678-19.81A40.272,40.272,0,0,0,554.3,410.57,112.08,112.08,0,0,0,551,440.913c.78,33.551,15.171,59.472,32.12,57.911,14.218-1.3,25.7-21.673,28.566-47.942a30.322,30.322,0,0,0-3.468.563Z" transform="translate(676.664 965.995)" opacity="0.1"/>
  <path id="Path_8417" data-name="Path 8417" d="M942.107,384.215C926.936,369,909.9,359.9,896.68,358.64l13.567,24.274-22.324-23.8a16.773,16.773,0,0,0-8.973,5.2c-11.227,13-1.084,42.48,22.627,66.277s52.016,32.684,63.2,19.853S965.688,407.882,942.107,384.215Z" transform="translate(1755.149 792.825)" fill="#57b894"/>
  <path id="Path_8418" data-name="Path 8418" d="M943.614,370.044c-4.075,5.982-6.069,13.914-10.62,19.419s-12.527,8.453-23.321,3.641c-5.852-2.6-11.877-7.2-17.772-10.447A40.224,40.224,0,0,0,876.34,377.5a112.913,112.913,0,0,0,18.552,24.317c23.711,23.8,52.017,32.684,63.2,19.853,9.363-10.75,3.728-33.334-12.311-54.4a22.651,22.651,0,0,0-2.167,2.774Z" transform="translate(1761.704 821.603)" opacity="0.1"/>
  <path id="Path_8419" data-name="Path 8419" d="M811.814,534.257,737.171,490.91S556.761,466.029,581.642,378.945s149.33,0,149.33,0l80.842,55.614Z" transform="translate(771.125 731.47)" fill="#ffc1c7"/>
  <path id="Path_8420" data-name="Path 8420" d="M811.814,534.257,737.171,490.91S556.761,466.029,581.642,378.945s149.33,0,149.33,0l80.842,55.614Z" transform="translate(771.125 731.47)" opacity="0.1"/>
  <path id="Path_8421" data-name="Path 8421" d="M901.72,436.239S721.354,566.886,721.354,523.322c0-26.008-31.47-106.33-56.611-166.105C648.1,317.6,634.4,286.952,634.4,286.952L820.792,237.19a217.645,217.645,0,0,0,2.081,91.028A175.468,175.468,0,0,0,901.72,436.239Z" transform="translate(954.911 387.828)" fill="#ffc1c7"/>
  <path id="Path_8422" data-name="Path 8422" d="M846.572,538.94S703.527,856.2,753.246,974.359c0,0-155.485,472.784-205.247,491.423S672.4,1515.544,672.4,1515.544s205.161-273.692,217.514-491.423,236.457-441.574,236.457-441.574Z" transform="translate(636.973 1394.068)" fill="#ffc1c7"/>
  <path id="Path_8423" data-name="Path 8423" d="M686,630.972S766.842,892.266,872.608,966.91c0,0,217.731,360.775,186.391,472.74,0,0,124.406,18.683,130.647,0,0,0-56-391.9-192.85-547.384S922.5,550,922.5,550Z" transform="translate(1126.981 1430.949)" fill="#ffc1c7"/>
  <path id="Path_8424" data-name="Path 8424" d="M872.12,778.615s-74.643-62.2-130.6-12.441S585.987,803.5,511.344,778.615s-68.4,37.322,105.766,118.163,273.692,99.7,273.692,99.7,24.881-99.7,24.881-124.406,15.475-71.392,15.475-71.392Z" transform="translate(393.564 2087.477)" fill="#f2f2f2"/>
  <path id="Path_8425" data-name="Path 8425" d="M1012.252,761.474s-74.643-43.347-87.084,37.322-192.85,130.647-192.85,130.647-87.084,80.842,180.41,55.831,248.811-74.643,248.811-74.643l-84.7-160.99Z" transform="translate(1236.278 2096.686)" fill="#f2f2f2"/>
  <path id="Path_8426" data-name="Path 8426" d="M737.078,506.054S544.228,779.745,618.871,810.825s68.445-49.762,143.045,37.322,267.493,43.347,292.374,24.881,87.084-99.7,136.846-93.282-80.972-317.255-80.972-317.255Z" transform="translate(845.861 1139.131)" fill="#3f3d56"/>
  <path id="Path_8427" data-name="Path 8427" d="M806.053,301.387c-26.615,24.838-45.427,66.971-84.7,66.971a148.288,148.288,0,0,1-56.611-11.14C648.1,317.6,634.4,286.952,634.4,286.952L820.792,237.19C814.723,272.821,799.682,276.072,806.053,301.387Z" transform="translate(954.911 387.828)" opacity="0.1"/>
  <circle id="Ellipse_434" data-name="Ellipse 434" cx="149.286" cy="149.286" r="149.286" transform="translate(1526.978 444.608)" fill="#ffc1c7"/>
  <path id="Path_8428" data-name="Path 8428" d="M843.651,278.81s-64.5,65.454-94.453,70.048-142,197.4-110.838,352.93-37.322,478.982-6.2,497.621,528.831-68.4,528.831-68.4Z" transform="translate(919.697 526.617)" fill="#f2f2f2"/>
  <path id="Path_8429" data-name="Path 8429" d="M875.018,273.766S763.053,236.444,725.732,435.492s-87.084,31.123-87.084,286.089-18.683,348.378,12.44,566.066,55.961,217.731,18.639,292.374,398.1,56,503.863-87.084-31.123-678.031-87.084-758.916-56-329.652-99.7-391.855a166.928,166.928,0,0,0-111.791-68.4Z" transform="translate(950.533 500.539)" fill="#45aff7"/>
  <path id="Path_8430" data-name="Path 8430" d="M865.8,1474.2l-55.094-68.921L634.85,566,753.057,345.361A130.907,130.907,0,0,1,853.535,277.09a128.393,128.393,0,0,1,112.7,43.347c171.09,194.8,256.96,798.839,260.514,824.456l.347,2.427-17.339,45.124-91.028,204.033Zm-37.755-77.071,44.387,55.484,232.512-71.7,87.387-195.841,15.562-40.182c-6.155-42.393-93.586-627.792-255.746-812.363a112.008,112.008,0,0,0-182.707,21.414l-114.956,214.7Z" transform="translate(956.411 517.674)" fill="#2f2e41"/>
  <path id="Path_8431" data-name="Path 8431" d="M728.2,484.918h0L566.56,341.137a9.753,9.753,0,0,1-1.6-12.657l1.994-3.034h0a8.67,8.67,0,0,1,13.308-1.56L727.637,460.427a16.905,16.905,0,0,1,.563,24.491Z" transform="translate(717.893 668.844)" fill="#6c63ff"/>
  <path id="Path_8432" data-name="Path 8432" d="M728.2,481.853h0L566.56,338.072a9.753,9.753,0,0,1-1.6-12.657l1.994-3.034L727.81,466.638a10.447,10.447,0,0,1,.39,15.215Z" transform="translate(717.893 671.909)" fill="#192534"/>
  <path id="Path_8433" data-name="Path 8433" d="M1022.261,478.285s-230.172-18.639-273.692-99.7-155.529-37.322-124.406,0,24.881,124.406,111.965,130.647S1040.9,559.17,1040.9,559.17Z" transform="translate(902.814 706.557)" fill="#ffc1c7"/>
  <path id="Path_8434" data-name="Path 8434" d="M1075.725,476.84S920.2,489.281,882.875,651.008s-205.247,80.885-205.247,80.885-18.682,422.978,255.01,317.255,335.938-304.815,335.938-329.7S1081.967,545.285,1075.725,476.84Z" transform="translate(1098.162 1186.984)" fill="#2f2e41"/>
  <path id="Path_8435" data-name="Path 8435" d="M690.065,762.972s167.8,80.885,205.247-80.842c35.544-154.054,178.2-172.65,191.723-174.081a83.264,83.264,0,0,1-11.314-31.21s-155.528,12.441-192.85,174.168-205.247,80.885-205.247,80.885-6.069,138.06,39.749,236.717C685.167,874.417,690.065,762.972,690.065,762.972Z" transform="translate(1098.165 1186.984)" opacity="0.1"/>
  <path id="Path_8436" data-name="Path 8436" d="M950.829,702.634a51.957,51.957,0,0,0,1.344-9.363c0-21.283-136.586-133.682-179.933-208.542C781.429,542.555,908.349,652.872,950.829,702.634Z" transform="translate(1414.564 1213.295)" opacity="0.1"/>
  <path id="Path_8437" data-name="Path 8437" d="M619.659,415.3c-8.669,27.222,19.376,54.747,47.681,57.608s55.744-10.707,81.666-22.844,54.877-23.494,82.576-16.125c30.343,8.019,50.542,36.238,64.023,64.413a321.29,321.29,0,0,1,25.531,77.5c5.549,28.7,8.106,60.252,27.829,81.926s52.449,27.525,82.359,27.4,60.166-4.335,88.991,3.034c57.218,14.911,92.632,71.912,113.049,127.266s32.683,115.649,69.658,161.727c30.82,38.492,75.77,62.9,120.808,83.139,22.714,10.187,46.251,19.679,71.045,22.02s51.409-3.424,69.355-20.416c20.243-18.986,26.745-47.942,32.25-75.077,8.019-39.359,16.038-79.8,9.406-119.464-8.669-52.016-42.09-97.747-49.762-149.98-7.456-50.8,10.1-102.082,8.323-153.4-2.991-85.913-66.234-166.452-149.156-189.989-30.343-8.669-62.2-10.23-91.332-21.673-37.972-15.128-67.231-45.557-98.267-72.129a597.709,597.709,0,0,0-257.957-128.87c-63.893-14.174-139.49-14.391-184.657,32.814-18.336,19.2-30.343,45.167-53.75,58-12.007,6.632-25.792,9.016-38.709,13.481-63.806,21.934-100.478,101.432-75.727,164.024" transform="translate(863.886 73.868)" fill="#2f2e41"/>
  <path id="Path_8438" data-name="Path 8438" d="M1531.948,914.153c-24.794-2.341-48.332-11.834-71.045-22.02-45.037-20.243-89.945-44.647-120.808-83.139-36.975-46.078-49.285-106.33-69.658-161.727S1214.605,534.912,1157.388,520c-28.826-7.542-59.212-3.164-88.991-3.034s-62.2-5.375-82.359-27.4-22.281-53.23-27.829-81.925a320.761,320.761,0,0,0-25.531-77.5c-13.481-28.175-33.767-56.351-64.023-64.413-27.7-7.369-56.654,3.988-82.576,16.125s-53.143,25.7-81.666,22.844-56.351-30.343-47.681-57.608l-4.335,4.335a120.071,120.071,0,0,1-2.948-76.594c-36.714,34.461-53.143,91.462-34.417,138.71l4.335-4.335c-8.669,27.222,19.376,54.747,47.681,57.608s55.744-10.707,81.666-22.844,54.877-23.494,82.576-16.125c30.343,8.019,50.542,36.238,64.023,64.413a321.289,321.289,0,0,1,25.531,77.5c5.549,28.7,8.106,60.252,27.829,81.926s52.449,27.525,82.359,27.4,60.166-4.335,88.991,3.034c57.218,14.911,92.632,71.912,113.049,127.266s32.683,115.649,69.658,161.727c30.819,38.492,75.77,62.9,120.807,83.139,22.714,10.187,46.251,19.679,71.046,22.02s51.409-3.424,69.355-20.416c15.258-14.3,22.714-34.331,27.829-54.964A94.841,94.841,0,0,1,1531.948,914.153Z" transform="translate(864.351 179.877)" opacity="0.1"/>
  <path id="Path_8439" data-name="Path 8439" d="M676.342,329.91S657.66,466.756,726.1,497.879,844.268,634.551,844.268,634.551l-55.961,12.44s-18.682,87.084,31.08,111.965,186.608,0,186.608,0,62.246-31.123,12.44-130.647S825.672,311.271,825.672,311.271,750.986,230.386,676.342,329.91Z" transform="translate(1087.006 531.478)" fill="#45aff7"/>
  <ellipse id="Ellipse_435" data-name="Ellipse 435" cx="29.953" cy="44.907" rx="29.953" ry="44.907" transform="translate(1751.602 551.111)" fill="#ffc1c7"/>
  <circle id="Ellipse_436" data-name="Ellipse 436" cx="14.955" cy="14.955" r="14.955" transform="translate(1766.6 586.049)" fill="#f2f2f2"/>
  <ellipse id="Ellipse_437" data-name="Ellipse 437" cx="17.469" cy="7.499" rx="17.469" ry="7.499" transform="translate(1754.516 635.696) rotate(-63.3)" fill="#f2f2f2"/>
  <path id="Path_8440" data-name="Path 8440" d="M868.5,173.663c-.52-21.457-6.589-39.836-15.3-49.849L846.3,150.992v-32.64a16.559,16.559,0,0,0-10.1-2.384c-16.948,1.56-30.039,30.039-29.259,63.59s15.171,59.515,32.12,57.955S869.278,207.343,868.5,173.663Z" transform="translate(1530.185 -16.617)" fill="#57b894"/>
  <path id="Path_8441" data-name="Path 8441" d="M864.222,164.446c-7.109,1.56-14,5.938-21.11,6.805s-14.911-2.514-19.376-13.481c-2.427-5.9-3.641-13.351-5.678-19.81A40.266,40.266,0,0,0,810.3,123.57,112.083,112.083,0,0,0,807,153.913c.78,33.55,15.171,59.472,32.12,57.911,14.218-1.3,25.7-21.673,28.566-47.942A30.352,30.352,0,0,0,864.222,164.446Z" transform="translate(1530.343 8.941)" opacity="0.1"/>
  <path id="Path_8442" data-name="Path 8442" d="M948.79,586.355c19.636-8.669,34.244-21.37,40.139-33.29L961.4,557.052l30.343-12.311a16.776,16.776,0,0,0-1.647-10.23c-7.933-15.041-39.272-16.211-69.962-2.6s-49.155,36.8-41.223,52.016S918.057,599.966,948.79,586.355Z" transform="translate(1764.157 1338.981)" fill="#57b894"/>
  <path id="Path_8443" data-name="Path 8443" d="M932.331,588.174c-4.335-5.938-10.837-10.62-14.348-16.862s-3.424-14.738,4.985-23.061c4.335-4.335,10.923-8.669,16.082-13a39.626,39.626,0,0,0,10.36-12.657,113.178,113.178,0,0,0-29.3,8.67c-30.69,13.611-49.155,36.8-41.223,52.016,6.675,12.614,29.823,15.475,55.224,8.019A30.752,30.752,0,0,0,932.331,588.174Z" transform="translate(1764.057 1339.546)" opacity="0.1"/>
  <path id="Path_8444" data-name="Path 8444" d="M563.79,632.355c19.636-8.669,34.244-21.37,40.139-33.29L576.4,603.052l30.343-12.311a16.78,16.78,0,0,0-1.647-10.23c-7.933-15.041-39.272-16.212-69.962-2.6s-49.155,36.8-41.223,52.016S533.057,645.966,563.79,632.355Z" transform="translate(480.305 1492.376)" fill="#57b894"/>
  <path id="Path_8445" data-name="Path 8445" d="M547.332,634.174c-4.335-5.938-10.837-10.62-14.348-16.862s-3.424-14.738,4.985-23.061c4.335-4.335,10.923-8.669,16.082-13a39.619,39.619,0,0,0,10.36-12.657,113.183,113.183,0,0,0-29.3,8.669c-30.689,13.611-49.155,36.8-41.223,52.016,6.676,12.614,29.823,15.475,55.224,8.019a30.768,30.768,0,0,0-1.777-3.121Z" transform="translate(480.205 1492.941)" opacity="0.1"/>
  <rect id="Rectangle_1646" data-name="Rectangle 1646" width="551" height="52" transform="translate(273 165)" fill="#3c354c" opacity="0.3"/>
  <path id="Path_8446" data-name="Path 8446" d="M1340.584,925.7,1228.836,731.2H267.75V94H1533.477V731.2H1340.584ZM272.085,726.864H1231.35l104.9,182.62V726.864h192.894V98.335H272.085Z" transform="translate(-267.75 -89.665)" opacity="0.1"/>
  <path id="Path_8447" data-name="Path 8447" d="M1340.584,924.7,1228.836,730.2H267.75V93H1533.477V730.2H1340.584ZM272.085,725.864H1231.35l104.9,182.62V725.864h192.894V97.335H272.085Z" transform="translate(-267.75 -93)" fill="#f2f2f2"/>
  <circle id="Ellipse_438" data-name="Ellipse 438" cx="71.522" cy="71.522" r="71.522" transform="translate(71.522 119.204)" fill="#3c354c" opacity="0.3"/>
  <circle id="Ellipse_439" data-name="Ellipse 439" cx="26.008" cy="26.008" r="26.008" transform="translate(1012.148 461.644)" fill="#6c63ff" opacity="0.3"/>
  <circle id="Ellipse_440" data-name="Ellipse 440" cx="26.008" cy="26.008" r="26.008" transform="translate(1077.168 461.644)" fill="#6c63ff" opacity="0.3"/>
  <circle id="Ellipse_441" data-name="Ellipse 441" cx="26.008" cy="26.008" r="26.008" transform="translate(1142.189 461.644)" fill="#6c63ff" opacity="0.3"/>
</svg>
