<svg xmlns="http://www.w3.org/2000/svg" xmlns:xlink="http://www.w3.org/1999/xlink" width="2268" height="1080.363" viewBox="0 0 2268 1080.363">
  <defs>
    <linearGradient id="linear-gradient" x1="1" y1="0.017" x2="0.02" y2="1" gradientUnits="objectBoundingBox">
      <stop offset="0" stop-color="#00ffb3"/>
      <stop offset="1" stop-color="#1ed86f"/>
    </linearGradient>
    <linearGradient id="linear-gradient-2" x1="0.5" y1="1" x2="0.5" gradientUnits="objectBoundingBox">
      <stop offset="0" stop-color="gray" stop-opacity="0.251"/>
      <stop offset="0.54" stop-color="gray" stop-opacity="0.122"/>
      <stop offset="1" stop-color="gray" stop-opacity="0.102"/>
    </linearGradient>
  </defs>
  <g id="Rectangle_1573" data-name="Rectangle 1573" stroke="#707070" stroke-width="1" fill="url(#linear-gradient)">
    <rect width="2268" height="1080" stroke="none"/>
    <rect x="0.5" y="0.5" width="2267" height="1079" fill="none"/>
  </g>
  <g id="Group_3617" data-name="Group 3617" transform="translate(593.988 127.673)" opacity="0.5">
    <path id="Path_8252" data-name="Path 8252" d="M1327.686,467.345c-.229,1.352-.459,2.7-.712,4.055-8.182,46.029-21.542,90.4-41.407,131.147q-.978,2.027-1.991,4.055a374.809,374.809,0,0,1-46.656,71.952c-9.9,11.936-20.685,23.268-33.514,31.45-17.982,11.465-39.005,16.123-59.666,19.937-21.47,3.97-43.217,7.241-64.916,10.862q-11.537,1.883-22.93,3.946c-20.963,3.789-41.769,8.17-62.08,13.975-25.114,7.241-49.48,16.57-72.41,29.785q-2.752,1.569-5.443,3.222c-1.8,1.086-3.62,2.2-5.37,3.331s-3.512,2.257-5.25,3.4l-2.679,1.81c-.881.579-1.75,1.207-2.619,1.786-2.583,1.762-5.129,3.621-7.675,5.407l-.1.072q-2.516,1.81-5.008,3.621c-9.4,6.964-18.6,14.253-27.757,21.566l-5.781,4.622q-4.477,3.548-8.955,7.084c-1.75,1.388-3.524,2.764-5.286,4.139-1.279,1-2.546,2-3.85,2.993-6.529,5.033-13.142,9.956-19.889,14.663-1.605,1.122-3.234,2.245-4.827,3.343a254.523,254.523,0,0,1-42.891,23.63l-.193.085a170.176,170.176,0,0,1-22.785,7.856,136.407,136.407,0,0,1-13.42,2.909,118.606,118.606,0,0,1-36.386.628c-23.763-3.367-46.029-14.482-69.731-18.2-48.9-7.591-96.39,16.9-142.407,36.121q-16.9,7.072-34.166,13.275Q437.5,940,425.948,943.732a723.842,723.842,0,0,1-144.253,30.859c-20.009,2.185-40.876,3.222-61.247,1.654a206.874,206.874,0,0,1-22.93-2.981c-25.79-4.827-49.867-15.073-69.26-33.791-16.111-15.315-27.48-35.336-36.145-56.227q-5.226-12.587-9.208-25.754a287.224,287.224,0,0,1-9.377-42.034c-.471-3.21-.893-6.432-1.207-9.655q-.941-8.291-1.4-16.654a288.434,288.434,0,0,1,8.581-88.1c8.219-31.849,21.928-62.345,27.962-94.5.253-1.352.483-2.7.712-4.055q1.207-7.241,1.834-14.748c3.041-39.319-8.725-77.8-18.018-116.351-.326-1.352-.652-2.7-.965-4.055q-1.509-6.408-2.86-12.829c-8.6-40.767-10.958-84.394-3.319-125.077.241-1.352.519-2.715.8-4.055,5.153-25.2,14.253-49.167,28.192-70.516,14.3-21.916,33.079-40.152,53.1-56.178q14.663-11.706,30.328-21.9,11.26-7.313,22.93-13.842c62.864-35,134.587-52.1,205.5-48.274q5.636.29,11.248.772,5.889.507,11.743,1.207c45.655,5.274,90.078,18.344,134.237,32.645q22.194,7.241,44.315,14.482,9.848,3.21,19.684,6.336c32.162,10.15,64.855,19.309,97.851,26.213q11.477,2.414,22.93,4.4a541.967,541.967,0,0,0,80.363,8.279q15.689.386,31.378-.326,7.929-.362,15.87-1.062c54.682-4.683,107.409-20.384,160.353-35.131,7.651-2.136,15.315-4.26,22.93-6.312,10.065-2.7,20.142-5.322,30.255-7.736,62.973-15.122,119.091-6.432,177.635,24.752,13.275,7.084,26.551,15.629,34.757,28.856s10.2,29.6,11.718,45.365c2.148,22.423,3.62,45.16,4.091,67.993,0,1.352,0,2.7.084,4.055C1338.2,375.7,1335.385,422.281,1327.686,467.345Z" transform="translate(-70.44 -43.129)" fill="#6c63ff" opacity="0.1"/>
    <path id="Path_8253" data-name="Path 8253" d="M907.552,602.465h-4.115v4.055H908.1Zm-46.644,0a.262.262,0,0,0,0,.1l-.362,3.355v.6h35.722v-.241l2.546-3.814Zm-95.521,0V471.318h41.032c-.434-.362-.881-.724-1.34-1.062l-.6-.459c-.253-.205-.507-.4-.772-.579s-.893-.64-1.364-.953-.76-.519-1.207-.772l-.278-.181H765.386V460.13l-.953.459-1.014.567h-.072l-.217.133-.628.41c-.217.133-.434.266-.64.41-.628.422-1.207.881-1.871,1.352l-.6.483c-.41.314-.8.64-1.207.965-1.605,1.315-3.186,2.691-4.827,3.958-.41.326-.821.64-1.207.941a31.167,31.167,0,0,1-2.727,1.786,12.948,12.948,0,0,1-1.207.664l-.676.314-.616.266h0a25.634,25.634,0,0,1-4.489,1.424v128.2H680.884a1.855,1.855,0,0,0,.121.422c.338,1.207.676,2.414,1,3.62h60.438V747.092h.941l1.074.072,1.955.145,3.162.314,1.424.169,1.569.193h.229c.905.121,1.822.266,2.752.41l.591.1,1.327.217,1.907.338h0l4.574-.241h0l.628.133a3.661,3.661,0,0,1,.772.157V606.52h95.111v-.6l.362-3.355a.266.266,0,0,1,0-.1Zm142.166,0h-4.115v4.055H908.1Zm-49.215,0-.41,4.055h39.741l2.7-4.055Zm-92.927,0V471.318h41.032c-.434-.362-.881-.724-1.34-1.062l-.6-.459c-.253-.205-.507-.4-.772-.579s-.893-.64-1.364-.953-.76-.519-1.207-.772l-.278-.181H765.386V460.13l-.953.459-1.014.567h-.072l-.217.133-.628.41c-.217.133-.434.266-.64.41-.628.422-1.207.881-1.871,1.352l-.6.483c-.41.314-.8.64-1.207.965-1.605,1.315-3.186,2.691-4.827,3.958-.41.326-.821.64-1.207.941a31.167,31.167,0,0,1-2.727,1.786,12.948,12.948,0,0,1-1.207.664l-.676.314-.616.266h0a25.634,25.634,0,0,1-4.489,1.424v128.2H680.884a1.855,1.855,0,0,0,.121.422c.338,1.207.688,2.414,1.014,3.62h60.426V747.08l.941.06,1.074.072,1.955.145,3.162.314,1.424.169,1.569.193h.229c.905.121,1.822.265,2.752.41l.591.1,1.327.217,1.907.338h0l4.574-.241h0l.628.133a3.657,3.657,0,0,1,.772.157V606.52h92.577l.434-4.055Zm310.954-273.108h258.541c0-1.352,0-2.7-.084-4.055H1076.365V166.072c-7.675,2.052-15.339,4.176-22.93,6.312V325.3H772.241l-.712-.772,1.074-1.207h0L877.188,208.541q-15.689.724-31.378.326l-80.424,88.22V200.624q-11.513-1.991-22.93-4.4v96.426L624.874,163.67c-14.76-4.827-29.519-9.739-44.315-14.482L740.381,324.53l-.712.772H446.323V116.519q-5.865-.664-11.743-1.207-5.612-.495-11.248-.772V325.3h-205.5V162.862q-11.694,6.517-22.93,13.842V325.3H83.137c-.278,1.34-.555,2.7-.8,4.055H194.805V467.263H88.567c.314,1.352.64,2.7.965,4.055H194.854V602.465H105.68c-.229,1.352-.459,2.7-.712,4.055h89.885v366.7a206.874,206.874,0,0,0,22.93,2.981V606.52H423.332V943.686q11.562-3.753,22.99-7.857V606.52H742.408V901.109a170.165,170.165,0,0,0,22.785-7.857l.193-.084V606.52h287.976V744.667q11.453-2.064,22.93-3.946V606.52h204.764q1.014-2.027,1.991-4.055H1076.365V471.318h248.162c.253-1.352.483-2.7.712-4.055H1076.365Zm-858.521,0H423.332V467.263h-205.5Zm0,273.108V471.318H423.332V602.465ZM446.335,329.357H742.408V467.263H446.323Zm0,273.108V471.318H742.408V602.465Zm607.04,0H765.386V471.318h287.976Zm0-135.166H765.386V333.05l4.043-3.693h283.933ZM860.92,602.465a.262.262,0,0,0,0,.1l-.362,3.355v.6H896.28v-.241l2.546-3.814Zm46.644,0h-4.115v4.055h4.658Zm-142.166,0V471.318h41.032c-.434-.362-.881-.724-1.34-1.062l-.6-.459c-.253-.205-.507-.4-.772-.579s-.893-.64-1.364-.953-.76-.519-1.207-.772l-.278-.181H765.386V460.13l-.953.459-1.014.567h-.072l-.217.133-.628.41c-.217.133-.434.266-.64.41-.628.422-1.207.881-1.871,1.352l-.6.483c-.41.314-.8.64-1.207.965-1.605,1.315-3.186,2.691-4.827,3.958-.41.326-.821.64-1.207.941a31.167,31.167,0,0,1-2.727,1.786,12.948,12.948,0,0,1-1.207.664l-.676.314-.616.266h0a25.634,25.634,0,0,1-4.489,1.424v128.2H680.884a1.855,1.855,0,0,0,.121.422c.338,1.207.676,2.414,1,3.62h60.438V747.092h.941l1.074.072,1.955.145,3.162.314,1.424.169,1.569.193h.229c.905.121,1.822.266,2.752.41l.591.1,1.327.217,1.907.338h0l4.574-.241h0l.628.133a3.661,3.661,0,0,1,.772.157V606.52h95.111v-.6l.362-3.355a.266.266,0,0,1,0-.1Z" transform="translate(-67.981 -43.047)" fill="#6c63ff" opacity="0.1"/>
    <path id="Path_8254" data-name="Path 8254" d="M277.783,215.337h1.834a4.393,4.393,0,0,1-2.184-3.536h0c0-2.8,3.427-5.081,7.615-5.081H338.33c4.188,0,7.615,2.281,7.615,5.081h0c0,2.788-3.427,5.081-7.615,5.081h-1.774a4.405,4.405,0,0,1,2.172,3.536c0,2.414-2.486,4.393-5.817,4.936H348.25c4.176,0,7.6,2.281,7.6,5.081s-3.427,5.069-7.6,5.069H294.908c-4.176,0-7.6-2.281-7.6-5.069,0-2.414,2.486-4.393,5.817-4.936H277.783c-4.176,0-7.6-2.281-7.6-5.081S273.583,215.337,277.783,215.337Z" transform="translate(-29.129 -23.98)" fill="#6c63ff" opacity="0.1"/>
    <path id="Path_8255" data-name="Path 8255" d="M756.3,255.407h1.786a4.405,4.405,0,0,1-2.184-3.548h0c0-2.788,3.427-5.069,7.615-5.069H816.8c4.188,0,7.615,2.281,7.615,5.069h0c0,2.8-3.427,5.081-7.615,5.081h-1.774a4.417,4.417,0,0,1,2.172,3.548c0,2.414-2.486,4.381-5.817,4.924h15.339c4.176,0,7.6,2.293,7.6,5.081s-3.427,5.081-7.6,5.081h-53.27c-4.176,0-7.6-2.281-7.6-5.081,0-2.414,2.486-4.393,5.817-4.924H756.3c-4.176,0-7.6-2.293-7.6-5.081S752.152,255.407,756.3,255.407Z" transform="translate(69.848 -15.692)" fill="#6c63ff" opacity="0.1"/>
    <path id="Path_8256" data-name="Path 8256" d="M210.053,426.879h1.786a4.417,4.417,0,0,1-2.172-3.548h0c0-2.788,3.415-5.081,7.6-5.081h53.282c4.188,0,7.615,2.293,7.615,5.081h0c0,2.8-3.427,5.081-7.615,5.081h-1.774a4.417,4.417,0,0,1,2.172,3.548c0,2.414-2.486,4.381-5.817,4.924h15.339c4.188,0,7.6,2.281,7.6,5.081s-3.415,5.081-7.6,5.081H227.178c-4.176,0-7.6-2.293-7.6-5.081,0-2.414,2.5-4.393,5.817-4.936H210.053c-4.176,0-7.6-2.281-7.6-5.069S205.877,426.879,210.053,426.879Z" transform="translate(-43.138 19.772)" fill="#6c63ff" opacity="0.1"/>
    <path id="Path_8257" data-name="Path 8257" d="M734.081,713.44q-4.477,3.548-8.955,7.084c-1.75,1.388-3.524,2.764-5.286,4.139-1.279,1-2.546,2-3.85,2.993-6.529,5.032-13.142,9.956-19.889,14.663-1.605,1.122-3.234,2.245-4.827,3.343a254.513,254.513,0,0,1-42.891,23.63l-.193.084V713.44Z" transform="translate(49.058 80.829)" fill="#65617d"/>
    <path id="Path_8258" data-name="Path 8258" d="M925.1,581.683l1.352-41.7c-.809-.628-1.629-1.207-2.414-1.786a222.254,222.254,0,0,0-2.124-37.183c-5.455-41.7-40.876-42.6-50.868-34a24.128,24.128,0,0,1-4.308,2.969c.905-5.95,2.027-11.911,2.836-17.8,4.369-31.764-2.414-67.5-27.057-88.027-10.318-8.581-22.93-13.855-34.262-21.035-20.3-12.8-36.338-31.716-56.866-44.182s-49.36-17.137-67.269-1.11c-6.939,6.2-11.417,14.808-18.537,20.794-13.275,11.151-33.973,11.887-45.558,24.342h0c-.579.628-1.134,1.267-1.665,1.943-9.655,12.382-7.012,29.942-3.934,45.3,3.705,18.489,2.172,33.309,18.03,38.619.06.736.109,1.472.193,2.2a78.336,78.336,0,0,0,34.467,56.384l-2.571.917c-6.855,2.414-13.022,4.755-16.968,6.36-14.482,5.9-44.967,13.589-44.967,13.589s-.724,8.689-.591,21.506c-10.162,11.043-27.118,30.448-32.1,41.95-7.241,16.775-48.153,64.819-59.051,72.072s-22.713,15.858-22.713,15.858S470.9,669.191,462.726,670.1c-5.66.628-23.171-2.727-23.171-2.727s-69.936-85.686-65.4-19.937,60.4,67.981,60.4,67.981l56.323-.905s30.436,4.079,44.062-7.241c11.634-9.655,71.928-62.623,91.3-86.651.447.495.893.978,1.364,1.448,0,0,7.712-9.969,8.629,0s-5.008,14.482-1.822,18.1,12.72,16.317,13.167,21.3-12.708,25.344,9.534,40.791c.35.241.724.471,1.134.7,3.97,9.039,16.594,17.885,16.594,17.885l68.126-.905,128.54,9.969s3.826-3.367,9-8.87c6.915,6.348,16.51,11.791,27.323,8.448,0,0,15.448-18.573,15.906-30.811,0,0-9.993-25.838-14.482-33.538s3.186-24.475,3.186-24.475,5.443-16.316,8.629-16.316.905-10.862.905-10.862a13.2,13.2,0,0,1-1.364-12.237C923.28,594.379,925.1,581.683,925.1,581.683Z" transform="translate(-7.666 -7.252)" fill="url(#linear-gradient-2)"/>
    <path id="Path_8259" data-name="Path 8259" d="M790.514,543.665l-4.827,5.648h0l-19.5,22.713-25.476,1.545-40.779,2.51s-54.984-66.255-44.653-80.677c3.753-5.2,4.369-12.068,3.62-18.549-.1-.893-.229-1.786-.386-2.667a77.106,77.106,0,0,0-6.42-19.792l1.352-.616.869-.4,48.081-21.94,11.9-5.431a32.12,32.12,0,0,0,3.258,9.389c.229.459.483.917.748,1.352,16.4,27.154,68.995,9.981,68.995,9.981Z" transform="translate(49.865 21.377)" fill="#ee8e9e"/>
    <path id="Path_8260" data-name="Path 8260" d="M840.048,507.873c-.362,16.437-3.041,23.533-3.041,23.533l-68.054,10.367-2.546-17.668L756.33,454.338l9.462-9.462a25.259,25.259,0,0,0,21.639-5.407c9.908-8.569,45.063-7.663,50.47,33.791a229.477,229.477,0,0,1,2.148,34.612Z" transform="translate(71.426 23.269)" fill="#ee8e9e"/>
    <path id="Path_8261" data-name="Path 8261" d="M818.917,667.077s15.315-18.477,15.773-30.642l-15.327-25.694L805.847,596.26,780.6,644.992S797.279,673.836,818.917,667.077Z" transform="translate(76.446 56.592)" fill="#dfe5ee"/>
    <path id="Path_8262" data-name="Path 8262" d="M818.917,667.077s15.315-18.477,15.773-30.642l-15.327-25.694L805.847,596.26,780.6,644.992S797.279,673.836,818.917,667.077Z" transform="translate(76.446 56.592)" opacity="0.1"/>
    <path id="Path_8263" data-name="Path 8263" d="M839.018,730.079c-1.279,1-2.546,2-3.85,2.993-6.529,5.032-13.142,9.956-19.889,14.663-1.605,1.122-3.234,2.245-4.827,3.343H425.471L311.57,747l-91.6-.772-22.93-1.207L82.632,738.985a287.228,287.228,0,0,1-9.425-42.07c-.471-3.21-.893-6.432-1.207-9.655l124.992,6.927,22.93,1.291,205.5,11.465,22.99,1.279L744.5,724.756l22.785,1.279h.193Z" transform="translate(-70.12 75.414)" fill="#d48a9b"/>
    <path id="Path_8264" data-name="Path 8264" d="M993.661,653.342c-25.114,7.241-49.48,16.57-72.41,29.785-1.822,1.05-3.621,2.124-5.443,3.222s-3.62,2.2-5.37,3.331-3.512,2.257-5.25,3.4l-2.679,1.81-2.619,1.786c-2.583,1.774-5.129,3.62-7.675,5.407l-.1.072q-2.516,1.81-5.008,3.621c-9.4,6.963-18.6,14.253-27.757,21.566q-2.9,2.317-5.8,4.622l-8.931,7.084c-1.75,1.388-3.524,2.764-5.286,4.139-1.279,1-2.546,2-3.85,2.993L767.9,742.962H767.7L744.92,741.9,448.7,727.865l-22.99-1.1L220.21,717l-22.93-1.1L73.447,710.076c-.471-3.21-.893-6.432-1.207-9.655q-.941-8.291-1.4-16.654l126.428-44.653,22.93-8.122,20.83-7.362,37.955,1.979,87.725,4.5h0l59.039,3.1,22.99,1.207,14.687.772h0l3.512.193h0l123.6,6.457h0l1.3.084h0L647,644.8h.99l5.515.278h0l18.8.99,23.509,1.207h0l7.748.41h0l1.46.084,10.958.567h0l3.126.157h0l10.463.555h0l4.164.229h1l9.787.519,15.158.8h.072l4.707.241h.507l2.812.157,6.9.362h0l6.034.314h.06l6.77.35h.109l5.129.278h0l3.934.205,13.963.736h0l2.51.133h.869l1.207.072h0l4.091.217h0l1.834.1h0l14.241.736h1.3l21.023-.181h.145l79.929-.652h7.9l25.73-.205h3.838Z" transform="translate(-70.36 62.253)" fill="#efc6cd"/>
    <path id="Path_8265" data-name="Path 8265" d="M388.847,651.937l7.434,39.548L598.4,688.443s15.206,4.393,14.868-7.772c0,0,30.762-29.073,186.577,4.731L740.025,638.42,576.5,647.206,386.88,642.137Z" transform="translate(-4.991 65.312)" fill="#6c63ff"/>
    <path id="Path_8266" data-name="Path 8266" d="M391.59,642.154l7.1,42.927s173.785-5.069,201.107-.338l-20.649-39.21S474.065,635.733,391.59,642.154Z" transform="translate(-4.016 65.633)" fill="#fff"/>
    <path id="Path_8267" data-name="Path 8267" d="M391.59,642.154l7.1,42.927s173.785-5.069,201.107-.338l-20.649-39.21S474.065,635.733,391.59,642.154Z" transform="translate(-4.016 65.633)" opacity="0.1"/>
    <path id="Path_8268" data-name="Path 8268" d="M393.74,642l7,39.922s171.576-4.707,198.609-.314L578.99,645.147S475.177,636.024,393.74,642Z" transform="translate(-3.572 65.632)" fill="#fff"/>
    <path id="Path_8269" data-name="Path 8269" d="M396.35,643l6.819,37.34s167.811-4.405,194.3-.29l-19.913-34.117S476.013,637.363,396.35,643Z" transform="translate(-3.032 65.862)" opacity="0.1"/>
    <path id="Path_8270" data-name="Path 8270" d="M397.47,641.865l6.855,37.412s167.811-4.405,194.3-.29l-19.961-34.154S477.133,636.277,397.47,641.865Z" transform="translate(-2.8 65.633)" fill="#fff"/>
    <path id="Path_8271" data-name="Path 8271" d="M303.229,557.41s8.786,11.477-4.043,28.819-23.425,31.969-19.14,42.782c0,0,19.309-32.2,35.119-32.585S320.571,576.768,303.229,557.41Z" transform="translate(-27.288 48.556)" fill="#6c63ff"/>
    <path id="Path_8272" data-name="Path 8272" d="M303.144,557.41a13.951,13.951,0,0,1,1.8,3.621c15.375,18.1,23.57,35,8.786,35.36-13.77.386-30.28,25.006-34.238,31.233q.205.7.471,1.412s19.309-32.2,35.119-32.585S320.486,576.768,303.144,557.41Z" transform="translate(-27.203 48.556)" opacity="0.1"/>
    <path id="Path_8273" data-name="Path 8273" d="M312.967,569.984c0,4.031-.459,7.313-1.014,7.313s-1.014-3.283-1.014-7.313.567-2.148,1.122-2.148S312.967,565.941,312.967,569.984Z" transform="translate(-20.698 50.621)" fill="#ffd037"/>
    <path id="Path_8274" data-name="Path 8274" d="M318.446,574.007c-3.548,1.943-6.638,3.114-6.9,2.619s2.414-2.414,5.938-4.393,2.148-.531,2.414,0S321.994,572.076,318.446,574.007Z" transform="translate(-20.577 51.413)" fill="#ffd037"/>
    <path id="Path_8275" data-name="Path 8275" d="M264.038,557.41s-8.786,11.477,4.055,28.819,23.413,31.969,19.14,42.782c0,0-19.37-32.2-35.131-32.585S246.7,576.768,264.038,557.41Z" transform="translate(-34.476 48.556)" fill="#6c63ff"/>
    <path id="Path_8276" data-name="Path 8276" d="M264.038,557.41a14.484,14.484,0,0,0-1.8,3.621c-15.375,18.1-23.57,35-8.786,35.36,13.77.386,30.292,25.006,34.25,31.233a14.5,14.5,0,0,1-.471,1.412s-19.37-32.2-35.131-32.585S246.7,576.768,264.038,557.41Z" transform="translate(-34.476 48.556)" opacity="0.1"/>
    <path id="Path_8277" data-name="Path 8277" d="M247.13,569.984c0,4.031.459,7.313,1.014,7.313s1.014-3.283,1.014-7.313-.567-2.148-1.122-2.148S247.13,565.941,247.13,569.984Z" transform="translate(-33.896 50.621)" fill="#ffd037"/>
    <path id="Path_8278" data-name="Path 8278" d="M242.859,574.007c3.548,1.943,6.65,3.114,6.915,2.619s-2.414-2.414-5.938-4.393-2.148-.531-2.414,0S239.311,572.076,242.859,574.007Z" transform="translate(-35.225 51.413)" fill="#ffd037"/>
    <path id="Path_8279" data-name="Path 8279" d="M335.195,604.828l-.434,3.621-.615,5.057-.253,2.112-.615,5.069-.266,2.112-.628,5.069-7.024,57.59c-.628,5.141-9.027,9.148-19.165,9.148H269.724c-10.137,0-18.525-4.007-19.153-9.148l-7.036-57.59-.616-5.069-.253-2.112-.628-5.069-.253-2.112-.615-5.057-.447-3.621c-.35-2.908,4.188-5.358,9.932-5.358h74.655C331.043,599.47,335.593,601.92,335.195,604.828Z" transform="translate(-35.225 57.256)" fill="#65617d"/>
    <path id="Path_8280" data-name="Path 8280" d="M264.277,551.59l-.615,5.069h-92.4l-.616-5.069Z" transform="translate(35.294 114.078)" fill="#9d9cb5"/>
    <path id="Path_8281" data-name="Path 8281" d="M263.259,557.54l-.615,5.069H172l-.628-5.069Z" transform="translate(35.443 115.309)" fill="#9d9cb5"/>
    <path id="Path_8282" data-name="Path 8282" d="M262.227,563.49l-.615,5.057h-88.9l-.615-5.057Z" transform="translate(35.594 116.54)" fill="#9d9cb5"/>
    <path id="Path_8283" data-name="Path 8283" d="M415.156,601.468s-23.437-22.532-22.532,6.758S415.156,601.468,415.156,601.468Z" transform="translate(-3.808 55.957)" fill="#ee8e9e"/>
    <path id="Path_8284" data-name="Path 8284" d="M629.589,572.757c-.519,2.269-3.041,6.034-6.976,10.753-20.323,24.475-78.143,75.343-89.475,84.78-13.517,11.272-43.712,7.241-43.712,7.241l-55.877.905s-55.43-2.257-59.944-67.583S438.5,628.682,438.5,628.682s17.378,3.331,22.99,2.7c8.11-.893,25.235-10.355,25.235-10.355s11.718-8.568,22.532-15.773,51.375-54.984,58.592-71.662c4.574-10.584,19.309-27.89,29.483-39.114,5.841-6.457,10.174-10.862,10.174-10.862S632.739,558.782,629.589,572.757Z" transform="translate(-7.78 33.293)" fill="#ee8e9e"/>
    <path id="Path_8285" data-name="Path 8285" d="M591.209,572.765c-.519,2.269-3.041,6.034-6.976,10.753-20.516-20.89-24.8-62.575-25.283-89.077,5.841-6.457,10.174-10.862,10.174-10.862S594.359,558.79,591.209,572.765Z" transform="translate(30.6 33.285)" opacity="0.1"/>
    <path id="Path_8286" data-name="Path 8286" d="M785.675,544.622h0l-19.49,22.713-25.476,1.545-40.779,2.51s-54.984-66.255-44.653-80.677c3.753-5.2,4.369-12.068,3.62-18.549-.1-.893-.229-1.786-.386-2.667a77.106,77.106,0,0,0-6.42-19.792l1.352-.616.869-.4a86.537,86.537,0,0,1,4.417,18.477c.133.857.253,1.75.374,2.667.422,3.258.809,6.879,1.207,10.862,3.138,36.471,26.08,50.192,36.434,54.561a105.105,105.105,0,0,1,9.751,4.719,52.027,52.027,0,0,0,32.705,5.914c25.561-3.355,46.4-21.928,46.4-21.928l.109,18.284Z" transform="translate(49.865 26.069)" opacity="0.1"/>
    <path id="Path_8287" data-name="Path 8287" d="M805.322,687.321s-167.642-.459-189.739-15.773-9-35.6-9.462-40.562-9.908-17.572-13.058-21.192,2.7-8.11,1.8-18.018-8.557,0-8.557,0c-31.559-32.005-24.8-113.117-24.8-113.117s30.171-7.651,44.653-13.529c3.922-1.593,10.029-3.862,16.9-6.312l2.546-.917c17.7-6.336,38.752-13.492,38.752-13.492s4.043-2.86,8.11,5.7c1.859,3.934,3.729,10.27,5.226,20.4.133.857.253,1.75.374,2.667.422,3.258.809,6.879,1.207,10.862,3.138,36.471,26.08,50.192,36.435,54.561a105.067,105.067,0,0,1,9.751,4.719,52.027,52.027,0,0,0,32.705,5.914c25.561-3.355,46.4-21.928,46.4-21.928l.109,18.284.314,54.935Z" transform="translate(31.003 25.088)" fill="#dfe5ee"/>
    <path id="Path_8288" data-name="Path 8288" d="M788.742,587.675l-2.7,17.125s-66.7,16.666-92.83,21.627-82.475-1.352-86.53,9.462S623.8,661.581,623.8,661.581l67.583-.905,127.539,9.92s48.672-42.819,32.9-72.567S788.742,587.675,788.742,587.675Z" transform="translate(40.365 53.531)" fill="#ee8e9e"/>
    <path id="Path_8289" data-name="Path 8289" d="M647.936,474.58s-30.654,25.235-24.788,37.412S647.936,474.58,647.936,474.58Z" transform="translate(43.724 31.424)" opacity="0.1"/>
    <path id="Path_8290" data-name="Path 8290" d="M617.223,512.29s-31.1,53.632-29.29,57.687,10.367,18.477,9.908,7.663S617.223,512.29,617.223,512.29Z" transform="translate(36.579 39.223)" opacity="0.1"/>
    <path id="Path_8291" data-name="Path 8291" d="M625.372,520.14s-7.241,33.345-14.422,47.32S625.372,520.14,625.372,520.14Z" transform="translate(41.053 40.847)" opacity="0.1"/>
    <path id="Path_8292" data-name="Path 8292" d="M726.583,436.781a77.962,77.962,0,0,1-59.256,40.091h-.145a77.83,77.83,0,0,1-54.863-14.361c18.1-6.541,41.3-14.41,41.3-14.41s4.043-2.86,8.11,5.7l60.849-27.757a32.261,32.261,0,0,0,4.007,10.741Z" transform="translate(41.639 21.384)" opacity="0.1"/>
    <path id="Path_8293" data-name="Path 8293" d="M741.6,415.113A77.612,77.612,0,0,1,731.345,453.8a78.527,78.527,0,0,1-11.622,15.472,77.636,77.636,0,0,1-47.26,23.364h-.157a76.125,76.125,0,0,1-8.665.495,77.962,77.962,0,0,1-77.467-69.178,75.693,75.693,0,0,1-.495-8.8,77.962,77.962,0,0,1,155.924,0Z" transform="translate(36.129 3.008)" fill="#ee8e9e"/>
    <path id="Path_8294" data-name="Path 8294" d="M757.628,530.523l7.241-10.862s39.657-47.32,78.444-17.125L841.962,544s-1.81,12.611-4.514,19.309A13.191,13.191,0,0,0,838.8,575.49s2.257,10.861-.893,10.861-8.568,16.22-8.568,16.22-7.663,16.679-3.15,24.342,14.422,33.345,14.422,33.345-15.773-9.462-20.287-25.235c0,0-38.305-29.749-68.054-10.862Z" transform="translate(70.586 35.123)" opacity="0.1"/>
    <path id="Path_8295" data-name="Path 8295" d="M838.321,496.838c-.362,16.437-3.041,23.533-3.041,23.533l-68.054,10.367L764.68,513.07C773.586,503.777,805.978,474.234,838.321,496.838Z" transform="translate(73.153 34.304)" opacity="0.1"/>
    <path id="Path_8296" data-name="Path 8296" d="M757.628,528.523l7.241-10.862s39.657-47.32,78.444-17.125L841.962,542s-1.81,12.611-4.514,19.309A13.19,13.19,0,0,0,838.8,573.49s2.257,10.862-.893,10.862-8.568,16.22-8.568,16.22-7.663,16.679-3.15,24.342,14.422,33.345,14.422,33.345-15.773-9.462-20.287-25.235c0,0-38.305-29.749-68.054-10.862Z" transform="translate(70.586 34.709)" fill="#dfe5ee"/>
    <path id="Path_8297" data-name="Path 8297" d="M820.407,496.61s-65.338,40.115-62.188,75.295C758.219,571.9,794.726,507.423,820.407,496.61Z" transform="translate(71.794 35.98)" opacity="0.1"/>
    <path id="Path_8298" data-name="Path 8298" d="M799.422,567.7l.314,54.935c-12.358.555-24-1.05-33.212-9.051-6.408-5.576-10.137-13.275-12.068-21.6a76.526,76.526,0,0,1-1.569-20.432,1.1,1.1,0,0,1,0-.205c.76-15.17,4.248-30.34,2.414-45.413s-10.97-30.98-25.887-34.154c-2.945-.64-6.251-.869-8.351-3.029-2.317-2.414-2.208-6.167-1.955-9.51l.434-5.636c.109-1.448.157-2.884.157-4.32a55.309,55.309,0,0,0-44.653-54.235l-.483-.084c-4.2-.845-8.568-1.678-12.768-.712-7.989,1.846-13.155,9.594-20.516,13.275-14.12,7.048-37.665-.664-52.449-3.089-.965-.157-1.883-.338-2.764-.543a75.71,75.71,0,0,1-.495-8.8,77.962,77.962,0,1,1,145.665,38.691c.229.459.483.917.748,1.352,16.4,27.154,68.995,9.981,68.995,9.981l3.162,96.9Z" transform="translate(36.106 3.001)" opacity="0.1"/>
    <path id="Path_8299" data-name="Path 8299" d="M647.569,435.755c7.313-3.693,12.479-11.441,20.516-13.275,4.188-.965,8.557-.133,12.78.7l.483.1A55.358,55.358,0,0,1,725.8,481.844l-.434,5.636c-.266,3.331-.374,7.108,1.967,9.5,2.088,2.16,5.395,2.414,8.339,3.017,14.917,3.186,24.052,19.008,25.887,34.166s-1.714,30.376-2.414,45.606,2.1,32.042,13.613,42.046c18.1,15.689,45.618,6.758,69.574,5.322-10.6,0-18.537-10.934-19.116-21.506s4.127-20.637,8.629-30.171,9.015-19.792,8.013-30.34c-1.376-14.482-12.792-26.08-17.161-40.019-5.093-16.22-.181-33.635,2.124-50.494,4.333-31.571-2.414-67.112-26.852-87.52-10.234-8.532-22.749-13.782-34-20.927-20.154-12.78-36.048-31.523-56.42-43.953s-48.974-17.041-66.75-1.11c-6.879,6.167-11.32,14.723-18.392,20.673-13.818,11.646-35.783,11.863-46.862,26.152-9.534,12.3-6.951,29.761-3.9,45.027,4.067,20.359,1.774,36.205,23.533,39.826C609.9,435.1,633.437,442.815,647.569,435.755Z" transform="translate(32.651 -6.567)" fill="#603556"/>
    <path id="Path_8300" data-name="Path 8300" d="M826.884,607.989c-17.439,2.136-34.721,3.234-47.417-7.772-11.513-10-14.349-26.8-13.613-42.046s4.26-30.473,2.414-45.618S757.3,481.584,742.381,478.4c-2.945-.628-6.239-.857-8.339-3.017-2.329-2.414-2.233-6.179-1.967-9.51l.434-5.636a55.346,55.346,0,0,0-44.448-58.556l-.483-.1c-4.224-.833-8.593-1.665-12.78-.7-7.989,1.846-13.155,9.655-20.516,13.275-14.132,7.06-37.653-.652-52.461-3.077-21.723-3.56-19.454-19.43-23.533-39.826-2.281-11.393-4.3-24.016-1.207-34.805a18.978,18.978,0,0,0-1.665,1.943c-9.534,12.3-6.951,29.761-3.9,45.027,4.067,20.359,1.774,36.205,23.533,39.826,14.8,2.414,38.329,10.137,52.461,3.077,7.313-3.693,12.479-11.441,20.516-13.275,4.188-.965,8.556-.133,12.78.7l.483.1a55.358,55.358,0,0,1,44.448,58.568l-.434,5.636c-.265,3.331-.374,7.108,1.967,9.5,2.088,2.16,5.395,2.414,8.339,3.017,14.917,3.186,24.052,19.008,25.887,34.166s-1.7,30.376-2.414,45.606,2.1,32.042,13.613,42.046c18.1,15.689,45.618,6.758,69.574,5.322C835.767,617.74,830.3,613.612,826.884,607.989Z" transform="translate(32.624 2.853)" opacity="0.1"/>
    <path id="Path_8301" data-name="Path 8301" d="M378.684,599.644l74.4-27.757a7.084,7.084,0,0,1,9.112,4.151h0a7.084,7.084,0,0,1-4.152,9.112l-74.4,27.757-15.954-1.593Z" transform="translate(-8.96 51.457)" fill="#5c5c8e"/>
    <path id="Path_8302" data-name="Path 8302" d="M459.961,573.579h0a7.084,7.084,0,0,1-4.164,9.112l-74.45,27.854-11.972-1.207-1.726,1.834,15.954,1.593,74.4-27.757a7.084,7.084,0,0,0,4.151-9.112h0a7.084,7.084,0,0,0-2.9-3.536,8.222,8.222,0,0,1,.7,1.219Z" transform="translate(-8.968 51.648)" fill="#fff" opacity="0.1"/>
    <path id="Path_8303" data-name="Path 8303" d="M308.254,539.52l4.948,13.263-13.082-1.315-2.86-.29,3.91-4.152Z" transform="translate(61.482 111.582)" fill="#efc8c4"/>
    <path id="Path_8304" data-name="Path 8304" d="M371.594,601a3.16,3.16,0,0,1,.772.833,1.207,1.207,0,0,1,0,1.291,2.568,2.568,0,0,1-.712.519,2.414,2.414,0,0,0-1.062,1.786l-2.872-.278Z" transform="translate(-8.954 57.572)" fill="#727a9c"/>
    <path id="Path_8305" data-name="Path 8305" d="M570.606,672.411s64.445-13.529,172.578,3.62l-42.36-31.088L623.755,629.17,569.23,643.652Z" transform="translate(32.726 63.399)" fill="#fff"/>
    <path id="Path_8306" data-name="Path 8306" d="M570.606,672.411s64.445-13.529,172.578,3.62l-42.36-31.088L623.755,629.17,569.23,643.652Z" transform="translate(32.726 63.399)" opacity="0.1"/>
    <path id="Path_8307" data-name="Path 8307" d="M567.634,686.4s32.452-87.786,199.128.277l-59.823-38.5s-143.312-39.6-159.87,6.034Z" transform="translate(28.143 64.034)" fill="#fff"/>
    <path id="Path_8308" data-name="Path 8308" d="M567.649,687.435s32.452-93.856,199.128,1.69l-59.823-41.757S563.594,600.011,547,649.576Z" transform="translate(28.128 62.942)" opacity="0.1"/>
    <path id="Path_8309" data-name="Path 8309" d="M567.634,687.532s32.452-95.244,199.128.3L706.94,646.077s-143.312-46-159.87,3.621Z" transform="translate(28.143 62.88)" fill="#fff"/>
    <path id="Path_8310" data-name="Path 8310" d="M567.643,688.22s32.452-105.852,199.128,1.629L706.9,642.867S563.588,594.593,547.03,650.3Z" transform="translate(28.135 62.217)" opacity="0.1"/>
    <path id="Path_8311" data-name="Path 8311" d="M567.643,688.391s32.452-107.143,199.128.338L706.9,641.747s-143.312-48.273-159.87,7.434Z" transform="translate(28.135 61.985)" fill="#fff"/>
    <path id="Path_8312" data-name="Path 8312" d="M981.711,668.71s-40.007,42.855-3.995,63.673c0,0,4.707,5.672,11.429,2.7,0,0-2.269-2.015,2.281-5.9a26.991,26.991,0,0,0,4.284-4.707,13.274,13.274,0,0,0,2.486-8.037h0s5.238-17-11.4-39.077c0,0-1.509-7.386-2.788-8.194l-3.041,10.294s7.639,1.943,10.511,7.76c0,0-10.065-7.9-11.043-6.251-.193.338-1.364,5.539-1.364,5.539s13.275,3.427,17.427,12.551c0,0-10.729-11.018-17.885-10.584l-1.3,7.941s14.2,2.945,19.309,13.155c0,0-11.61-11.139-19.5-11.393l-.229,7.977s13.794,3.138,18.006,11.658c0,0-14.711-11.5-17.934-9.824,0,0,.229,7.35,1.207,9.269,0,0,9.848,2.414,11.851,7.651,0,0-10.644-6.65-11.562-5.636,0,0,2.86,9.486,6.843,13.529,0,0-6.324-5.539-8.3-13.01,0,0-2.679,4.67-2,9.256,0,0-3.946-4.369,1.339-11.562,0,0-1.931-7.482-1.448-8.665,0,0-6.215,6.36-7.808,12.068,0,0-1.207-7.144,7.8-14.132v-8.038s-8.665,7.977-10.451,12.913c0,0-.121-7.482,10.632-14.929l1.207-7.808s-7.989,6.3-11.163,11.368c0,0,1.376-6.976,11.586-13.589l1.412-5.117s-5.745,4.707-7.241,6.2-2.064,1.207-2.064,1.207a25.344,25.344,0,0,1,9.9-9.582S982.375,668.988,981.711,668.71Z" transform="translate(114.108 71.577)" fill="#6c63ff" opacity="0.1"/>
    <path id="Path_8313" data-name="Path 8313" d="M1132.639,90.91s-53.451,24.137-28.252,57.192c0,0,2.16,7.06,9.5,6.915,0,0-1.315-2.74,4.381-4.574a26.445,26.445,0,0,0,5.769-2.691,13.275,13.275,0,0,0,5.395-6.457h0s11.393-13.661,4.55-40.441c0,0,1.46-7.4.591-8.641l-6.782,8.327s6.3,4.731,6.71,11.212c0,0-6.227-11.175-7.772-10.017-.314.229-3.391,4.574-3.391,4.574s10.862,8.279,11.236,18.308c0,0-5.648-14.313-12.43-16.679l-4.26,6.831s11.972,8.194,12.768,19.587c0,0-6.42-14.748-13.6-18.03l-3.295,7.241s11.525,8.219,12.068,17.7c0,0-9.136-16.292-12.756-15.979,0,0-2.619,6.855-2.414,9.015,0,0,8.134,6.034,7.989,11.634,0,0-7.241-10.234-8.448-9.655,0,0-1.026,9.848,1.1,15.122,0,0-3.7-7.555-2.643-15.206,0,0-4.284,3.283-5.419,7.772,0,0-1.955-5.564,5.7-10.162,0,0,1.1-7.639,2-8.544,0,0-8.195,3.464-11.839,8.074,0,0,1.629-7.06,12.647-10.029l3.138-7.386s-11.067,4.007-14.627,7.869c0,0,2.776-6.951,15.568-9.655l4.115-6.734s-9.8,2.74-14.687,6.179c0,0,3.97-5.889,15.942-8.062l3.271-4.176s-7.12,2.124-9.112,2.921-2.414.326-2.414.326a25.344,25.344,0,0,1,12.9-5.02S1133.074,91.393,1132.639,90.91Z" transform="translate(142.021 -47.934)" fill="#6c63ff" opacity="0.1"/>
    <path id="Path_8314" data-name="Path 8314" d="M715.177,103.29s-80.3,22.93-41.262,57.059c0,0,3.464,7.241,14.579,7.241,0,0-2.076-2.8,6.517-4.5a51.041,51.041,0,0,0,8.665-2.559,15.46,15.46,0,0,0,7.989-6.384h0s16.9-13.517,5.8-40.767c0,0,2.015-7.434.664-8.713L708.092,112.9s9.655,4.96,10.463,11.513c0,0-9.739-11.453-12.068-10.331-.471.229-5.02,4.526-5.02,4.526s16.751,8.665,17.511,18.815c0,0-8.931-14.615-19.309-17.185l-6.276,6.782s18.344,8.6,19.852,20.142c0,0-10.113-15.073-21.071-18.585l-4.827,7.241s17.668,8.617,18.827,18.223c0,0-14.277-16.715-19.756-16.51,0,0-3.777,6.879-3.439,9.063,0,0,12.479,6.372,12.418,11.972,0,0-11.272-10.548-13.13-9.993,0,0-1.279,9.932,2.076,15.315,0,0-5.817-7.736-4.417-15.435,0,0-6.384,3.2-7.989,7.7,0,0-3.114-5.66,8.351-10.1,0,0,1.46-7.7,2.8-8.593,0,0-12.31,3.283-17.7,7.844,0,0,2.269-7.1,18.875-9.8l4.562-7.386s-16.654,3.765-21.94,7.567c0,0,4.019-6.951,23.328-9.365l6.034-6.7s-14.772,2.5-22.085,5.853c0,0,5.853-5.853,23.92-7.724l4.827-4.127s-10.729,1.955-13.722,2.7-3.621.266-3.621.266a47.538,47.538,0,0,1,19.31-4.731S715.877,103.8,715.177,103.29Z" transform="translate(52.165 -45.373)" fill="#6c63ff" opacity="0.1"/>
    <path id="Path_8315" data-name="Path 8315" d="M905.469,856.241s40.429-42.469,4.622-63.637c0,0-4.658-5.72-11.4-2.824,0,0,2.257,2.04-2.329,5.889a27.238,27.238,0,0,0-4.333,4.658,13.19,13.19,0,0,0-2.559,8.013h0s-5.419,16.956,11.018,39.186c0,0,1.436,7.4,2.7,8.231l3.15-10.27s-7.627-2.015-10.439-7.857c0,0,9.981,7.989,10.97,6.348.205-.338,1.424-5.515,1.424-5.515s-13.275-3.621-17.306-12.72c0,0,10.62,11.127,17.789,10.753l1.376-7.929s-14.168-3.077-19.2-13.275c0,0,11.5,11.248,19.394,11.586l.3-7.989s-13.77-3.331-17.946-11.9c0,0,14.6,11.658,17.837,10,0,0-.157-7.338-1.207-9.268,0,0-9.824-2.583-11.779-7.772,0,0,10.584,6.758,11.5,5.745,0,0-2.764-9.51-6.71-13.589,0,0,6.276,5.6,8.182,13.082,0,0,2.727-4.646,2.088-9.232,0,0,3.91,4.417-1.448,11.549,0,0,1.859,7.507,1.364,8.677,0,0,6.276-6.3,7.917-11.936,0,0,1.207,7.157-7.929,14.048l-.121,8.038s8.737-7.893,10.572-12.817c0,0,0,7.494-10.777,14.832l-1.207,7.8s8.05-6.227,11.272-11.26c0,0-1.448,6.951-11.718,13.468l-1.46,5.1s5.793-4.646,7.338-6.131,2.076-1.207,2.076-1.207a25.261,25.261,0,0,1-9.993,9.486S904.866,855.951,905.469,856.241Z" transform="translate(98.787 96.45)" fill="#6c63ff" opacity="0.1"/>
    <path id="Path_8316" data-name="Path 8316" d="M575.85,56.775s6.891,58.218,46.041,44.17c0,0,7.374.06,9.45-6.988,0,0-3.017.434-3.041-5.551a27.028,27.028,0,0,0-.833-6.312,13.179,13.179,0,0,0-4.526-7.084h0s-9.606-14.989-37.255-16.461c0,0-6.613-3.621-8.062-3.162l5.9,8.967s6.408-4.586,12.708-3.017c0,0-12.527,2.583-11.887,4.393.121.374,3.331,4.61,3.331,4.61s11.284-7.965,20.939-5.25c0,0-15.339,1.062-19.635,6.819l5.153,6.131s11.417-8.955,22.532-6.288c0,0-16,1.69-21.3,7.543l6.01,5.334s11.3-8.52,20.516-6.227c0,0-18.3,3.814-19.092,7.35,0,0,5.757,4.562,7.881,5.045,0,0,8.255-5.926,13.492-4.115,0,0-11.948,3.838-11.767,5.189,0,0,9.088,3.934,14.747,3.5,0,0-8.315,1.207-15.291-2.052,0,0,1.834,5.057,5.781,7.507,0,0-5.889.181-7.977-8.448,0,0-6.951-3.355-7.543-4.477,0,0,.845,8.846,4.139,13.71,0,0-6.251-3.621-5.769-15.073l-6.034-5.226s.495,11.767,3.1,16.329c0,0-5.793-4.743-4.538-17.765l-5.177-5.95s-.35,10.162,1.46,15.858c0,0-4.429-5.551-2.884-17.62l-3.005-4.381s-.109,7.422,0,9.57-.41,2.353-.41,2.353a25.344,25.344,0,0,1-.941-13.794S576.453,56.485,575.85,56.775Z" transform="translate(34.096 -55.29)" fill="#6c63ff" opacity="0.1"/>
    <path id="Path_8317" data-name="Path 8317" d="M828.426,735.8s-56.5-15.689-58.314,25.875c0,0-2.848,6.807,2.884,11.393,0,0,.736-2.945,6.288-.712a27.031,27.031,0,0,0,6.155,1.629,13.19,13.19,0,0,0,8.279-1.521h0s17.5-3.21,29.374-28.168c0,0,5.853-4.743,6.034-6.263l-10.536,2.064s1.81,7.675-2.027,12.913c0,0,2.414-12.575.447-12.672-.4,0-5.539,1.34-5.539,1.34s3.089,13.348-3.077,21.252c0,0,4.827-14.6,1.122-20.758l-7.651,2.522s3.958,13.951-2.727,23.22c0,0,4.514-15.435,1.086-22.556l-7.169,3.488s3.621,13.686-2.015,21.361c0,0,3.4-18.368.422-20.456,0,0-6.4,3.621-7.639,5.383,0,0,2.414,9.884-1.3,14.048,0,0,.965-12.515-.35-12.853,0,0-7.1,6.915-8.834,12.322,0,0,1.991-8.17,7.7-13.372,0,0-5.383-.217-9.136,2.5,0,0,2.052-5.515,10.862-4.151,0,0,5.745-5.177,7.012-5.286,0,0-8.448-2.583-14.265-1.376,0,0,5.769-4.393,16.135.386l7.144-3.621s-11.079-3.995-16.28-3.307c0,0,6.577-3.621,18.1,2.522l7.458-2.546s-9.268-4.164-15.23-4.646c0,0,6.819-1.991,17.4,4.007l5.189-1.122s-6.831-2.92-8.87-3.62-2.027-1.207-2.027-1.207a25.342,25.342,0,0,1,13.07,4.345S828.462,736.461,828.426,735.8Z" transform="translate(74.13 84.853)" fill="#6c63ff" opacity="0.1"/>
  </g>
</svg>
